<svg xmlns="http://www.w3.org/2000/svg" xmlns:xlink="http://www.w3.org/1999/xlink" viewBox="0 0 271.6 124.5">
  <defs>
    <style>
      .cls-1 {
        opacity: 0.3;
      }

      .cls-2 {
        fill: #fff;
      }

      .cls-3 {
        fill: none;
      }

      .cls-4 {
        clip-path: url(#clip-path);
      }

      .cls-5 {
        clip-path: url(#clip-path-2);
      }

      .cls-6 {
        clip-path: url(#clip-path-3);
      }

      .cls-7 {
        clip-path: url(#clip-path-4);
      }

      .cls-8 {
        clip-path: url(#clip-path-5);
      }

      .cls-9 {
        clip-path: url(#clip-path-6);
      }
    </style>
    <clipPath id="clip-path">
      <rect id="Rectangle_23" data-name="Rectangle 23" width="271.6" height="89.2" transform="translate(145 199)"/>
    </clipPath>
    <clipPath id="clip-path-2">
      <path id="Path_54" data-name="Path 54" d="M165.1,270.7c7.1-4.4,17.5-7.8,29.7-9.3a10.489,10.489,0,0,1-.9-4.4,11.212,11.212,0,0,1,11.5-11,12.413,12.413,0,0,1,2.7.3,25.813,25.813,0,0,1-.4-4c0-16.2,17.5-29.3,39-29.3,16.4,0,30.5,7.6,36.2,18.4a24.627,24.627,0,0,1,20.7-11.1c13.4,0,24.3,10.5,24.3,23.4a18.724,18.724,0,0,1-.4,4.2,15.329,15.329,0,0,1,25.5,3.3,13.11,13.11,0,0,1,11.2-6.2,12.747,12.747,0,0,1,13,12.5,10.551,10.551,0,0,1-.4,3.1c12.4.5,23.3,4.4,30.2,10H165.1Z"/>
    </clipPath>
    <clipPath id="clip-path-3">
      <rect id="Rectangle_22" data-name="Rectangle 22" width="419.7" height="419.7" transform="translate(51.3)"/>
    </clipPath>
    <clipPath id="clip-path-4">
      <rect id="Rectangle_26" data-name="Rectangle 26" width="113" height="49.4" transform="translate(235 274.1)"/>
    </clipPath>
    <clipPath id="clip-path-5">
      <path id="Path_55" data-name="Path 55" d="M246.9,310.4a8.262,8.262,0,0,1,5.3,1.8c1.2-2.3,4.4-3.9,8.1-3.9a11.368,11.368,0,0,1,4.3.8,9.927,9.927,0,0,1,9.2-8.1,7.256,7.256,0,0,1,7-6.1,6.294,6.294,0,0,1,3.3.9,16.4,16.4,0,0,1,29.1,6.9A10.165,10.165,0,0,1,319,301a9.977,9.977,0,0,1,10.2,8.9,10.681,10.681,0,0,1,5.8-1.6c4.7,0,8.5,2.6,8.7,5.8H240.3C241.1,312,243.7,310.4,246.9,310.4Z"/>
    </clipPath>
    <clipPath id="clip-path-6">
      <rect id="Rectangle_25" data-name="Rectangle 25" width="421" height="421" transform="translate(0 66.4)"/>
    </clipPath>
  </defs>
  <g id="Group_45" data-name="Group 45" class="cls-1" transform="translate(-145 -199)">
    <g id="Group_34" data-name="Group 34">
      <path id="Path_49" data-name="Path 49" class="cls-2" d="M246.9,310.4a8.262,8.262,0,0,1,5.3,1.8c1.2-2.3,4.4-3.9,8.1-3.9a11.368,11.368,0,0,1,4.3.8,9.927,9.927,0,0,1,9.2-8.1,7.256,7.256,0,0,1,7-6.1,6.294,6.294,0,0,1,3.3.9,16.4,16.4,0,0,1,29.1,6.9A10.165,10.165,0,0,1,319,301a9.977,9.977,0,0,1,10.2,8.9,10.681,10.681,0,0,1,5.8-1.6c4.7,0,8.5,2.6,8.7,5.8H240.3C241.1,312,243.7,310.4,246.9,310.4Z"/>
    </g>
    <g id="Group_35" data-name="Group 35">
      <path id="Path_50" data-name="Path 50" class="cls-3" d="M352.2,264.3a4.053,4.053,0,0,0,.5-.9,2.092,2.092,0,0,0,.4.6Z"/>
      <path id="Path_51" data-name="Path 51" class="cls-2" d="M407,270.7c-6.9-5.7-17.8-9.5-30.2-10a10.551,10.551,0,0,0,.4-3.1,12.747,12.747,0,0,0-13-12.5,12.984,12.984,0,0,0-11.2,6.2,15.329,15.329,0,0,0-25.5-3.3,19.924,19.924,0,0,0,.4-4.2c0-12.9-10.9-23.4-24.3-23.4a24.52,24.52,0,0,0-20.7,11.1c-5.8-10.8-19.8-18.4-36.2-18.4-21.5,0-39,13.1-39,29.3a17.519,17.519,0,0,0,.4,4,12.413,12.413,0,0,0-2.7-.3,11.275,11.275,0,0,0-11.5,11,10.824,10.824,0,0,0,.9,4.4c-12.2,1.6-22.6,4.9-29.7,9.3H407Z"/>
    </g>
    <g id="Group_36" data-name="Group 36">
      <path id="Path_52" data-name="Path 52" class="cls-3" d="M352.2,264.3a4.053,4.053,0,0,0,.5-.9,2.092,2.092,0,0,0,.4.6Z"/>
      <path id="Path_53" data-name="Path 53" class="cls-2" d="M407,270.7c-6.9-5.7-17.8-9.5-30.2-10a10.551,10.551,0,0,0,.4-3.1,12.747,12.747,0,0,0-13-12.5,12.984,12.984,0,0,0-11.2,6.2,15.329,15.329,0,0,0-25.5-3.3,19.924,19.924,0,0,0,.4-4.2c0-12.9-10.9-23.4-24.3-23.4a24.52,24.52,0,0,0-20.7,11.1c-5.8-10.8-19.8-18.4-36.2-18.4-21.5,0-39,13.1-39,29.3a17.519,17.519,0,0,0,.4,4,12.413,12.413,0,0,0-2.7-.3,11.275,11.275,0,0,0-11.5,11,10.824,10.824,0,0,0,.9,4.4c-12.2,1.6-22.6,4.9-29.7,9.3H407Z"/>
    </g>
    <g id="Group_40" data-name="Group 40">
      <g id="Group_39" data-name="Group 39" class="cls-4">
        <g id="Group_38" data-name="Group 38" class="cls-5">
          <g id="Group_37" data-name="Group 37" class="cls-6" transform="translate(0 0)">
            <rect id="Rectangle_21" data-name="Rectangle 21" class="cls-3" width="419.7" height="419.7" transform="translate(51.308 419.677) rotate(-90)"/>
          </g>
        </g>
      </g>
    </g>
    <g id="Group_44" data-name="Group 44">
      <g id="Group_43" data-name="Group 43" class="cls-7">
        <g id="Group_42" data-name="Group 42" class="cls-8">
          <g id="Group_41" data-name="Group 41" class="cls-9">
            <rect id="Rectangle_24" data-name="Rectangle 24" class="cls-3" width="421.02" height="421.02" transform="translate(-0.024 487.421) rotate(-90)"/>
          </g>
        </g>
      </g>
    </g>
  </g>
</svg>
