<svg xmlns="http://www.w3.org/2000/svg" xmlns:xlink="http://www.w3.org/1999/xlink" viewBox="0 0 286.61 290.4"><defs><style>.cls-1,.cls-12,.cls-16,.cls-18,.cls-19,.cls-21,.cls-28,.cls-29,.cls-3,.cls-6{stroke:#000;}.cls-1,.cls-12,.cls-16,.cls-18,.cls-19,.cls-21,.cls-24,.cls-25,.cls-26,.cls-28,.cls-29,.cls-3,.cls-6{stroke-miterlimit:10;}.cls-1,.cls-28{stroke-width:4.59px;}.cls-1{fill:url(#linear-gradient);}.cls-2{fill:url(#linear-gradient-2);}.cls-12,.cls-17,.cls-26,.cls-3{fill:#fff;}.cls-12,.cls-18,.cls-19,.cls-24,.cls-25,.cls-26,.cls-3{stroke-width:2.92px;}.cls-4{fill:url(#linear-gradient-3);}.cls-5{fill:url(#linear-gradient-4);}.cls-24,.cls-25,.cls-28,.cls-6{fill:none;}.cls-6{stroke-width:3.89px;}.cls-7{fill:url(#linear-gradient-5);}.cls-8{fill:url(#linear-gradient-6);}.cls-9{fill:url(#linear-gradient-7);}.cls-10{fill:url(#linear-gradient-8);}.cls-11{fill:url(#linear-gradient-9);}.cls-12,.cls-24,.cls-25,.cls-26{stroke-linecap:round;}.cls-13{fill:url(#linear-gradient-10);}.cls-14{fill:url(#linear-gradient-11);}.cls-15{fill:url(#linear-gradient-12);}.cls-16,.cls-21,.cls-29{stroke-width:3.06px;}.cls-16{fill:url(#radial-gradient);}.cls-18{fill:#4d1f03;}.cls-19{fill:#63300f;}.cls-20{fill:url(#linear-gradient-13);}.cls-21{fill:url(#linear-gradient-14);}.cls-22{fill:url(#linear-gradient-15);}.cls-23{fill:#26120b;}.cls-24,.cls-26{stroke:#12491d;}.cls-25{stroke:#26120b;}.cls-27{fill:url(#linear-gradient-16);}.cls-29{fill:url(#linear-gradient-17);}</style><linearGradient id="linear-gradient" x1="143.24" y1="289.64" x2="143.24" y2="4.94" gradientUnits="userSpaceOnUse"><stop offset="0" stop-color="#006e89"/><stop offset="0.24" stop-color="#15a7ca"/><stop offset="0.25" stop-color="#1daacc"/><stop offset="0.33" stop-color="#47bad5"/><stop offset="0.4" stop-color="#69c7dd"/><stop offset="0.48" stop-color="#84d1e3"/><stop offset="0.56" stop-color="#97d8e8"/><stop offset="0.64" stop-color="#a2ddea"/><stop offset="0.72" stop-color="#a6deeb"/><stop offset="0.98" stop-color="#ff0"/></linearGradient><linearGradient id="linear-gradient-2" x1="-2998.18" y1="226.7" x2="-2926.11" y2="226.7" gradientTransform="matrix(-1, 0, 0, 1, -2736.73, 0)" gradientUnits="userSpaceOnUse"><stop offset="0" stop-color="#ffff25"/><stop offset="0.06" stop-color="#ffe816"/><stop offset="0.13" stop-color="#fed50b"/><stop offset="0.2" stop-color="#feca03"/><stop offset="0.28" stop-color="#fec601"/><stop offset="0.67" stop-color="#fb7b1e"/><stop offset="0.89" stop-color="#f9441b"/><stop offset="1" stop-color="#f71818"/></linearGradient><linearGradient id="linear-gradient-3" x1="24.16" y1="226.7" x2="96.23" y2="226.7" gradientTransform="matrix(1, 0, 0, 1, 0, 0)" xlink:href="#linear-gradient-2"/><linearGradient id="linear-gradient-4" x1="143.24" y1="207.03" x2="143.24" y2="262.1" gradientUnits="userSpaceOnUse"><stop offset="0" stop-color="#01a0c6"/><stop offset="0.09" stop-color="#1dabcc"/><stop offset="0.23" stop-color="#47bad6"/><stop offset="0.38" stop-color="#69c7dd"/><stop offset="0.53" stop-color="#84d1e3"/><stop offset="0.68" stop-color="#97d8e8"/><stop offset="0.83" stop-color="#a2ddea"/><stop offset="1" stop-color="#a6deeb"/></linearGradient><linearGradient id="linear-gradient-5" x1="81.94" y1="111.67" x2="113.37" y2="111.67" gradientTransform="matrix(1, 0, 0, 1, 0, 0)" xlink:href="#linear-gradient-2"/><linearGradient id="linear-gradient-6" x1="143.61" y1="69.06" x2="165.33" y2="69.06" gradientTransform="matrix(1, 0, 0, 1, 0, 0)" xlink:href="#linear-gradient-2"/><linearGradient id="linear-gradient-7" x1="160.6" y1="98.07" x2="193.09" y2="98.07" gradientTransform="matrix(1, 0, 0, 1, 0, 0)" xlink:href="#linear-gradient-2"/><linearGradient id="linear-gradient-8" x1="120.85" y1="69.06" x2="142.57" y2="69.06" gradientTransform="matrix(1, 0, 0, 1, 0, 0)" xlink:href="#linear-gradient-2"/><linearGradient id="linear-gradient-9" x1="93.08" y1="98.07" x2="125.57" y2="98.07" gradientTransform="matrix(1, 0, 0, 1, 0, 0)" xlink:href="#linear-gradient-2"/><linearGradient id="linear-gradient-10" x1="106.85" y1="86.19" x2="129.85" y2="86.19" gradientTransform="matrix(1, 0, 0, 1, 0, 0)" xlink:href="#linear-gradient-2"/><linearGradient id="linear-gradient-11" x1="173.45" y1="111.67" x2="204.88" y2="111.67" gradientTransform="matrix(1, 0, 0, 1, 0, 0)" xlink:href="#linear-gradient-2"/><linearGradient id="linear-gradient-12" x1="156.96" y1="86.19" x2="179.96" y2="86.19" gradientTransform="matrix(1, 0, 0, 1, 0, 0)" xlink:href="#linear-gradient-2"/><radialGradient id="radial-gradient" cx="227.56" cy="-3.08" r="33.94" gradientTransform="translate(-46.65 116.58) scale(0.83)" gradientUnits="userSpaceOnUse"><stop offset="0.01" stop-color="#fea621"/><stop offset="0.07" stop-color="#feb01d"/><stop offset="0.34" stop-color="#fed211"/><stop offset="0.59" stop-color="#ffeb07"/><stop offset="0.81" stop-color="#fffa02"/><stop offset="1" stop-color="#ff0"/></radialGradient><linearGradient id="linear-gradient-13" x1="42.58" y1="51.28" x2="42.58" y2="127.01" gradientUnits="userSpaceOnUse"><stop offset="0" stop-color="#40a629"/><stop offset="0.07" stop-color="#51ae25"/><stop offset="0.28" stop-color="#7dc21c"/><stop offset="0.49" stop-color="#9fd215"/><stop offset="0.68" stop-color="#b8de0f"/><stop offset="0.86" stop-color="#c7e50c"/><stop offset="1" stop-color="#cce70b"/></linearGradient><linearGradient id="linear-gradient-14" x1="41.87" y1="134.86" x2="241.31" y2="134.86" xlink:href="#linear-gradient-4"/><linearGradient id="linear-gradient-15" x1="244.03" y1="51.28" x2="244.03" y2="127.01" xlink:href="#linear-gradient-13"/><linearGradient id="linear-gradient-16" x1="140.87" y1="136.44" x2="140.87" y2="221.72" gradientUnits="userSpaceOnUse"><stop offset="0" stop-color="#40a629"/><stop offset="0.47" stop-color="#ff0"/><stop offset="1" stop-color="red"/></linearGradient><linearGradient id="linear-gradient-17" x1="46.35" y1="133.65" x2="241.31" y2="133.65" xlink:href="#linear-gradient-4"/></defs><title>irf-logo-full</title><g id="Layer_2" data-name="Layer 2"><g id="Layer_1-2" data-name="Layer 1"><path class="cls-1" d="M250.8,180.54a107.56,107.56,0,1,1-215.11,0C35.69,121.14,143.24,3.4,143.24,3.4S250.8,121.14,250.8,180.54Z"/><polygon class="cls-2" points="261.45 222.94 189.37 241.78 212.46 211.62 261.45 222.94"/><line class="cls-3" x1="267.7" y1="221.11" x2="161.72" y2="248.43"/><line class="cls-3" x1="263.57" y1="215.15" x2="157.6" y2="242.47"/><polygon class="cls-4" points="24.16 222.94 96.23 241.78 73.15 211.62 24.16 222.94"/><line class="cls-3" x1="264.19" y1="207.88" x2="158.22" y2="235.2"/><line class="cls-3" x1="16.04" y1="221.11" x2="122.01" y2="248.43"/><line class="cls-3" x1="20.16" y1="215.15" x2="126.14" y2="242.47"/><line class="cls-3" x1="19.54" y1="207.88" x2="125.51" y2="235.2"/><path class="cls-5" d="M229.59,179.18a86.35,86.35,0,0,1-172.7,0C56.89,131.49,143.24,37,143.24,37S229.59,131.49,229.59,179.18Z"/><path class="cls-6" d="M229.59,179.18a86.35,86.35,0,0,1-172.7,0C56.89,131.49,143.24,37,143.24,37S229.59,131.49,229.59,179.18Z"/><polygon class="cls-7" points="113.37 110.66 92.89 103.69 81.94 119.66 111.01 118.35 113.37 110.66"/><polygon class="cls-8" points="143.61 40.6 143.61 97.52 153.81 97.52 165.33 65.76 143.61 40.6"/><polygon class="cls-9" points="180.5 84.76 160.6 104.61 169.5 111.37 193.09 102.26 180.5 84.76"/><polygon class="cls-10" points="142.57 40.6 142.57 97.52 132.37 97.52 120.85 65.76 142.57 40.6"/><polygon class="cls-11" points="105.68 84.76 125.57 104.61 116.67 111.37 93.08 102.26 105.68 84.76"/><line class="cls-12" x1="143.24" y1="36.97" x2="143.24" y2="129.02"/><polygon class="cls-13" points="129.85 90.71 119.67 67.91 106.85 84.76 124.68 104.47 129.85 90.71"/><polygon class="cls-14" points="173.45 110.66 193.92 103.69 204.88 119.66 175.8 118.35 173.45 110.66"/><polygon class="cls-15" points="156.96 90.71 167.15 67.91 179.96 84.76 162.13 104.47 156.96 90.71"/><line class="cls-12" x1="182.03" y1="84.25" x2="132.92" y2="133.36"/><line class="cls-12" x1="151.2" y1="130.99" x2="104.46" y2="84.25"/><line class="cls-12" x1="119.56" y1="65.85" x2="146.25" y2="130.28"/><line class="cls-12" x1="194.62" y1="101.75" x2="117.25" y2="133.8"/><line class="cls-12" x1="166.93" y1="65.85" x2="139.71" y2="131.57"/><line class="cls-12" x1="164.65" y1="131.9" x2="91.86" y2="101.75"/><path class="cls-16" d="M177.84,123.3V123a34.6,34.6,0,1,0-69.19,0v.26Z"/><path class="cls-17" d="M92.59,234.59l-3.36-5.09v5.09H80.85v-21H91.14c3.37,0,5.91.83,7.54,2.46a7,7,0,0,1,2,5.22,7.12,7.12,0,0,1-3.29,6.2l4.88,7.12Zm-1.64-12c.94,0,1.42-.28,1.42-.82,0-.27,0-.85-1.4-.85H89.23v1.67Z"/><path d="M91.14,214.61c3.36,0,5.5.84,6.82,2.17a5.93,5.93,0,0,1,1.74,4.49v.06a6.14,6.14,0,0,1-3.74,5.8l4.41,6.44H93.14l-3.58-5.41H88.21v5.41H81.87v-19h9.27m-2.93,9H91c1.51,0,2.43-.68,2.43-1.84v-.06c0-1.21-.94-1.81-2.41-1.81H88.21v3.71m2.93-11.06H79.83v23H90.25V232.9l1.19,1.8.6.91h12.2l-2.18-3.19-3.23-4.72a8,8,0,0,0,2.91-6.37v-.06a8,8,0,0,0-2.33-5.94c-1.84-1.83-4.62-2.76-8.27-2.76Z"/><polygon class="cls-17" points="101.58 234.59 101.58 213.59 119.79 213.59 119.79 220.83 119.12 220.83 119.12 227.33 109.85 227.33 109.85 227.35 119.93 227.35 119.93 234.59 101.58 234.59"/><path d="M118.77,214.61v5.2h-9.94v1.92h9.27v4.58h-9.27v2.06h10.08v5.2H102.6v-19h16.17m2-2H100.56v23H121v-9.28h-.81v-4.48h.67v-9.28Z"/><path class="cls-17" d="M131.92,235c-6.66,0-11.67-4.67-11.67-10.85s4.93-11,11.48-11a12.73,12.73,0,0,1,8.6,3.12l.76.66-3.63,4.38h3.85v10.28l-.38.31A14.25,14.25,0,0,1,131.92,235Zm-1.26-7.56a3.94,3.94,0,0,0,1.53.29,5.33,5.33,0,0,0,1.15-.1v-.19Zm1.26-6.72a3.2,3.2,0,0,0-3.24,3.45,3.44,3.44,0,0,0,1.4,3v-5.78h4.23A5,5,0,0,0,131.92,220.72Z"/><path d="M131.73,214.2a11.8,11.8,0,0,1,7.94,2.87l-3.55,4.29a6.37,6.37,0,0,0-4.2-1.66,4.24,4.24,0,0,0-4.26,4.47v.06a4.32,4.32,0,0,0,4.53,4.52,4.24,4.24,0,0,0,2.17-.43v-1.9H131.1v-4.06h9.19v8.78a13.13,13.13,0,0,1-8.37,2.84c-5.91,0-10.65-3.95-10.65-9.83v-.06c0-5.66,4.47-9.89,10.46-9.89m0-2c-7.13,0-12.5,5.13-12.5,11.93v.06c0,6.77,5.45,11.87,12.69,11.87a15.26,15.26,0,0,0,9.66-3.3l.75-.62V220.32h-2.7l1.61-1.94,1.27-1.54L141,215.53a13.74,13.74,0,0,0-9.27-3.37Z"/><path class="cls-17" d="M153.7,235c-6.65,0-11.66-4.67-11.66-10.85s4.93-11,11.47-11a12.74,12.74,0,0,1,8.61,3.12l.75.66-3.63,4.38h3.85v10.28l-.37.31A14.26,14.26,0,0,1,153.7,235Zm-1.25-7.56a3.89,3.89,0,0,0,1.52.29,5.2,5.2,0,0,0,1.15-.1v-.19Zm1.25-6.72a3.2,3.2,0,0,0-3.23,3.45,3.43,3.43,0,0,0,1.4,3v-5.78h4.22A5,5,0,0,0,153.7,220.72Z"/><path d="M153.51,214.2a11.8,11.8,0,0,1,7.94,2.87l-3.55,4.29a6.35,6.35,0,0,0-4.2-1.66,4.23,4.23,0,0,0-4.25,4.47v.06a4.32,4.32,0,0,0,4.52,4.52,4.21,4.21,0,0,0,2.17-.43v-1.9h-3.25v-4.06h9.19v8.78A13.16,13.16,0,0,1,153.7,234c-5.9,0-10.64-3.95-10.64-9.83v-.06c0-5.66,4.47-9.89,10.45-9.89m0-2c-7.12,0-12.49,5.13-12.49,11.93v.06c0,6.77,5.45,11.87,12.68,11.87a15.26,15.26,0,0,0,9.66-3.3l.76-.62V220.32h-2.71l1.61-1.94,1.28-1.54-1.51-1.31a13.79,13.79,0,0,0-9.28-3.37Z"/><path class="cls-17" d="M178.59,234.59l-1-2.54h-5.25l-1,2.54h-9l8.85-21.14h7.64l8.85,21.14Zm-3.35-9.08-.27-.69-.26.69Z"/><path d="M178.17,214.47l8,19.1h-6.88l-1-2.54h-6.64l-1,2.54h-6.78l8-19.1h6.28m-4.93,12.06h3.47L175,221.92l-1.73,4.61m6.29-14.1h-9l-.53,1.26-8,19.1-1.18,2.82h11.24l.5-1.31.48-1.23h3.84l.49,1.25.51,1.29h11.34l-1.18-2.82-8-19.1-.52-1.26Z"/><polygon class="cls-17" points="187.29 234.59 187.29 213.59 205.5 213.59 205.5 220.83 204.82 220.83 204.82 227.33 195.56 227.33 195.56 227.35 205.64 227.35 205.64 234.59 187.29 234.59"/><path d="M204.48,214.61v5.2h-9.94v1.92h9.27v4.58h-9.27v2.06h10.08v5.2H188.31v-19h16.17m2-2H186.27v23h20.39v-9.28h-.81v-4.48h.67v-9.28Z"/><path class="cls-17" d="M157,256.74a15.69,15.69,0,0,1-10.39-3.45l-.76-.66,4.26-5.07a5.6,5.6,0,0,1-2.82-5.06c0-3.75,2.8-7.47,9.06-7.47a14.06,14.06,0,0,1,9.2,2.82l.76.6-3.71,5.15a5.9,5.9,0,0,1,3.8,5.64C166.38,253.82,162.69,256.74,157,256.74Zm-3.24-7.69a10.1,10.1,0,0,0,2.57.59l-.23,0C155.3,249.43,154.51,249.26,153.74,249.05Z"/><path d="M156.33,236.05a13.12,13.12,0,0,1,8.57,2.6l-3.09,4.28a10,10,0,0,0-5.69-1.87c-1,0-1.38.32-1.38.78v.06c0,.51.51.84,2.52,1.22,4.84.89,8.1,2.3,8.1,6.12v.06c0,4-3.28,6.42-8.38,6.42a14.66,14.66,0,0,1-9.72-3.2l3.38-4a10.89,10.89,0,0,0,6.64,2.22c1.14,0,1.63-.29,1.63-.81v0c0-.54-.6-.84-2.63-1.25-4.25-.87-8-2.08-8-6.09v-.06c0-3.6,2.81-6.39,8-6.39m0-2c-7,0-10.08,4.23-10.08,8.43v.06a6.52,6.52,0,0,0,2.37,5.22l-2.93,3.49-1.28,1.53,1.5,1.31A16.71,16.71,0,0,0,157,257.76c6.33,0,10.42-3.32,10.42-8.46v-.06a6.72,6.72,0,0,0-3.33-6l2.48-3.44,1.14-1.58-1.53-1.21a15.21,15.21,0,0,0-9.83-3Z"/><polygon class="cls-17" points="171.32 256.38 171.32 242.78 165.74 242.78 165.74 235.38 185.28 235.38 185.28 242.78 179.7 242.78 179.7 256.38 171.32 256.38"/><path d="M184.27,236.4v5.36h-5.59v13.61h-6.34V241.76h-5.58V236.4h17.51m2-2H164.72v9.44h5.58v13.6h10.42V243.8h5.59v-9.44Z"/><polygon class="cls-17" points="109.71 256.38 109.71 235.38 127.63 235.38 127.63 242.84 118.09 242.84 118.09 243.21 126.95 243.21 126.95 250.18 118.09 250.18 118.09 256.38 109.71 256.38"/><path d="M126.61,236.4v5.42h-9.54v2.41h8.86v4.93h-8.86v6.21h-6.34v-19h15.88m2-2h-20v23h10.42v-6.2H128v-7.34h.68v-9.5Z"/><polygon class="cls-17" points="128.44 256.38 128.44 235.38 146.65 235.38 146.65 242.62 145.97 242.62 145.97 249.12 136.71 249.12 136.71 249.14 146.78 249.14 146.78 256.38 128.44 256.38"/><path d="M145.63,236.4v5.2h-9.94v1.92H145v4.58h-9.26v2.06h10.07v5.21H129.45v-19h16.18m2-2H127.41v23H147.8v-9.28H147v-4.48h.68v-9.28Z"/><path class="cls-18" d="M151.14,110.78a28.43,28.43,0,0,0-15.94,0L67,130.76a2,2,0,0,0,.61,3.83H218.88a1.94,1.94,0,0,0,.61-3.78Z"/><path class="cls-19" d="M112.47,114.74a28,28,0,0,0-18.64-.15L43,132.14a2.81,2.81,0,0,0,1.15,5.37H159.45a2.78,2.78,0,0,0,1-5.4Z"/><path class="cls-19" d="M174,114.69,111,137.51H243.63a2.5,2.5,0,0,0,1-4.77l-52.32-18.17A27.51,27.51,0,0,0,174,114.69Z"/><path class="cls-20" d="M16.44,117.1a3.29,3.29,0,0,0,3.3,3.29,3.35,3.35,0,0,0,1.05-.17V123a3.29,3.29,0,0,0,6.34,1.24,3.28,3.28,0,0,0,2.1.75,3.47,3.47,0,0,0,.73-.08v5.89l-4.4,2a2.12,2.12,0,0,0,.78,4.1H41.71a2.12,2.12,0,0,0,.78-4.09l-4.52-2V119.22l2.29-2.29h1.08A3.28,3.28,0,0,0,41,118.4V123a3.3,3.3,0,0,0,6.59,0v-2.8a3.3,3.3,0,0,0,3.79-1.3,3.22,3.22,0,0,0,2.65.24v2.27a3.3,3.3,0,1,0,6.59,0v-1.61a3.24,3.24,0,0,0,1.85.57,3.3,3.3,0,0,0,3.2-2.53,3.2,3.2,0,0,0,1.75.51,3.29,3.29,0,0,0,3.3-3.29v-1.53a3.32,3.32,0,0,0,1.66.45,3.27,3.27,0,0,0,1.85-.57v.73a3.3,3.3,0,0,0,6.59,0v-4.42a3.3,3.3,0,0,0,4.34-3.13V97.16A17.76,17.76,0,0,0,68.29,79.44a17.77,17.77,0,0,0-16.63-14.2,17.74,17.74,0,0,0-35,0A17.76,17.76,0,0,0,0,83v36a3.3,3.3,0,1,0,6.59,0v-7.21a3.3,3.3,0,0,0,2.9-.4v14.4a3.3,3.3,0,1,0,6.59,0Z"/><path class="cls-21" d="M241.31,131.41l-10-3.94c-.93.29-1.85.58-2.78.78a12.19,12.19,0,0,1-5.55,0c-.93-.2-1.86-.49-2.78-.78s-1.85-.57-2.78-.78a12.24,12.24,0,0,0-5.56,0c-.92.21-1.85.49-2.78.78s-1.85.58-2.77.78a13.25,13.25,0,0,1-2.78.32,13.1,13.1,0,0,1-2.78-.32c-.93-.2-1.85-.49-2.78-.78s-1.85-.57-2.78-.78a12.19,12.19,0,0,0-5.55,0c-.93.21-1.86.49-2.78.78s-1.86.58-2.78.78a12.24,12.24,0,0,1-5.56,0c-.92-.2-1.85-.49-2.78-.78s-1.85-.57-2.77-.78a13.25,13.25,0,0,0-2.78-.32,13.1,13.1,0,0,0-2.78.32c-.93.21-1.85.49-2.78.78s-1.85.58-2.78.78a13.1,13.1,0,0,1-2.78.32,13.25,13.25,0,0,1-2.78-.32c-.92-.2-1.85-.49-2.77-.78s-1.86-.57-2.78-.78a12.24,12.24,0,0,0-5.56,0c-.92.21-1.85.49-2.78.78s-1.85.58-2.78.78a12.19,12.19,0,0,1-5.55,0c-.93-.2-1.85-.49-2.78-.78s-1.85-.57-2.78-.78a13.1,13.1,0,0,0-2.78-.32,13.25,13.25,0,0,0-2.78.32c-.92.21-1.85.49-2.77.78s-1.86.58-2.78.78a12.24,12.24,0,0,1-5.56,0c-.93-.2-1.85-.49-2.78-.78s-1.85-.57-2.78-.78a12.19,12.19,0,0,0-5.55,0c-.93.21-1.85.49-2.78.78s-1.85.58-2.78.78a12.24,12.24,0,0,1-5.56,0c-.92-.2-1.85-.49-2.77-.78s-1.86-.57-2.78-.78a12.24,12.24,0,0,0-5.56,0c-.93.21-1.85.49-2.78.78s-1.85.58-2.78.78a12.19,12.19,0,0,1-5.55,0c-.93-.2-1.85-.49-2.78-.78s-1.85-.57-2.78-.78a12.24,12.24,0,0,0-5.56,0c-.92.21-1.85.49-2.77.78l-11.63,6.14,5.44,9.73h194V132"/><path class="cls-22" d="M270.53,125.77a3.3,3.3,0,1,0,6.59,0v-14.4a3.27,3.27,0,0,0,1.85.57,3.3,3.3,0,0,0,1-.17V119a3.3,3.3,0,1,0,6.59,0V83a17.76,17.76,0,0,0-16.71-17.7,17.73,17.73,0,0,0-34.95,0,17.77,17.77,0,0,0-16.63,14.2,17.77,17.77,0,0,0-16.87,17.72v9.45a3.3,3.3,0,0,0,4.35,3.13v4.42a3.3,3.3,0,0,0,6.59,0v-.73a3.27,3.27,0,0,0,1.85.57,3.35,3.35,0,0,0,1.66-.45v1.53a3.29,3.29,0,0,0,3.29,3.29,3.21,3.21,0,0,0,1.76-.51,3.3,3.3,0,0,0,3.2,2.53,3.27,3.27,0,0,0,1.85-.57v1.61a3.3,3.3,0,1,0,6.59,0v-2.27a3.31,3.31,0,0,0,1,.18,3.35,3.35,0,0,0,1.6-.42,3.3,3.3,0,0,0,3.79,1.3V123a3.3,3.3,0,0,0,6.59,0V118.4a3.16,3.16,0,0,0-.36-1.47h1.09l2.29,2.29v11.57l-4.52,2a2.12,2.12,0,0,0,.78,4.09h15.37a2.12,2.12,0,0,0,.78-4.1l-4.41-2v-5.89a3.65,3.65,0,0,0,.74.08,3.28,3.28,0,0,0,2.1-.75,3.29,3.29,0,0,0,6.34-1.24v-2.8a3.3,3.3,0,0,0,4.35-3.12Z"/><path class="cls-23" d="M34.07,131l-7.75,3.44a.29.29,0,0,0,.09.57H41.79a.28.28,0,0,0,.08-.55Z"/><path class="cls-24" d="M19.81,117.05V97.12a14.45,14.45,0,0,1,28.9,0v19.93"/><path class="cls-24" d="M24.16,104.47V97.12a10.1,10.1,0,1,1,20.2,0v6.62"/><path class="cls-24" d="M29.3,101.87V97.12a5,5,0,0,1,9.92,0v5.77"/><line class="cls-24" x1="34.26" y1="96.83" x2="34.26" y2="109.12"/><path class="cls-24" d="M19.81,68.22a14.45,14.45,0,0,1,28.9,0"/><path class="cls-24" d="M24.16,68.22a10.1,10.1,0,0,1,20.2,0"/><path class="cls-24" d="M39.22,72.56V68.22a5,5,0,0,0-9.92,0v4.34"/><line class="cls-24" x1="34.26" y1="67.93" x2="34.26" y2="74.86"/><path class="cls-24" d="M32.26,82.92a14.45,14.45,0,1,0-28.89,0v36"/><path class="cls-24" d="M27.92,82.92a10.1,10.1,0,0,0-20.2,0V108.6"/><path class="cls-24" d="M22.77,87.25V82.92a5,5,0,1,0-9.91,0v42.81"/><line class="cls-24" x1="17.82" y1="82.63" x2="17.82" y2="89.56"/><path class="cls-24" d="M36.53,82.92a14.45,14.45,0,1,1,28.89,0"/><path class="cls-24" d="M40.87,82.92a10.11,10.11,0,0,1,20.21,0"/><path class="cls-24" d="M55.93,87.25V82.92a5,5,0,1,0-9.91,0v4.33"/><line class="cls-24" x1="50.98" y1="82.63" x2="50.98" y2="89.56"/><path class="cls-24" d="M53,116V97.12a14.45,14.45,0,0,1,28.9,0v9.45"/><path class="cls-24" d="M57.39,121.39V97.12a10.1,10.1,0,1,1,20.2,0v17"/><path class="cls-24" d="M62.53,117.05V97.12a5,5,0,1,1,9.92,0v13.54"/><line class="cls-24" x1="67.49" y1="96.83" x2="67.49" y2="115.03"/><polyline class="cls-25" points="24.13 108.71 33.99 118.57 43.96 108.6"/><polyline class="cls-25" points="38.65 107.63 38.65 113.58 45.26 113.58"/><polyline class="cls-25" points="29.11 107.63 29.11 113.69 23.26 113.69"/><rect class="cls-23" x="31.88" y="114.99" width="4.33" height="17.5" rx="1.53" ry="1.53"/><line class="cls-26" x1="44.36" y1="118.35" x2="44.36" y2="122.97"/><line class="cls-26" x1="24.16" y1="118.35" x2="24.16" y2="122.97"/><line class="cls-26" x1="29.3" y1="119.66" x2="29.3" y2="121.67"/><path class="cls-23" d="M252.42,131l7.74,3.44a.29.29,0,0,1-.08.57H244.7a.28.28,0,0,1-.08-.55Z"/><path class="cls-24" d="M266.67,117.05V97.12a14.45,14.45,0,1,0-28.89,0v19.93"/><path class="cls-24" d="M262.33,104.47V97.12a10.11,10.11,0,1,0-20.21,0v6.62"/><path class="cls-24" d="M257.18,101.87V97.12a5,5,0,1,0-9.91,0v5.77"/><line class="cls-24" x1="252.23" y1="96.83" x2="252.23" y2="109.12"/><path class="cls-24" d="M266.67,68.22a14.45,14.45,0,0,0-28.89,0"/><path class="cls-24" d="M262.33,68.22a10.11,10.11,0,0,0-20.21,0"/><path class="cls-24" d="M247.27,72.56V68.22a5,5,0,0,1,9.91,0v4.34"/><line class="cls-24" x1="252.23" y1="67.93" x2="252.23" y2="74.86"/><path class="cls-24" d="M254.22,82.92a14.45,14.45,0,1,1,28.9,0v36"/><path class="cls-24" d="M258.57,82.92a10.1,10.1,0,1,1,20.2,0V108.6"/><path class="cls-24" d="M263.71,87.25V82.92a5,5,0,1,1,9.92,0v42.81"/><line class="cls-24" x1="268.67" y1="82.63" x2="268.67" y2="89.56"/><path class="cls-24" d="M250,82.92a14.45,14.45,0,1,0-28.89,0"/><path class="cls-24" d="M245.61,82.92a10.1,10.1,0,0,0-20.2,0"/><path class="cls-24" d="M230.55,87.25V82.92a5,5,0,0,1,9.92,0v4.33"/><line class="cls-24" x1="235.51" y1="82.63" x2="235.51" y2="89.56"/><path class="cls-24" d="M233.44,116V97.12a14.45,14.45,0,1,0-28.89,0v9.45"/><path class="cls-24" d="M229.1,121.39V97.12a10.1,10.1,0,1,0-20.2,0v17"/><path class="cls-24" d="M224,117.05V97.12a5,5,0,1,0-9.91,0v13.54"/><line class="cls-24" x1="219" y1="96.83" x2="219" y2="115.03"/><polyline class="cls-25" points="262.36 108.71 252.5 118.57 242.53 108.6"/><polyline class="cls-25" points="247.84 107.63 247.84 113.58 241.23 113.58"/><polyline class="cls-25" points="257.37 107.63 257.37 113.69 263.23 113.69"/><rect class="cls-23" x="250.28" y="114.99" width="4.33" height="17.5" rx="1.53" ry="1.53" transform="translate(504.89 247.49) rotate(-180)"/><line class="cls-26" x1="242.12" y1="118.35" x2="242.12" y2="122.97"/><line class="cls-26" x1="262.33" y1="118.35" x2="262.33" y2="122.97"/><line class="cls-26" x1="257.18" y1="119.66" x2="257.18" y2="121.67"/><path class="cls-27" d="M257.44,222a470.52,470.52,0,0,0-233.15,0c-8.14,2.15-14.69-2.6-14.7-10.93V151.19a14.85,14.85,0,0,1,15-14.95H257.19a14.85,14.85,0,0,1,14.95,14.95V211C272.14,219.36,265.58,224.11,257.44,222Z"/><path class="cls-28" d="M257.44,222a470.52,470.52,0,0,0-233.15,0c-8.14,2.15-14.69-2.6-14.7-10.93V151.19a14.85,14.85,0,0,1,15-14.95H257.19a14.85,14.85,0,0,1,14.95,14.95V211C272.14,219.36,265.58,224.11,257.44,222Z"/><path class="cls-29" d="M241.31,136.17l-10-3.94c-.93.29-1.85.58-2.78.78a12.19,12.19,0,0,1-5.55,0c-.93-.2-1.86-.49-2.78-.78s-1.85-.57-2.78-.78a12.24,12.24,0,0,0-5.56,0c-.92.21-1.85.49-2.78.78s-1.85.58-2.77.78a13.25,13.25,0,0,1-2.78.32,13.1,13.1,0,0,1-2.78-.32c-.93-.2-1.85-.49-2.78-.78s-1.85-.57-2.78-.78a12.19,12.19,0,0,0-5.55,0c-.93.21-1.86.49-2.78.78s-1.86.58-2.78.78a12.24,12.24,0,0,1-5.56,0c-.92-.2-1.85-.49-2.78-.78s-1.85-.57-2.77-.78a13.25,13.25,0,0,0-2.78-.32,13.1,13.1,0,0,0-2.78.32c-.93.21-1.85.49-2.78.78s-1.85.58-2.78.78a13.1,13.1,0,0,1-2.78.32,13.25,13.25,0,0,1-2.78-.32c-.92-.2-1.85-.49-2.77-.78s-1.86-.57-2.78-.78a12.24,12.24,0,0,0-5.56,0c-.92.21-1.85.49-2.78.78s-1.85.58-2.78.78a12.19,12.19,0,0,1-5.55,0c-.93-.2-1.85-.49-2.78-.78s-1.85-.57-2.78-.78a13.1,13.1,0,0,0-2.78-.32,13.25,13.25,0,0,0-2.78.32c-.92.21-1.85.49-2.77.78s-1.86.58-2.78.78a12.24,12.24,0,0,1-5.56,0c-.93-.2-1.85-.49-2.78-.78s-1.85-.57-2.78-.78a12.19,12.19,0,0,0-5.55,0c-.93.21-1.85.49-2.78.78s-1.85.58-2.78.78a12.24,12.24,0,0,1-5.56,0c-.92-.2-1.85-.49-2.77-.78s-1.86-.57-2.78-.78a12.24,12.24,0,0,0-5.56,0c-.93.21-1.85.49-2.78.78s-1.85.58-2.78.78a12.19,12.19,0,0,1-5.55,0c-.93-.2-1.85-.49-2.78-.78s-1.85-.57-2.78-.78a12.24,12.24,0,0,0-5.56,0c-.92.21-1.85.49-2.77.78l-7.15,3.28"/><path class="cls-17" d="M21,213.76a1.84,1.84,0,0,1-2-1.87,3.92,3.92,0,0,1,.61-1.93,21.71,21.71,0,0,1,1.25-2A9.05,9.05,0,0,0,22,206.2a10.93,10.93,0,0,0,.61-3.43c0-2,.22-4.5.37-6.29.07-.76.13-1.41.15-1.88,0-.8,0-1.47,0-2.06s0-1,0-1.49a22.42,22.42,0,0,1,.21-2.76,11.44,11.44,0,0,0,.14-1.51,15.51,15.51,0,0,0-.07-1.91v-.49c-.11-1.1-.25-3.68-.25-6.57,0-1.48.08-3,.18-4.59v-.06a31.35,31.35,0,0,0,.17-3.56c0-.92,0-1.45-.09-2.19,0-.31-.05-.65-.07-1a14.74,14.74,0,0,0-.27-2.06,14.86,14.86,0,0,1-.33-3c0-2.06.1-3.39.18-4.47.05-.7.09-1.26.09-1.83a9,9,0,0,0-.35-2.12,6.76,6.76,0,0,1-.24-1.13,9.65,9.65,0,0,0-.85-.65l-.06,0A7.1,7.1,0,0,1,19,148.43a2.35,2.35,0,0,1-.21-1.05c0-.52.23-2.25,3.16-2.26.55,0,1.18,0,1.85-.08s1.5-.1,2.2-.1c.93,0,2.25.06,3.51.13s2.35.11,3.08.11h0a7.2,7.2,0,0,1,1.29.18l.74.13a9.78,9.78,0,0,1,3-.49c.62,0,1.12,0,1.59,0s.84,0,1.25,0A2.43,2.43,0,0,1,43,147l0,.09c.19,1.08-.54,1.84-1.87,3.22-.5.53-1,1.07-1.38,1.53-.7.88-.89,1.58-.9,4.85a34.24,34.24,0,0,1-.39,4.92,14,14,0,0,0-.15,1.49v1.79a7.75,7.75,0,0,1-.48,3.26.76.76,0,0,1,0,.11,4.57,4.57,0,0,0,.2.53,6.08,6.08,0,0,1,.55,2c0,.33,0,.74.08,1.21.13,1.68.32,4.2.31,7,0,2-.07,3.48-.12,4.77,0,1.06-.08,2-.08,3a60.19,60.19,0,0,1-.29,6.84c0,.21,0,.4,0,.57a3.15,3.15,0,0,0,0,.41c0,.71.06,1.42.13,2.25.09,1,.19,2.12.19,3.47a2.72,2.72,0,0,0,.19,1.15l.09.11a7.23,7.23,0,0,0,1.68,1.83,3.14,3.14,0,0,1,2.27,2.74,2.39,2.39,0,0,1-2,2.27c-1.22.29-3.86,1-5.78,1.51l-1.5.4c-2.55.66-5.12,1.35-7.63,2.05-.79.3-1.86.61-3.46,1.07l-.88.26h-.15Z"/><path d="M40.44,146.47c.52,0,.86.16,1,.88.08.48-1.91,2.19-2.95,3.51s-1.21,2.47-1.23,5.82-.54,5.17-.54,6.4v1.8a6.32,6.32,0,0,1-.35,2.64,2,2,0,0,0-.18.67c0,.82.68,1.58.76,2.71.08,1.38.41,4.53.39,8.11s-.19,5.41-.2,7.78a57.31,57.31,0,0,1-.29,6.74c0,.33-.09.67-.09,1.08,0,1.72.33,3.36.32,5.73a3.59,3.59,0,0,0,.5,2.08c.17.21,1.6,2.23,2.54,2.49.59.19,1.19.77,1.19,1.25,0,.32-.26.62-.86.77-1.62.38-5.62,1.46-7.32,1.91-2.57.67-5.15,1.36-7.71,2.08-.85.32-2.12.68-4.14,1.27l-.31,0c-.27,0-.45-.06-.45-.32a2.41,2.41,0,0,1,.42-1.17c.76-1.45,2.11-2.94,2.45-4.06a12.34,12.34,0,0,0,.68-3.89c0-2.84.44-6.56.52-8.12s-.08-2.56-.08-3.59c0-1.81.35-3.08.35-4.28a17.42,17.42,0,0,0-.08-2.13v-.35c-.09-.84-.25-3.39-.25-6.49,0-1.46.09-3,.18-4.49a34.54,34.54,0,0,0,.17-3.72c0-1.37-.08-2-.17-3.33-.08-1.88-.59-3-.59-5,0-3.36.26-4.75.27-6.3a25.41,25.41,0,0,0-.6-3.51c0-.61-.6-1-1.55-1.7a5.35,5.35,0,0,1-1.89-2,.76.76,0,0,1-.09-.44c0-.35.35-.7,1.64-.7s2.75-.18,4-.18h0c1.7,0,5,.24,6.56.24h.05c.31,0,1.75.33,2.15.33h.09a7.63,7.63,0,0,1,2.75-.5c1.21,0,2-.09,2.85-.09h0m0-3.11h0c-.47,0-.89,0-1.33,0s-.94,0-1.52,0a12.07,12.07,0,0,0-3.12.44l-.35-.06a8.07,8.07,0,0,0-1.52-.21h-.05c-.7,0-1.87-.05-3-.11-1.29-.06-2.62-.13-3.56-.13-.78,0-1.57.06-2.32.1s-1.26.08-1.76.09c-4.56,0-4.69,3.42-4.69,3.81a3.82,3.82,0,0,0,.33,1.65,8.06,8.06,0,0,0,2.95,3.32l.06,0,.32.24c.05.22.11.44.17.67a7.39,7.39,0,0,1,.3,1.72c0,.51,0,1-.09,1.72-.08,1.1-.18,2.46-.18,4.58a17.1,17.1,0,0,0,.35,3.27,12.26,12.26,0,0,1,.25,1.82v.05c0,.41.05.75.07,1.06.06.73.09,1.22.09,2.08a30.35,30.35,0,0,1-.16,3.4v.13c-.09,1.6-.18,3.16-.18,4.68,0,2.87.14,5.47.25,6.64v.42l0,.23a16.11,16.11,0,0,1,.05,1.68c0,.34-.06.79-.12,1.31a22.29,22.29,0,0,0-.23,3c0,.52,0,1,0,1.55s0,1.21,0,2c0,.43-.08,1.06-.14,1.78-.16,1.83-.37,4.32-.38,6.43a9.12,9.12,0,0,1-.52,2.9v0h0a11.46,11.46,0,0,1-.87,1.38,21.14,21.14,0,0,0-1.35,2.13,5.48,5.48,0,0,0-.79,2.66A3.4,3.4,0,0,0,21,215.32a4.86,4.86,0,0,0,.56,0l.3,0,.29-.09.73-.21c1.59-.46,2.67-.77,3.5-1.08,2.5-.7,5-1.38,7.54-2l1.53-.41c1.91-.51,4.52-1.21,5.72-1.49a3.91,3.91,0,0,0,3.22-3.78A4.61,4.61,0,0,0,41.3,202a10.44,10.44,0,0,1-1.11-1.29,1.79,1.79,0,0,1,0-.39c0-1.42-.1-2.59-.19-3.62-.07-.79-.13-1.46-.13-2.11,0,0,0-.14,0-.22s0-.39.06-.64a62.51,62.51,0,0,0,.29-7c0-1,0-1.9.08-3,.05-1.3.11-2.79.12-4.82,0-2.89-.18-5.45-.31-7.15,0-.46-.07-.86-.09-1.16v0a7.17,7.17,0,0,0-.63-2.42,10.46,10.46,0,0,0,.41-3.37v-1.8c0-.25.07-.75.14-1.28a36.48,36.48,0,0,0,.4-5.12c0-3.19.21-3.44.56-3.88s.83-.95,1.29-1.42c1.4-1.46,2.6-2.72,2.28-4.58l0-.09,0-.09a4,4,0,0,0-4-3.27Z"/><path class="cls-17" d="M51.76,206a1.69,1.69,0,0,1-1.26-.5l-.45-.46v-.68a2.65,2.65,0,0,1,1-1.78,12.5,12.5,0,0,0,.86-1,15.57,15.57,0,0,1,1.29-1.64,6.22,6.22,0,0,0,1-1.33l0-.07,0-.07v-.25c0-.21,0-.44,0-.69s-.05-.83-.05-1.35a10.62,10.62,0,0,1,.12-1.67c.13-1.1.15-2.09.17-3a17.83,17.83,0,0,1,.12-2.17c0-.23.07-.51.11-.79a8.23,8.23,0,0,0,.15-1.31,3.77,3.77,0,0,0-.12-.83,24.82,24.82,0,0,1-.6-6.44,57.15,57.15,0,0,1,.64-8.91,6.18,6.18,0,0,0,0-.73,17.81,17.81,0,0,0-.3-3.11v-.1a27.44,27.44,0,0,1-.16-3.13c0-1.52.12-3.3.21-4.87,0-.61.07-1.2.1-1.76v-.09a2.31,2.31,0,0,1,.08-.47c0-.1,0-.19,0-.27l-.15,0a3.94,3.94,0,0,0-1-.07l-1.52,0a2,2,0,0,0-1.79,1.18A2.93,2.93,0,0,1,50,158a9.06,9.06,0,0,1-1.68,1.43,14.17,14.17,0,0,0-1.6,1.27c-.5.83-1.54,1.06-2.93,1.14h-.1a1.71,1.71,0,0,1-1.28-.57c-.69-.75-.62-1.85-.53-3.25,0-.4.06-.81.06-1.16,0-.59,0-1.31,0-2s0-1.41,0-2a8.06,8.06,0,0,1,.17-1.83c.05-.25.12-.6.21-1.19a17.56,17.56,0,0,0,.18-3.27,2,2,0,0,1,2.13-1.95,16.65,16.65,0,0,1,2.1.25c.79.12,1.69.26,2.33.3h1a18.84,18.84,0,0,1,2.26.08c.46,0,1.34.06,2.59.06h2.93a41.12,41.12,0,0,0,4.2-.22h0a12.1,12.1,0,0,1,1.71-.08c1,0,2,.07,3.34.16l1.93.13H69c.18,0,.71.06,2.31.06h.42a34.8,34.8,0,0,0,4.92-.35,29.64,29.64,0,0,1,3.81-.45,4.06,4.06,0,0,1,1.13.12,2.09,2.09,0,0,1,1.69,2.09,4,4,0,0,1-.21,1.13,8.3,8.3,0,0,0-.34,2.52,8.08,8.08,0,0,0,.13,1.11,14.16,14.16,0,0,1,.19,2.05c0,2.24,0,6-2.55,6.07h-.08c-1.58,0-6.56-3.15-7.71-3.89h-1c-.76,0-1,0-1.43.07v.07a3.16,3.16,0,0,1,.13.53,7.92,7.92,0,0,1,.09,1.57c0,.82-.08,1.7-.15,2.54s-.14,1.67-.15,2.43c0,.91-.09,1.76-.17,2.51s-.12,1.25-.12,1.8a3.89,3.89,0,0,0,0,.79l0,.08v.07a17,17,0,0,1,.16,2.76v1.68a7.78,7.78,0,0,1-.63,3.44l0,.06a.45.45,0,0,0-.06.21.89.89,0,0,0,.19.37,3.06,3.06,0,0,1,.56,2,15.83,15.83,0,0,1-.2,2c-.12.83-.26,1.86-.36,3.13v.08a18.71,18.71,0,0,0-.09,2.23c0,2.37.12,5.11.2,6.75.05.94.07,1.4.07,1.67a2.69,2.69,0,0,0,.34.79,5.78,5.78,0,0,1,.56,1.3l.46.19a5.84,5.84,0,0,1,1.61.92,3,3,0,0,1,1.2,2.22,2.35,2.35,0,0,1-1.75,2.16,24.62,24.62,0,0,1-2.49.5l-.15,0-2.57.44c-.52.09-2.2.46-4,.85-1.59.34-3.39.74-4.65,1l-.06,0h-.06c-1.8.22-4,.58-5.69,1A3.78,3.78,0,0,1,51.76,206Z"/><path d="M80.49,146.07h0a3,3,0,0,1,.78.07.56.56,0,0,1,.51.56,15.94,15.94,0,0,0-.55,3.66c0,.84.33,2,.32,3.15s0,4.5-1.07,4.53h0c-1.09,0-6.67-3.49-7.09-3.78a2,2,0,0,0-.9-.11h-.74a13.83,13.83,0,0,0-1.89.12c-.78.09-1,.83-1,1.92,0,.18,0,.23,0,.23s0-.07.07-.07,0,0,.08.27a7.15,7.15,0,0,1,.07,1.31c0,1.53-.29,3.36-.3,5s-.28,3-.29,4.32a5,5,0,0,0,.07,1.16,15.07,15.07,0,0,1,.15,2.54c0,.56,0,1.12,0,1.68a6.59,6.59,0,0,1-.46,2.73,2.14,2.14,0,0,0-.26,1,2.22,2.22,0,0,0,.5,1.34,1.52,1.52,0,0,1,.25,1c0,1-.36,2.52-.56,5a22.79,22.79,0,0,0-.1,2.42c0,3.5.28,7.69.27,8.41,0,1.1,1,2,1,2.9.34.67,1.8.87,2.48,1.49a1.67,1.67,0,0,1,.68,1c0,.29-.26.54-.7.69s-1.46.31-2.41.47l-2.58.45c-1,.17-6,1.31-8.68,1.85-2,.24-4.2.62-5.82,1a3.22,3.22,0,0,1-.5.06c-.13,0-.19,0-.19-.07,0-.24,1-1.05,1.55-1.94.87-1.33,2.25-2.43,2.51-3.46a2.17,2.17,0,0,0,.09-.78c0-.53-.07-1.2-.07-2a9.77,9.77,0,0,1,.1-1.46c.27-2.17.11-3.89.3-5.13a23.24,23.24,0,0,0,.27-2.32,5.35,5.35,0,0,0-.16-1.19,23.32,23.32,0,0,1-.56-6.08,57.69,57.69,0,0,1,.58-8.49,4.77,4.77,0,0,0,.1-1.15A19.09,19.09,0,0,0,56,166.9a26.28,26.28,0,0,1-.15-3c0-2.06.2-4.58.31-6.56,0-.32.05-.39.06-.39s0,.05,0,.05,0,0,0-.19c0-1.37-.25-1.74-1-1.87a7.14,7.14,0,0,0-1.63-.16l-1.56,0A3.82,3.82,0,0,0,48.81,157c-.44.55-2.94,2.08-3.37,2.82-.18.33-1.47.4-1.72.41h0c-.58,0-.23-2-.22-3.41,0-1.19-.07-2.86-.07-4a13.27,13.27,0,0,1,.36-2.79,18.59,18.59,0,0,0,.2-3.5c0-.32.26-.4.6-.4.78,0,3,.47,4.39.54h1a18,18,0,0,1,2.1.07c.7.06,1.89.07,2.74.07h3c1.8,0,2.67-.09,4.39-.24a12.53,12.53,0,0,1,1.55-.08h0c1.28,0,2.83.15,5.14.29.49.06,1.68.06,2.47.06h.46A36.7,36.7,0,0,0,77,146.5a24.7,24.7,0,0,1,3.53-.43m0-3.11h0a29.47,29.47,0,0,0-4.08.47,31.83,31.83,0,0,1-4.63.32h-.45c-1.64,0-2,0-2.12,0H69l-1.93-.12c-1.34-.1-2.4-.17-3.39-.17h0a12.23,12.23,0,0,0-1.89.1,39.43,39.43,0,0,1-4.06.21H54.8c-1.46,0-2.13,0-2.45-.05a19,19,0,0,0-2.39-.09h-.91c-.57,0-1.41-.16-2.15-.28a17.12,17.12,0,0,0-2.32-.26,3.47,3.47,0,0,0-3.67,3.49,15.91,15.91,0,0,1-.15,3v.06c-.08.56-.15.87-.2,1.12a9.71,9.71,0,0,0-.2,2.13c0,.6,0,1.29,0,2s0,1.4,0,2c0,.3,0,.69-.05,1.07-.1,1.56-.21,3.17.93,4.42a3.29,3.29,0,0,0,2.4,1.05h.18c1-.06,3-.16,4-1.69.26-.25.93-.74,1.3-1a10.14,10.14,0,0,0,2-1.71c.1-.14.2-.28.31-.45.34-.5.35-.5.58-.51l.92,0c0,.33,0,.68-.06,1-.09,1.59-.2,3.38-.21,4.94a28,28,0,0,0,.17,3.32v.1l0,.1a16.59,16.59,0,0,1,.27,2.83c0,.14,0,.33,0,.43a59.11,59.11,0,0,0-.67,9.21,26.77,26.77,0,0,0,.64,6.82,2.84,2.84,0,0,1,.08.45,7.57,7.57,0,0,1-.13,1.08l-.12.85a19.2,19.2,0,0,0-.13,2.32c0,.87,0,1.77-.16,2.78a12.77,12.77,0,0,0-.13,1.88c0,.57,0,1,0,1.45,0,.19,0,.38,0,.51s-.44.55-.65.78a15.85,15.85,0,0,0-1.41,1.81,10.45,10.45,0,0,1-.72.84,4.07,4.07,0,0,0-1.37,2.82,3.19,3.19,0,0,0,3.25,3.21,5.35,5.35,0,0,0,1.12-.13c1.68-.35,3.81-.71,5.56-.92l.12,0,.12,0c1.27-.26,3-.64,4.68-1s3.42-.75,3.9-.83h0l2.57-.45.14,0a24.51,24.51,0,0,0,2.64-.54h.07a3.9,3.9,0,0,0,2.81-3.62,4.58,4.58,0,0,0-1.72-3.41,6.65,6.65,0,0,0-1.86-1.11c-.15-.34-.31-.64-.44-.88l-.15-.29c0-.31,0-.75-.07-1.5-.08-1.62-.22-4.34-.2-6.65a17.66,17.66,0,0,1,.08-2.06v-.15c.1-1.22.24-2.23.35-3a16.47,16.47,0,0,0,.22-2.2,4.84,4.84,0,0,0-.58-2.46,10.2,10.2,0,0,0,.55-3.58V171a17,17,0,0,0-.18-3l0-.15,0-.11a3.52,3.52,0,0,1,0-.46,15.58,15.58,0,0,1,.12-1.66c.07-.79.16-1.68.17-2.66,0-.69.07-1.47.14-2.3s.15-1.79.16-2.66v-.71h.22c.67.42,1.75,1.08,2.85,1.71,3.2,1.84,4.33,2.18,5.3,2.18h.14c1.2,0,3.3-.69,3.84-4.53a26.84,26.84,0,0,0,.18-3.08,15.06,15.06,0,0,0-.21-2.3,8.06,8.06,0,0,1-.11-.86,6.77,6.77,0,0,1,.28-2.1,5.49,5.49,0,0,0,.27-1.55A3.66,3.66,0,0,0,82,143.11,5.8,5.8,0,0,0,80.5,143Z"/><path class="cls-17" d="M83.49,200.25A2,2,0,0,1,82.3,200l-.6-.4-.08-.74c-.07-.61,0-1,1.56-3.15.66-.92,1.55-2.11,2.06-2.69,0,0,.05-.06.05-.21a6.77,6.77,0,0,0-.07-.74,16.33,16.33,0,0,1-.16-2.35c0-2.41,0-3.74.22-5.83v-.06a12.16,12.16,0,0,0,.09-1.54c0-.49,0-.94,0-1.4s0-1,0-1.64c0-1.68,0-3.26-.13-5.18s-.13-5.37-.11-7.33a9.47,9.47,0,0,1,.63-3.16c.1-.28.2-.55.3-.79l-.79-2.23.14-.48a6.44,6.44,0,0,0,.13-1.32,13.51,13.51,0,0,0-.11-1.37l0-.36a35.53,35.53,0,0,1-.31-5.6c0-.64-.25-.93-.9-1.58-1.23-1.16-2-2-2-3,0-.44.2-1.89,2.57-1.89.66,0,1.32-.05,2-.11s1.24-.1,1.83-.1a4.49,4.49,0,0,1,.59.05l.18,0h.18c.24,0,1.59.12,8.48.12h1.13c3.09,0,3.62.07,4,.23l1,.39v1.08c0,.88-.6,1.47-2,2.92-.3.3-.72.73-.9.94a22.19,22.19,0,0,0-.43,2.81l-.06.56a8.24,8.24,0,0,0,.15,1.43,8.59,8.59,0,0,1,.17,1.58,5,5,0,0,1-.5,2.13,2.28,2.28,0,0,0-.21.92,2.84,2.84,0,0,0,.14.84,4.47,4.47,0,0,1,.19,1.17c0,.18,0,.59.06,1a32.78,32.78,0,0,1,.16,3.28v1.33a19.35,19.35,0,0,0-.09,2c0,.77,0,1.4,0,2s0,1,0,1.55v.58l.57-.14a18.75,18.75,0,0,0,2.91-1.1,6,6,0,0,1,1.82-.63,12,12,0,0,0,3.26-1.32c0-.17,0-.35,0-.44v-.27c0-.36,0-.78-.06-1.26,0-.7-.1-1.57-.09-2.7,0-1.33.06-2.16.11-2.89s.08-1.24.09-2.13-.06-1.43-.12-2.07a18.14,18.14,0,0,1-.12-1.83,3.72,3.72,0,0,1,.06-.62,2,2,0,0,0,0-.3v-.1l0-.09a17,17,0,0,0,.08-1.86,5.65,5.65,0,0,0-.17-2l-.06-.06,0-.07a8.85,8.85,0,0,1-.84-1.48,4.46,4.46,0,0,0-.92-1.46,2.87,2.87,0,0,1-1.11-2.1,1.82,1.82,0,0,1,1.87-1.88l1.1,0c1,0,2.43.09,3.78.09.82,0,2.74-.08,4.59-.17s3.76-.16,4.57-.16a5.36,5.36,0,0,1,1.29.1,7.75,7.75,0,0,0,1.55.16c.31,0,.59,0,.84,0l.63,0a1.65,1.65,0,0,1,1.7,1.69c0,.85-.52,1.39-1.47,2.38-.31.32-.65.68-1,1.07l0,.05a1,1,0,0,0-.34.87V153c0,.45-.13,1-.2,1.58a39.73,39.73,0,0,0-.42,4c0,.11,0,.26,0,.34a7.31,7.31,0,0,1,.41,3c0,.29,0,.75,0,1.33,0,1,.06,2.32,0,3.68,0,1.12,0,2.28-.1,3.33s-.18,1.91-.26,2.69a21.48,21.48,0,0,0-.19,2.26,10.18,10.18,0,0,0,.08,1.08c0,.42.09.86.09,1.33a11.77,11.77,0,0,0,.06,1.63c.18,1.59.33,8.15.33,9.61,0,.39,0,.77,0,1.11s0,.54,0,.79,0,.25,0,.33c.36.22.79.53,1.28.87s1.27.89,1.6,1.05a1.73,1.73,0,0,1,1.1,1.63c0,2.09-3.26,2.33-3.91,2.35l-1.48,0c-.9,0-1.93,0-2.76.08-1.5.07-2.13.14-2.26.16a7,7,0,0,1-1.37.17l-1.07.05c-1.38.07-3.68.18-4.65.25l-.57,0c-1.32.09-2.47.18-3.26.18a5.21,5.21,0,0,1-.6,0,1.74,1.74,0,0,1-1.23-.53,1.71,1.71,0,0,1-.49-1.22c0-1.08,1.12-2.1,2.05-2.76,1.47-1.09,1.76-1.84,1.8-2.19a20.6,20.6,0,0,0,.09-2.34c0-.49,0-1,.06-1.57a13.46,13.46,0,0,0-.11-3.61l-.79.36-.92.42c-.58.25-1.06.47-1.47.66a10.8,10.8,0,0,1-3.4,1.13,2.89,2.89,0,0,0-1.94.93l-.17.15a10.35,10.35,0,0,1,0,1.93,19.66,19.66,0,0,0,.1,2.48h0l.13.47a2.5,2.5,0,0,0,1.25,1.64,9,9,0,0,1,1.71,1.52l.37.44v.58c0,1.39-1.09,1.52-2.47,1.68-.71.09-1.71.2-2.89.32l-3.34.26c-2.15.15-4.82.35-5.8.48a6.16,6.16,0,0,0-1.07.17l-.08,0,0,0a12.22,12.22,0,0,1-2.52.58,21.08,21.08,0,0,1-2.43.17Z"/><path d="M122.13,146.27a3.89,3.89,0,0,1,.91.06,9.32,9.32,0,0,0,1.89.19h0c.6,0,1.12-.06,1.46-.06h0c.17,0,.17.06.17.13,0,.32-1,1.23-2.07,2.41a2.55,2.55,0,0,0-.78,1.95c0,.63,0,1.26,0,1.89-.18,1.56-.62,4.3-.63,5.8a2.11,2.11,0,0,0,.09.84,5.8,5.8,0,0,1,.33,2.54c0,.78.08,2.86.07,5,0,1.1,0,2.21-.1,3.19-.18,2.35-.44,3.92-.45,5.09,0,.84.17,1.62.17,2.4a12,12,0,0,0,.08,1.82c.16,1.5.31,7.93.31,9.43,0,.65-.09,1.3-.09,1.89,0,.78.08,1.36.51,1.54.69.36,2.52,1.79,3.3,2.16.17.06.17.12.17.19,0,.32-1.22.75-2.44.8-1,0-2.87.05-4.26.12a24.34,24.34,0,0,0-2.52.2,6.22,6.22,0,0,1-1.13.12c-.87.05-4.43.21-5.73.31-1.52.1-2.88.21-3.72.21l-.54,0h0a.21.21,0,0,1-.23-.18c0-.33.87-1.13,1.39-1.5.7-.52,2.27-1.76,2.45-3.29a21.53,21.53,0,0,0,.1-2.51c0-1.78.38-4.51-.22-5.93a5.9,5.9,0,0,1,.18-1.33,13.88,13.88,0,0,0-3.82,1.4c-2.17.93-2.78,1.44-4.51,1.7a4.76,4.76,0,0,0-3,1.56c-.87.75-.18.36-.37,2.93,0,3.23.32,3.47.32,3.47.68,2.29,1.89,2.11,3.26,3.73,0,0-1.64.21-4,.45-1.74.16-7.54.53-9.18.74a5.22,5.22,0,0,0-1.56.33,11.39,11.39,0,0,1-2.16.49,20,20,0,0,1-2.24.16,1.13,1.13,0,0,1-.36,0c-.17-.12,2.37-3.66,3.24-4.65a1.73,1.73,0,0,0,.44-1.23c0-.69-.25-1.56-.23-3.08,0-2.43,0-3.67.22-5.7a14.05,14.05,0,0,0,.1-1.74c0-1-.07-1.93-.06-3,0-1.66,0-3.32-.13-5.32s-.13-5.32-.11-7.19a9.78,9.78,0,0,1,1.06-3.85h0l-.84-2.39a7.2,7.2,0,0,0,.19-1.74c0-.55-.08-1.17-.16-1.93a33.59,33.59,0,0,1-.3-5.4,3.54,3.54,0,0,0-1.35-2.7c-1-1-1.54-1.52-1.54-1.87s.35-.35,1-.35c1.38,0,2.67-.21,3.79-.21h0c.26,0,.52.07.77.07h0c1.06.12,6.41.12,8.65.12h1.14a22.34,22.34,0,0,1,3.48.14c0,.39-2.26,2.42-2.69,3a16.54,16.54,0,0,0-.72,4.11c0,1.28.33,2.15.32,3.1a3.25,3.25,0,0,1-.36,1.49,3.83,3.83,0,0,0-.35,1.56c0,.87.33,1.47.33,2s.24,2.42.22,4.3v1.15a18.4,18.4,0,0,0-.11,2.23c0,1.48.07,2.48.06,3.56v1.75c-.16.3,0,.53.64.53a7.76,7.76,0,0,0,1.87-.33c2.68-.74,3.72-1.65,4.59-1.69a14.55,14.55,0,0,0,4.33-1.84c.26-.14.18-1.39.19-1.72,0-1-.16-2.11-.15-4,0-2.44.19-3,.2-5,0-1.59-.24-2.71-.24-3.9,0-.26.09-.59.09-.92a16.87,16.87,0,0,0,.1-2.05c0-1.39,0-2.45-.58-3.1-.69-.92-.94-2.25-2-3.17-.42-.4-.6-.66-.59-.93s.08-.33.34-.33h0c.52,0,2.82.13,4.88.13h0c1.64,0,7.57-.33,9.13-.33h0m0-3.12h0c-.85,0-2.69.08-4.65.17-1.75.08-3.73.16-4.49.16h0c-1.32,0-2.77,0-3.72-.09l-1.16,0a3.36,3.36,0,0,0-2.52,1.08l-1.9-.74c-.67-.26-1.35-.34-4.57-.34H97.92c-7,0-8.14-.09-8.31-.11l-.16,0h-.17a6.36,6.36,0,0,0-.78-.06c-.66,0-1.32.06-2,.11s-1.25.1-1.85.11c-3.2,0-4.08,2.16-4.09,3.43,0,1.78,1.25,3,2.48,4.15.15.15.33.34.41.44a36.09,36.09,0,0,0,.33,5.8v.16H82.49L84,161.53c.14.4.28.8.43,1.21l-.11.27a11.29,11.29,0,0,0-.72,3.68c0,2,0,5.33.12,7.47.14,1.86.13,3.4.12,5,0,.64,0,1.19,0,1.72s0,.89,0,1.33a10.29,10.29,0,0,1-.08,1.35v.12c-.2,2.16-.21,3.51-.23,6a17.18,17.18,0,0,0,.17,2.56l0,.16c-.56.69-1.27,1.66-1.78,2.38-1.39,2-2,2.88-1.84,4.23l.15,1.38,1.13.82,0,0,0,0a3.43,3.43,0,0,0,2,.55,22.05,22.05,0,0,0,2.62-.19A13.78,13.78,0,0,0,89,201l.13-.05.7-.1c1-.12,3.61-.32,5.74-.47l3.35-.26,3-.32c1.45-.17,2.26-.27,3-1.08a3.27,3.27,0,0,0,2.15.91l.68,0c.85,0,2-.08,3.37-.18l.56,0c1-.07,3.25-.18,4.63-.25l1,0a9.28,9.28,0,0,0,1.59-.19c.19,0,.81-.07,2-.13.81,0,1.83-.06,2.72-.08l1.51,0c3.31-.13,5.37-1.63,5.38-3.9a3.28,3.28,0,0,0-2-3.05c-.26-.14-.95-.63-1.38-.93l-.59-.41v-.18c0-.36.06-.77.06-1.21,0-1.3-.14-8.05-.33-9.79a9.24,9.24,0,0,1-.06-1.46,13,13,0,0,0-.1-1.49,8.38,8.38,0,0,1-.07-.91c0-.5.08-1.2.18-2.1s.18-1.67.26-2.73.11-2.3.11-3.45c0-1.38,0-2.73,0-3.72,0-.56,0-1,0-1.29a8.9,8.9,0,0,0-.42-3.33v0c0-.87.23-2.52.4-3.84.08-.6.16-1.15.21-1.61l0-.18v-1.94c.32-.36.66-.71,1-1,1.07-1.11,1.91-2,1.91-3.46a3.18,3.18,0,0,0-3.23-3.25c-.25,0-.49,0-.73,0s-.49,0-.73,0a6,6,0,0,1-1.23-.12,6.43,6.43,0,0,0-1.58-.14Zm-19.59,8.09.59-.6a14.56,14.56,0,0,0,1.9-2.17,5.32,5.32,0,0,0,1.21,1.56h0l0,0a4.11,4.11,0,0,1,.55,1,10.74,10.74,0,0,0,.94,1.67c0,.3,0,.85,0,1.28a13.49,13.49,0,0,1-.07,1.68l0,.18V156c0,.05,0,.09,0,.13a5.58,5.58,0,0,0-.08.85c0,.71.06,1.36.12,2a18.79,18.79,0,0,1,.12,1.9c0,.84,0,1.39-.09,2s-.1,1.61-.11,3c0,1.18,0,2.09.09,2.81,0,.36,0,.67,0,.94a12.09,12.09,0,0,1-2,.72,7.62,7.62,0,0,0-2.17.74c-.39.18-.82.38-1.33.58v-.1c0-.6,0-1.21,0-1.95a17.84,17.84,0,0,1,.08-1.86l0-.19v-1.32c0-1.33-.09-2.54-.16-3.43,0-.34-.06-.75-.06-.88a6.12,6.12,0,0,0-.24-1.58,2.34,2.34,0,0,1-.09-.43.75.75,0,0,1,.08-.29,6.66,6.66,0,0,0,.63-2.76,10.65,10.65,0,0,0-.19-1.85,8.87,8.87,0,0,1-.13-1.1c0-.14,0-.29,0-.44.07-.62.19-1.67.3-2.24Zm-.41,36.9a1.53,1.53,0,0,1,.76-.22,12.26,12.26,0,0,0,3.81-1.25l1.17-.54c0,.44,0,.88-.05,1.21,0,.57,0,1.12-.06,1.64,0,.8,0,1.55-.07,2.1a3.94,3.94,0,0,1-1.2,1.19,8,8,0,0,0-1.91,1.82,12.17,12.17,0,0,0-1.62-1.37c-.55-.39-.55-.39-.67-.81l-.12-.41a18.67,18.67,0,0,1-.07-2.05c0-.51,0-.95,0-1.31Z"/><path class="cls-17" d="M179.62,197.92c-.7,0-1.91-.07-3.3-.15-1.55-.09-3.3-.19-4.89-.23h-.06l-1.92-.15c-.91-.08-1.85-.16-2.58-.2S164,197,163.15,197h-.24c-.49,0-1,.06-1.42.06h-.34a2.92,2.92,0,0,1-2.48-1,1.76,1.76,0,0,1-.26-1.32,1.89,1.89,0,0,1,.63-1.09c.24-.26.66-.62,1.35-1.23.38-.32,1-.84,1.38-1.22a13.13,13.13,0,0,1-.54-2.67,5.9,5.9,0,0,0-.82-2.69c-.14-.26-.3-.56-.46-.92l0-.05,0,0a.64.64,0,0,0-.29-.33c-.74.16-3.35.91-3.89,1.1a4.59,4.59,0,0,1-1.87.38l-.44,0a4.06,4.06,0,0,1-2.3,1.37,17,17,0,0,0-2.17.81l-.68.3a10,10,0,0,0-1.58.79h0s0,.07-.07.29c-.16.7-.15,1.62,1.22,2.76,1,.89,2,1.72,1.74,2.91a1.66,1.66,0,0,1-1.21,1.31l-.08,0-.12,0a5.3,5.3,0,0,1-1.25.09h-.68c-1.45,0-5-.08-7-.08h-.76c-1.1,0-2.36.09-3.57.16-1,.06-1.89.11-2.68.13h-.14l-.62,0-.33,0H131c-1.19-.05-2.22-.16-2.8-1a1.78,1.78,0,0,1-.31-1.28A2.63,2.63,0,0,1,129,193a21.43,21.43,0,0,0,1.73-1.72c.49-.52,1-1.05,1.48-1.5a3.88,3.88,0,0,0,.19-.93,5.91,5.91,0,0,1,.78-2.54,14.23,14.23,0,0,0,1-3.37c.15-.69.31-1.44.51-2.27.48-1.79,1.47-4.35,2.26-6.41.49-1.27,1-2.7,1.12-3.08l.09-.39c.6-2.78,1.12-4.56,2-5.42l.06-.05a16.76,16.76,0,0,0,1.14-4.31l0-.13,0-.12c1.08-3.29,1.8-5.44,2.27-6.86s.76-2.28.84-2.55a1.19,1.19,0,0,0-.43-.93l-.07,0c-2.61-2-2.93-2.79-3-3.41l0-.12v-.11c0-.86.48-1.88,2.74-1.88.67,0,1.45.06,2.14.11.52,0,1,.08,1.31.08.6,0,1.5,0,2.44-.05,1.16,0,2.47-.08,3.57-.08s2.22,0,3.55-.05c1.59,0,3.24-.08,4.73-.08,1.84,0,3,0,3.82.09,1.88.19,2.28,1.15,2.28,1.92,0,1.14-1,1.95-2.59,3.28l-.4.36s0,.07,0,.11-.05.26-.07.35V151l-.08.24a.28.28,0,0,0,0,.09v.15a2,2,0,0,0,.2.68,9.29,9.29,0,0,1,.57,1.91,4.48,4.48,0,0,0,.49,1.56,11.91,11.91,0,0,1,.89,2.56v.06a28.09,28.09,0,0,0,1.46,4.22,26.41,26.41,0,0,1,1.15,3.22l0,.07c.15.76.73,2.47,1.25,4a35.67,35.67,0,0,1,1.29,4.18c.13.41.22.76.29,1.08a5.41,5.41,0,0,0,.8,2,6.87,6.87,0,0,1,1.09,3.27,7.19,7.19,0,0,0,.37,1.66,40.55,40.55,0,0,1,1.77,5.68l.32,1.19a14.16,14.16,0,0,0,2.12,3l.36.45.51.51c1.53,1.56,2.33,2.43,2.33,3.46a1.76,1.76,0,0,1-.5,1.27,1.83,1.83,0,0,1-1.31.53Zm-27.24-27.09a23.58,23.58,0,0,1-1.28,3.28c-.19.41-.39.86-.54,1.23l.7-.37a24.53,24.53,0,0,1,4.79-1.77c-.22-.73-.58-1.75-.76-2.29s-.3-.85-.37-1.09a8.51,8.51,0,0,1-.44-1.6q0-.12,0-.21l0,0a5.27,5.27,0,0,1-.58-.87,4.4,4.4,0,0,1-.91,1.68c-.08.22-.19.71-.27,1S152.48,170.5,152.38,170.83Z"/><path d="M161.36,146.33h0c3.7,0,4.56.07,4.56.46s-1,1.24-2.06,2.09c-.77.72-.77.58-.94,1.43,0,.13-.08.26-.08.39a1.51,1.51,0,0,0-.09.59c-.08.91.53,1.51.79,3,.27,1.83.87,1.9,1.4,4.2s2.19,5.73,2.63,7.52,2.37,6.89,2.55,8.22a11,11,0,0,0,1.32,3.55c1,1.5.62,3,1.32,4.68a60.36,60.36,0,0,1,2,6.73,16.86,16.86,0,0,0,2.8,4c1,1,2.44,2.4,2.44,2.94,0,.12-.07.24-.28.24h-.16c-1.39,0-5.1-.3-8.15-.38-1.3-.09-3.21-.28-4.52-.35-.54,0-2.87-.16-3.8-.16h-.28c-.49,0-1,.06-1.38.06h-.27c-.87,0-1.39-.19-1.31-.44a.46.46,0,0,1,.18-.26c.43-.5,3.29-2.78,3.37-3.17a23.23,23.23,0,0,1-.71-3.23,9.7,9.7,0,0,0-1.4-4.1,2,2,0,0,0-1.74-1.36h0c-.39,0-4.41,1.18-4.5,1.24-.86.5-2.43,0-2.86.85-.69.89-1.39.62-3.9,1.75s-3,1.19-3.22,2.48a4.16,4.16,0,0,0,1.75,4.28c.69.59,1.3,1.12,1.21,1.38s-.08.12-.26.19a4.9,4.9,0,0,1-.9.05h-.66c-1.22,0-5-.08-7-.08h-.78c-2,0-4.53.24-6.27.28h-.1c-.36,0-.66,0-.95,0H131c-.95,0-1.74-.15-1.65-.48,0-.13.18-.39.52-.66,1.14-.94,2.36-2.45,3.4-3.38.79-.92.35-2.53,1.14-3.7s1-3.18,1.65-6.1,3.13-8.35,3.39-9.51.87-4.27,1.65-5c1-.78,1.64-5.23,1.64-5.23,3-9.17,3.19-9.5,3.19-9.82a2.73,2.73,0,0,0-1.12-2.32c-.78-.59-2.33-1.81-2.42-2.39,0-.26.52-.33,1.21-.33h0c1.12,0,2.67.2,3.45.2h0c1.38,0,4-.13,6-.13h0c2.06,0,5.49-.13,8.24-.13m-13.3,32.07h0c.09-.13,3.21-1.65,4-2.09a23.18,23.18,0,0,1,4.41-1.6c.35-.06,1.3-.5,1.3-.82a35.47,35.47,0,0,0-1.4-4.57c-.52-1.37-.27-1.82-.79-2.35a2.76,2.76,0,0,1-.69-1.76,9.27,9.27,0,0,0-.27-1.5c-.17-.26-.6-1.3-.86-1.3h0c-.26,0-.78,2.32-1.12,3.36a4.21,4.21,0,0,1-.95,2.06,12.75,12.75,0,0,0-.77,2.58c-.43,1.68-1.81,4.12-2.07,5.22s-.82,2.78-.78,2.78m13.32-35.18h0c-1.51,0-3.16,0-4.76.07-1.31,0-2.56.06-3.48.06-1.15,0-2.47,0-3.64.07-.94,0-1.82.05-2.4.05-.24,0-.75,0-1.19-.07-.72-.06-1.53-.12-2.26-.12a6.5,6.5,0,0,0-1.52.14,3.38,3.38,0,0,0-2.75,3.3V147l0,.23c.2,1.36,1.13,2.53,3.39,4.26-.14.42-.36,1.08-.64,1.95-.48,1.42-1.2,3.57-2.28,6.87l-.6,1.82.19.2a13.78,13.78,0,0,1-.59,2.1c-1.06,1.14-1.63,3-2.29,6.06l-.08.39c-.09.34-.63,1.73-1.06,2.85-.8,2.09-1.8,4.7-2.3,6.53v.09c-.2.84-.37,1.61-.51,2.29a18.56,18.56,0,0,1-.77,2.9,7.5,7.5,0,0,0-1,3.14c0,.1,0,.21,0,.31-.41.4-.82.84-1.22,1.26a21,21,0,0,1-1.58,1.57,4.16,4.16,0,0,0-1.64,2.63,3.25,3.25,0,0,0,.58,2.45c1.06,1.48,2.88,1.56,4,1.61h.45c.19,0,.43,0,.71,0h.17c.82,0,1.75-.08,2.74-.14,1.19-.07,2.43-.14,3.48-.15h.76c1.9,0,5.2.05,7,.08h.71a6.8,6.8,0,0,0,1.59-.13l.17,0,.15-.05a3.22,3.22,0,0,0,2.21-2.33c.61-2.18-1.09-3.61-2.22-4.57a1.91,1.91,0,0,1-.71-.87l.77-.35.69-.31a17,17,0,0,1,2-.74,5.83,5.83,0,0,0,2.56-1.34,6,6,0,0,0,2.17-.48c.46-.15,1.68-.5,2.62-.76l.16.31a4.45,4.45,0,0,1,.64,2.12,15.15,15.15,0,0,0,.33,2l-.64.56c-.73.63-1.15,1-1.45,1.31a3.54,3.54,0,0,0-1,1.85,3.28,3.28,0,0,0,.48,2.53,4.41,4.41,0,0,0,3.68,1.66h.41c.47,0,1,0,1.51-.06h.15c.82,0,3,.12,3.61.15.73,0,1.66.12,2.56.2l1.94.16h.14c1.55,0,3.3.14,4.83.23s2.65.16,3.39.16h.16a3.33,3.33,0,0,0,3.34-3.38c0-1.71-1.17-2.9-2.78-4.54l-.45-.46-.33-.4a16.09,16.09,0,0,1-1.84-2.5c-.08-.26-.18-.65-.29-1.08a41.21,41.21,0,0,0-1.85-5.91,5.72,5.72,0,0,1-.25-1.25A8.56,8.56,0,0,0,174,176a3.87,3.87,0,0,1-.58-1.47c-.08-.3-.16-.66-.29-1.08a39.44,39.44,0,0,0-1.33-4.32c-.48-1.38-1.07-3.11-1.2-3.77l0-.07v-.07a28.7,28.7,0,0,0-1.23-3.43A27.09,27.09,0,0,1,168,157.9v-.11a12.88,12.88,0,0,0-1-2.88,3,3,0,0,1-.35-1.07v-.09a10.74,10.74,0,0,0-.65-2.22l-.06-.15.06-.17c1.73-1.43,3.09-2.58,3.08-4.44,0-.51-.19-3.12-3.66-3.46-.83-.08-2.08-.09-4-.09Zm-7.88,29.13c.12-.33.23-.66.32-1l0,.06c.07.19.16.45.25.73l-.59.19Z"/><path class="cls-17" d="M196.3,155.79h-.08c-.73,0-.92.12-1.18.8,0,.23-.07.95-.09,1.49a23.17,23.17,0,0,1-.39,4v.7a13.17,13.17,0,0,0,.2,2c.08.53.17,1.13.25,1.87v.15c0,1,.06,2.19.11,3.31s.11,2.16.11,3.1c0,3.69-.2,4.44-.29,4.73a13.52,13.52,0,0,0,0,2.83c0,.22,0,.38,0,.45l0,1.54h-.1c0,.36,0,.78,0,1.25a8.54,8.54,0,0,1-.06,1.54c0,.05,0,.11,0,.47a20.76,20.76,0,0,0,.1,2.22l.44.1a16,16,0,0,0,2.53.39c.31,0,.58,0,.81,0a2.21,2.21,0,0,0,.78-.1,8.29,8.29,0,0,0,0-1.74,8.66,8.66,0,0,1,.25-3.28c.25-1.15,1.32-1.7,5.43-3.34.9-.36,1.83-.74,2.22-.94a8.61,8.61,0,0,1,4.13-1.08,7.6,7.6,0,0,1,.94.05c1.53.15,2.49,1.67,2.51,4,0,.28,0,.57,0,.85s0,.41,0,.59a18,18,0,0,1-.13,1.87,24.55,24.55,0,0,0-.18,2.8,35.31,35.31,0,0,0,.25,3.64c0,.41.09.85.14,1.34v.14a6,6,0,0,1-1.37,4,7.67,7.67,0,0,0-.52.79c-1,1.64-3,2.12-4.54,2.47-.36.09-.72.17-.91.24a3.48,3.48,0,0,1-1.44.25,13,13,0,0,1-1.78-.15c-1-.15-2-.37-2.73-.55l-.59-.14h-.29c-.26,0-.55,0-.86,0s-.94,0-1.49,0a13.4,13.4,0,0,1-1.71-.11h0l-.06,0-1-.22a56.64,56.64,0,0,0-6.29-1.06c-3.56-.4-6.91-.77-8.61-3.06-1.1-1.49-1.13-3.51-1.16-5a9.37,9.37,0,0,0-.07-1.25l0-.08a5.59,5.59,0,0,1-.23-1.47,8.33,8.33,0,0,1,.36-2.24,6.42,6.42,0,0,0,.3-1.73,1.76,1.76,0,0,0-.2-.83l0,0,0-.06c-.58-1.52-.65-5-.68-9.09,0-.93,0-1.88.07-2.8s.07-1.84.06-2.74a12,12,0,0,1,.67-4.94l0-.09a1.76,1.76,0,0,0,0-.5,5.86,5.86,0,0,0-.18-1.1,16.69,16.69,0,0,1-.45-3.09,22,22,0,0,1-.1-2.33,45.2,45.2,0,0,1,.39-5.63c.43-4,3.77-5.19,5.38-5.78l.07,0a19,19,0,0,1,4.48-.49c.75,0,1.49,0,2.34.1l.55,0a14.85,14.85,0,0,0,1.82-.17c.6-.08,1.28-.17,2.06-.23h.12c1.31,0,2.51.07,3.78.13s2.89.15,4.67.16c4.24,0,5.94,1.18,7.05,2.34s1.32,3.81,1.34,5.27a2.44,2.44,0,0,0,.08.68,14.47,14.47,0,0,1,.3,3.45c0,3-.05,5-1.24,5.9a9.46,9.46,0,0,1-2.65,1.26,9.73,9.73,0,0,0-2.25,1c-1.65,1.29-6.27,1.4-6.32,1.4h-.19c-2.28-.11-2.56-2.48-2.67-3.38v-.08l0-1.77c0-.17,0-.46,0-.82a17.48,17.48,0,0,0-.1-3.81c-.14-.32-.86-.51-1.48-.51h-.15"/><path d="M196.36,146.07c2.66,0,5,.28,8.43.28,4.05,0,5.26,1.15,6,1.88s.89,3,.9,4.19a30.15,30.15,0,0,1,.38,4.13c0,1.81,0,4.12-.65,4.67-1,.81-3.61,1.27-4.89,2.27-1,.76-4.46,1.07-5.39,1.07H201c-.69,0-1-.47-1.22-2,0-.28,0-1.4,0-1.68,0-.77.23-4.25-.21-5.24-.54-1.24-2.12-1.44-2.88-1.44-.37,0-.54,0-.33.05h-.1a2.47,2.47,0,0,0-2.64,1.87c-.25.82-.05,3.71-.55,5.75v.9c0,1.37.28,2.27.47,4.07,0,2.06.21,4.54.22,6.4a24.18,24.18,0,0,1-.22,4.25,19.36,19.36,0,0,0-.06,3.77v0s-.06-.93-.09-.93,0,.76,0,3.7c0,1.71-.08.88-.07,2,0,2,.12,3.58.72,3.64,1.3.14.61.27,3.72.61.34,0,.66.06,1,.06,1.22,0,2.17-.34,2.3-1.44.24-2.28-.37-2.42.21-4.87.17-.75,5.5-2.55,6.87-3.27a7.1,7.1,0,0,1,3.43-.91c.25,0,.51,0,.78,0,.95.1,1.14,1.72,1.14,2.44,0,.44-.08,1-.07,1.44,0,1.16-.32,2.64-.31,4.67a50.74,50.74,0,0,0,.39,5.12c0,2.11-.92,2.69-1.68,4s-3.69,1.65-4.72,2.06a2,2,0,0,1-.85.14,11,11,0,0,1-1.56-.14c-1.21-.18-2.42-.49-3.29-.68a3,3,0,0,0-.54,0c-.63,0-1.42.09-2.35.09a11.5,11.5,0,0,1-1.51-.09,63.89,63.89,0,0,0-7.45-1.31c-3.72-.42-6.32-.8-7.55-2.45s-.64-4.68-1-5.78a4.07,4.07,0,0,1-.18-1.08c0-1.27.67-2.49.66-4a3.42,3.42,0,0,0-.35-1.5c-.53-1.37-.56-5.78-.58-8.53,0-1.8.14-3.67.13-5.54a10.45,10.45,0,0,1,.58-4.4,2.76,2.76,0,0,0,.16-1.13c0-1.08-.53-2-.63-4.31a17.33,17.33,0,0,1-.1-2.21,43.47,43.47,0,0,1,.39-5.48c.32-3,3-3.95,4.45-4.48a17.25,17.25,0,0,1,3.95-.41h0c.86,0,1.72.07,2.84.14h0c1.11,0,2.32-.27,4-.41h0m0,8.17h0m.65,3a1.32,1.32,0,0,1-.24-.36,1,1,0,0,1-.08-.22,3.82,3.82,0,0,1,.07.62h0c0,.86,0,2.19,0,2.71s0,.67,0,.89v1.85l0,.17c.46,3.78,2.49,4.67,4.12,4.75h.26c.05,0,5.12,0,7.25-1.71a9.5,9.5,0,0,1,1.84-.79,10.82,10.82,0,0,0,3.07-1.5c1.87-1.49,1.85-4.24,1.83-7.15a16,16,0,0,0-.34-3.77,1.28,1.28,0,0,1,0-.35c0-3-.63-5.15-1.77-6.34-1.33-1.4-3.35-2.82-8.15-2.82-1.74,0-3.19-.08-4.59-.15s-2.51-.13-3.84-.13h-.26c-.82.06-1.52.16-2.14.24s-1.16.15-1.58.16l-.5,0c-.87-.06-1.63-.11-2.42-.11a20.78,20.78,0,0,0-5,.57h-.06l-.07,0c-1.6.59-5.85,2.15-6.37,7v0a46.82,46.82,0,0,0-.4,5.82,22.31,22.31,0,0,0,.11,2.44,16.81,16.81,0,0,0,.48,3.32,7.3,7.3,0,0,1,.14.76v.1a13.67,13.67,0,0,0-.74,5.43c0,.87,0,1.75-.06,2.67s-.08,1.91-.07,2.87c0,5.14.17,8,.79,9.65l0,.11.05.11c0,.11,0,.13,0,.16a5.63,5.63,0,0,1-.25,1.32,9.77,9.77,0,0,0-.41,2.65,7,7,0,0,0,.28,1.86v0c0,.19,0,.6,0,.91,0,1.6.07,4,1.47,5.9,2.09,2.83,5.94,3.26,9.66,3.67a53.57,53.57,0,0,1,6.14,1l1,.23.12,0,.11,0a14.5,14.5,0,0,0,1.9.11c.59,0,1.11,0,1.57-.05l.78,0h.08l.47.11c.8.18,1.8.41,2.84.57a14.8,14.8,0,0,0,2,.17,4.86,4.86,0,0,0,2-.36c.12,0,.45-.11.69-.17,1.68-.39,4.22-1,5.51-3.19a7.15,7.15,0,0,1,.45-.67,7.68,7.68,0,0,0,1.66-4.95v-.28c0-.5-.1-.94-.14-1.36a33.78,33.78,0,0,1-.24-3.49,22.73,22.73,0,0,1,.17-2.61c.07-.71.14-1.37.14-2.06,0-.08,0-.29,0-.45s0-.63,0-1c0-3.1-1.55-5.27-3.89-5.5A10,10,0,0,0,206.7,178c-.33.17-1.3.57-2.09.88-3.9,1.57-5.87,2.36-6.35,4.44a10.39,10.39,0,0,0-.29,3.77v.09c-.78-.08-1.27-.15-1.59-.21,0-.26,0-.57,0-.95v-.26a9.85,9.85,0,0,0,.07-1.73v0c0-.82,0-1.45,0-1.92a2.83,2.83,0,0,0,.1-.85c0-.08,0-.26,0-.51a19.48,19.48,0,0,1,0-2.41,19.46,19.46,0,0,0,.33-5.1c0-1-.05-2-.11-3.15s-.1-2.25-.11-3.25v-.15l0-.15c-.08-.78-.17-1.4-.26-1.94a13.24,13.24,0,0,1-.19-1.83v-.53a25,25,0,0,0,.39-4.06c0-.46,0-1.09.07-1.28a1,1,0,0,1-.05.18l-.22-.07"/><path class="cls-17" d="M263,213.53a2,2,0,0,1-.42-.05c-.72-.12-1.94-.43-3.46-.82s-3.11-.78-4.59-1.1l-.08,0-1.93-.55c-.87-.26-1.77-.52-2.47-.7-1.05-.28-3.36-.85-3.78-.9a15.89,15.89,0,0,1-1.81-.27,3.2,3.2,0,0,1-2.21-1.33,1.8,1.8,0,0,1-.22-1.22,2,2,0,0,1,.58-1.14c.24-.27.63-.63,1.28-1.23.41-.38,1.09-1,1.49-1.42v-.07a20.66,20.66,0,0,1-.58-3.58,11.13,11.13,0,0,0-.88-3.79c-.14-.35-.29-.71-.44-1.15l0-.08a1.63,1.63,0,0,0-.46-.78c-.75.12-3.07.61-3.66.76a3,3,0,0,1-1.28.25c-.23,0-.47,0-.71,0l-.25,0a3.52,3.52,0,0,1-2.37,1.3,12.64,12.64,0,0,0-2.06.6l-.73.28a9.3,9.3,0,0,0-1.37.57,1.49,1.49,0,0,0-.08.38c-.17.87-.19,2.22,1.4,4.12,1,1.21,1.74,2.1,1.56,3.12a1.66,1.66,0,0,1-1.4,1.44l-.11,0h-.32a9.65,9.65,0,0,1-1.74-.27l-.33-.08c-1.58-.34-5.8-1.25-7.4-1.55-1.06-.2-2.28-.36-3.46-.52-1-.13-1.92-.25-2.71-.39a6.16,6.16,0,0,1-.76-.18l-.36-.09h-.11c-.86-.22-3.11-.78-2.79-2.61a2.5,2.5,0,0,1,1.14-1.67,16.43,16.43,0,0,0,1.69-1.61c.46-.47.92-1,1.38-1.35a6.61,6.61,0,0,0,.17-1,6.15,6.15,0,0,1,.74-2.71,17.19,17.19,0,0,0,.92-3.74c.13-.75.29-1.59.47-2.5.45-1.92,1.34-4.58,2.13-6.93.51-1.53,1-3.12,1.13-3.59l.09-.47c.58-3.19,1.05-5.1,1.88-6l.06-.07a20.47,20.47,0,0,0,1.12-5v-.12l.06-.2c.83-3,1.43-5.2,1.88-6.81.76-2.75,1.1-3.95,1.16-4.25a2.07,2.07,0,0,0-.55-1.51l-.07-.06c-2.29-2-2.83-3-2.94-3.78v-.2a1.77,1.77,0,0,1,.51-1.28,2.92,2.92,0,0,1,2.21-.67c.69,0,1.49.08,2.18.14.52.05,1,.1,1.28.1h0c.65,0,1.53,0,2.47-.06,1.13,0,2.41-.08,3.5-.08h.14c1,0,2.18,0,3.49-.07,1.55,0,3.16-.08,4.62-.08h.07a35.86,35.86,0,0,1,3.86.12c1.94.24,2.24,1.36,2.24,2,0,1.05-.75,1.93-2.47,3.69l-.3.34a2.38,2.38,0,0,0-.17.19c0,.09,0,.24-.06.35a2.88,2.88,0,0,1-.08.45v.08l-.05.2a.9.9,0,0,0,0,.32v.12a3.41,3.41,0,0,0,.24,1.16,13.59,13.59,0,0,1,.54,2.3,7.83,7.83,0,0,0,.53,2.14,16.41,16.41,0,0,1,.86,3.12A44.78,44.78,0,0,0,251.4,167a41.07,41.07,0,0,1,1.14,4.12c.17,1.07.71,3.17,1.24,5.2.71,2.75,1.16,4.53,1.28,5.51.13.53.21,1,.29,1.41a10,10,0,0,0,.87,2.87,10.41,10.41,0,0,1,1,3.95,12.75,12.75,0,0,0,.42,2.43,75.42,75.42,0,0,1,1.69,7.48c.12.65.22,1.2.3,1.58a22.71,22.71,0,0,0,2.11,4.39l.43.77.45.69c1.49,2.29,2.14,3.39,2.14,4.35A1.78,1.78,0,0,1,263,213.53Zm-29-31.77c.36-.18.68-.34.87-.45a21.27,21.27,0,0,1,4.8-1.64c-.21-.95-.66-2.59-.88-3.39-.15-.55-.28-1-.35-1.3a12.65,12.65,0,0,1-.42-1.9c-.06-.43-.07-.46-.11-.51l0,0,0-.05a7.31,7.31,0,0,1-.49-.91,4.35,4.35,0,0,1-.81,1.66c-.09.26-.21.91-.29,1.31s-.15.84-.25,1.21a27,27,0,0,1-1.24,3.79,18.48,18.48,0,0,0-.75,2.17Z"/><path d="M244.77,146.39h.07c3.71,0,4.57.09,4.57.59s-1,1.57-2.06,2.62c-.77.89-.77.72-.94,1.78,0,.16-.08.32-.08.49a2.53,2.53,0,0,0-.08.73c-.08,1.14.52,1.89.79,3.79.26,2.3.87,2.41,1.39,5.32s2.18,7.35,2.61,9.66,2.34,9,2.51,10.68a18.72,18.72,0,0,0,1.29,4.68c1,2,.61,3.91,1.29,6.17s1.63,7.33,2,9a28.86,28.86,0,0,0,2.72,5.6c.93,1.46,2.37,3.53,2.37,4.24,0,.14-.06.27-.22.27l-.12,0c-1.27-.2-5-1.26-8-1.92-1.27-.34-3.13-.92-4.41-1.25-.59-.16-3.4-.87-4-.94a12,12,0,0,1-1.62-.24c-.85-.21-1.36-.49-1.28-.79a.42.42,0,0,1,.17-.28c.42-.54,3.22-2.88,3.3-3.36a38.16,38.16,0,0,1-.7-4.16,15.7,15.7,0,0,0-1.39-5.32,2.59,2.59,0,0,0-1.71-1.93h-.05a44,44,0,0,0-4.39.88,1.55,1.55,0,0,1-.72.15c-.38,0-.78-.07-1.14-.07a.91.91,0,0,0-1,.52c-.67,1-1.36.54-3.83,1.49s-2.91.94-3.15,2.42a6.33,6.33,0,0,0,1.75,5.39c.69.83,1.29,1.57,1.21,1.86s-.09.14-.26.18h-.06a10.18,10.18,0,0,1-1.48-.25c-1.37-.3-6-1.3-7.72-1.62-2-.38-4.46-.61-6.18-.92-.43-.07-.78-.2-1.12-.26-1-.24-1.73-.52-1.64-.86,0-.15.16-.41.51-.64,1.11-.83,2.3-2.31,3.32-3.17.77-.91.32-2.81,1.08-4s.92-3.47,1.58-6.71,3-9.22,3.27-10.56.82-4.86,1.58-5.7c.94-.82,1.59-6,1.59-6,2.93-10.61,3.1-11.09,3.1-11.44a3.56,3.56,0,0,0-1.14-2.78c-.78-.69-2.34-2.15-2.43-2.82,0-.3.5-.38,1.19-.38h0c1.12,0,2.67.23,3.45.23h0c1.38,0,4-.14,5.93-.14h.14c2.06,0,5.41-.15,8.11-.15m-13,38.27h0c.08-.14,3.16-1.57,3.93-2a19.14,19.14,0,0,1,4.35-1.45c.35,0,1.28-.46,1.28-.86a52.53,52.53,0,0,0-1.4-5.76c-.52-1.72-.27-2.25-.79-2.94a4.18,4.18,0,0,1-.7-2.2,13.49,13.49,0,0,0-.27-1.84c-.17-.34-.61-1.63-.86-1.65h0c-.26,0-.75,2.78-1.09,4a5.1,5.1,0,0,1-.92,2.41,17.07,17.07,0,0,0-.76,3c-.41,2-1.76,4.76-2,6s-.79,3.23-.76,3.23m13-41.38c-1.48,0-3.1,0-4.66.08-1.3,0-2.53.07-3.45.07h-.14c-1.11,0-2.41,0-3.56.08-.92,0-1.79.06-2.37.06h0c-.21,0-.7,0-1.14-.09-.73-.06-1.55-.14-2.31-.14a4.45,4.45,0,0,0-3.31,1.13,3.34,3.34,0,0,0-.95,2.38v.2l0,.2c.19,1.39,1.09,2.63,3.45,4.74l0,0s0,.12.05.23l-1.09,4c-.45,1.61-1.06,3.8-1.89,6.81l-.12.44v.23a24.79,24.79,0,0,1-.88,4.17c-1,1.22-1.53,3.23-2.16,6.67,0,.17-.06.32-.08.45-.09.43-.64,2.07-1.08,3.39-.8,2.38-1.7,5.08-2.16,7v.09c-.19.93-.34,1.78-.48,2.53a20.83,20.83,0,0,1-.74,3.25,7.66,7.66,0,0,0-.93,3.31c0,.12,0,.27-.05.4-.36.34-.72.71-1.07,1.07a15.73,15.73,0,0,1-1.49,1.43,4,4,0,0,0-1.78,2.87,3.5,3.5,0,0,0,2.2,3.6,9.06,9.06,0,0,0,1.75.59l.11,0,.11,0,.22.06a8.57,8.57,0,0,0,.89.21c.84.15,1.78.27,2.78.4,1.16.16,2.36.31,3.37.51,1.59.29,5.79,1.2,7.37,1.55l.27.06h.07a10.65,10.65,0,0,0,2.05.31l.32,0,.22,0,.19,0a3.19,3.19,0,0,0,2.61-2.7c.31-1.73-.81-3.08-1.9-4.39a3.76,3.76,0,0,1-1.12-2.41l.53-.2.73-.28a12.2,12.2,0,0,1,1.85-.54,5.47,5.47,0,0,0,2.66-1.21H238a4.52,4.52,0,0,0,1.76-.33c.46-.11,1.5-.33,2.35-.5.11.32.23.6.33.86a9.38,9.38,0,0,1,.77,3.34,22.4,22.4,0,0,0,.44,3l-.84.78c-.65.6-1.05,1-1.33,1.28a3.61,3.61,0,0,0-1,1.95,3.38,3.38,0,0,0,.41,2.3,4.79,4.79,0,0,0,3.17,2,15,15,0,0,0,2,.3h0c.48.07,2.65.61,3.57.85.69.18,1.58.44,2.44.69l2,.56.08,0,.08,0c1.46.31,3.1.73,4.54,1.09s2.75.7,3.54.84a3.42,3.42,0,0,0,.71.07,3.23,3.23,0,0,0,2.67-1.41,3.41,3.41,0,0,0,.61-2c0-1.45-.82-2.78-2.39-5.2l-.42-.64-.41-.73a23.62,23.62,0,0,1-1.95-4c-.08-.37-.18-.89-.29-1.5a67.79,67.79,0,0,0-1.75-7.69,11,11,0,0,1-.33-2.09,12.31,12.31,0,0,0-1.12-4.49,8.72,8.72,0,0,1-.74-2.46c-.07-.41-.16-.87-.28-1.41-.15-1.11-.61-2.9-1.31-5.62-.49-1.9-1-4.06-1.2-5v-.1a43.4,43.4,0,0,0-1.18-4.3,42.06,42.06,0,0,1-1.4-5.24v-.09a18.43,18.43,0,0,0-.92-3.38,6,6,0,0,1-.44-1.75V156a14.51,14.51,0,0,0-.6-2.54c-.06-.21-.15-.5-.17-.61v-.21l.08-.31v-.11c0-.08,0-.18.05-.28l.14-.16c1.62-1.66,2.89-3,2.89-4.76,0-.52-.19-3.14-3.59-3.56a39.12,39.12,0,0,0-4-.13Zm-8.12,35.6c.26-.69.5-1.42.69-2.12.12.44.31,1.12.48,1.77l-1.17.35Z"/></g></g></svg>