<svg xmlns="http://www.w3.org/2000/svg" xmlns:xlink="http://www.w3.org/1999/xlink" viewBox="0 0 27.97 35.47"><defs><style>.cls-1,.cls-16,.cls-21,.cls-5{fill:none;}.cls-2{fill:#01a0c6;stroke-width:0.59px;}.cls-11,.cls-15,.cls-16,.cls-18,.cls-19,.cls-2,.cls-20,.cls-21,.cls-3,.cls-5{stroke:#000;stroke-miterlimit:10;}.cls-11,.cls-3{fill:#fff;}.cls-16,.cls-3{stroke-width:0.36px;}.cls-20,.cls-4{fill:#a6deeb;}.cls-20,.cls-5{stroke-width:0.47px;}.cls-6{fill:url(#linear-gradient);}.cls-7{fill:url(#linear-gradient-2);}.cls-8{fill:url(#linear-gradient-3);}.cls-9{fill:url(#linear-gradient-4);}.cls-10{fill:url(#linear-gradient-5);}.cls-11,.cls-16,.cls-21{stroke-linecap:round;}.cls-11,.cls-18,.cls-19{stroke-width:0.44px;}.cls-12{fill:url(#linear-gradient-6);}.cls-13{fill:url(#linear-gradient-7);}.cls-14{fill:url(#linear-gradient-8);}.cls-15{fill:#ff0;stroke-width:0.42px;}.cls-17{clip-path:url(#clip-path);}.cls-18{fill:#4d1f03;}.cls-19{fill:#63300f;}.cls-21{stroke-width:0.44px;}</style><linearGradient id="linear-gradient" x1="6.5" y1="13.65" x2="10.34" y2="13.65" gradientUnits="userSpaceOnUse"><stop offset="0" stop-color="#ffff25"/><stop offset="0.06" stop-color="#ffe816"/><stop offset="0.13" stop-color="#fed50b"/><stop offset="0.2" stop-color="#feca03"/><stop offset="0.28" stop-color="#fec601"/><stop offset="0.67" stop-color="#fb7b1e"/><stop offset="0.89" stop-color="#f9441b"/><stop offset="1" stop-color="#f71818"/></linearGradient><linearGradient id="linear-gradient-2" x1="14.03" y1="8.45" x2="16.68" y2="8.45" xlink:href="#linear-gradient"/><linearGradient id="linear-gradient-3" x1="16.1" y1="11.99" x2="20.07" y2="11.99" xlink:href="#linear-gradient"/><linearGradient id="linear-gradient-4" x1="11.25" y1="8.45" x2="13.9" y2="8.45" xlink:href="#linear-gradient"/><linearGradient id="linear-gradient-5" x1="7.86" y1="11.99" x2="11.83" y2="11.99" xlink:href="#linear-gradient"/><linearGradient id="linear-gradient-6" x1="9.54" y1="10.54" x2="12.35" y2="10.54" xlink:href="#linear-gradient"/><linearGradient id="linear-gradient-7" x1="17.67" y1="13.65" x2="21.5" y2="13.65" xlink:href="#linear-gradient"/><linearGradient id="linear-gradient-8" x1="15.66" y1="10.54" x2="18.46" y2="10.54" xlink:href="#linear-gradient"/><clipPath id="clip-path"><path class="cls-1" d="M24.52,21.88a10.54,10.54,0,1,1-21.07,0C3.45,16.06,14,4.53,14,4.53S24.52,16.06,24.52,21.88Z"/></clipPath></defs><title>irf-logo</title><g id="Layer_2" data-name="Layer 2"><g id="Layer_1-2" data-name="Layer 1"><path class="cls-2" d="M27.11,22.05a13.13,13.13,0,0,1-26.25,0C.86,14.8,14,.44,14,.44S27.11,14.8,27.11,22.05Z"/><line class="cls-3" x1="25.74" y1="27.88" x2="16.24" y2="30.33"/><line class="cls-3" x1="26.18" y1="26.91" x2="15.74" y2="29.6"/><line class="cls-3" x1="26.51" y1="25.96" x2="15.81" y2="28.72"/><line class="cls-3" x1="2.11" y1="27.94" x2="11.39" y2="30.33"/><line class="cls-3" x1="1.83" y1="27.01" x2="11.9" y2="29.6"/><line class="cls-3" x1="1.55" y1="26.07" x2="11.82" y2="28.72"/><path class="cls-4" d="M24.52,21.88a10.54,10.54,0,1,1-21.07,0C3.45,16.06,14,4.53,14,4.53S24.52,16.06,24.52,21.88Z"/><path class="cls-5" d="M24.52,21.88a10.54,10.54,0,1,1-21.07,0C3.45,16.06,14,4.53,14,4.53S24.52,16.06,24.52,21.88Z"/><polygon class="cls-6" points="10.34 13.52 7.84 12.67 6.5 14.62 10.05 14.46 10.34 13.52"/><polygon class="cls-7" points="14.03 4.98 14.03 11.92 15.27 11.92 16.68 8.05 14.03 4.98"/><polygon class="cls-8" points="18.53 10.36 16.1 12.79 17.19 13.61 20.07 12.5 18.53 10.36"/><polygon class="cls-9" points="13.9 4.98 13.9 11.92 12.66 11.92 11.25 8.05 13.9 4.98"/><polygon class="cls-10" points="9.4 10.36 11.83 12.79 10.74 13.61 7.87 12.5 9.4 10.36"/><line class="cls-11" x1="13.98" y1="4.53" x2="13.98" y2="15.76"/><polygon class="cls-12" points="12.35 11.09 11.11 8.31 9.54 10.36 11.72 12.77 12.35 11.09"/><polygon class="cls-13" points="17.67 13.52 20.17 12.67 21.5 14.62 17.96 14.46 17.67 13.52"/><polygon class="cls-14" points="15.66 11.09 16.9 8.31 18.46 10.36 16.29 12.77 15.66 11.09"/><line class="cls-11" x1="18.72" y1="10.3" x2="12.72" y2="16.29"/><line class="cls-11" x1="14.95" y1="16" x2="9.25" y2="10.3"/><line class="cls-11" x1="11.09" y1="8.06" x2="14.35" y2="15.92"/><line class="cls-11" x1="20.25" y1="12.44" x2="10.81" y2="16.35"/><line class="cls-11" x1="16.87" y1="8.06" x2="13.55" y2="16.08"/><line class="cls-11" x1="16.6" y1="16.12" x2="7.72" y2="12.44"/><path class="cls-15" d="M18.2,15.07v0a4.23,4.23,0,0,0-8.45,0v0Z"/><path class="cls-1" d="M24.52,21.88a10.54,10.54,0,1,1-21.07,0C3.45,16.06,14,4.53,14,4.53S24.52,16.06,24.52,21.88Z"/><path class="cls-1" d="M24.52,21.88a10.54,10.54,0,1,1-21.07,0C3.45,16.06,14,4.53,14,4.53S24.52,16.06,24.52,21.88Z"/><path class="cls-16" d="M24.52,21.88a10.54,10.54,0,1,1-21.07,0C3.45,16.06,14,4.53,14,4.53S24.52,16.06,24.52,21.88Z"/><g class="cls-17"><path class="cls-18" d="M15.57,13.72a5.77,5.77,0,0,0-3.19,0L4.69,16a.24.24,0,0,0,.07.46H23.21a.24.24,0,0,0,.08-.46Z"/><path class="cls-19" d="M11.41,14.45a7,7,0,0,0-4.64,0l-5,1.73a.35.35,0,0,0,.14.66h16Z"/><path class="cls-19" d="M16.45,14.48l-6.4,2.32H26.23a.3.3,0,0,0,.13-.58l-5.1-1.77A7.22,7.22,0,0,0,16.45,14.48Z"/><path class="cls-20" d="M27.73,17.62v-1a4,4,0,0,1-.43.19,1.26,1.26,0,0,1-.43.08,1.35,1.35,0,0,1-.43-.08c-.14,0-.28-.12-.43-.19a3.36,3.36,0,0,0-.43-.2,1.26,1.26,0,0,0-.43-.08,1.35,1.35,0,0,0-.43.08c-.14,0-.28.13-.43.2a3.3,3.3,0,0,1-.43.19,1.17,1.17,0,0,1-.85,0,3.3,3.3,0,0,1-.43-.19c-.15-.07-.29-.15-.43-.2a1.35,1.35,0,0,0-.43-.08,1.26,1.26,0,0,0-.43.08,3.36,3.36,0,0,0-.43.2c-.15.07-.29.14-.43.19a1.35,1.35,0,0,1-.43.08,1.31,1.31,0,0,1-.43-.08,4,4,0,0,1-.43-.19,4.14,4.14,0,0,0-.43-.2,1.2,1.2,0,0,0-.86,0,4.14,4.14,0,0,0-.43.2,4,4,0,0,1-.43.19,1.26,1.26,0,0,1-.43.08,1.35,1.35,0,0,1-.43-.08c-.14,0-.28-.12-.43-.19a3.36,3.36,0,0,0-.43-.2,1.26,1.26,0,0,0-.43-.08,1.35,1.35,0,0,0-.43.08c-.14,0-.28.13-.43.2a3.3,3.3,0,0,1-.43.19,1.17,1.17,0,0,1-.85,0,3.3,3.3,0,0,1-.43-.19c-.15-.07-.29-.15-.43-.2a1.35,1.35,0,0,0-.43-.08,1.26,1.26,0,0,0-.43.08,3.36,3.36,0,0,0-.43.2c-.15.07-.29.14-.43.19a1.35,1.35,0,0,1-.43.08,1.31,1.31,0,0,1-.43-.08,4,4,0,0,1-.43-.19,4.14,4.14,0,0,0-.43-.2,1.2,1.2,0,0,0-.86,0,4.14,4.14,0,0,0-.43.2,4,4,0,0,1-.43.19,1.31,1.31,0,0,1-.43.08,1.35,1.35,0,0,1-.43-.08c-.14,0-.28-.12-.43-.19a3.36,3.36,0,0,0-.43-.2,1.26,1.26,0,0,0-.43-.08,1.35,1.35,0,0,0-.43.08c-.14,0-.28.13-.43.2a3.3,3.3,0,0,1-.43.19,1.26,1.26,0,0,1-.43.08,1.25,1.25,0,0,1-.42-.08A3.3,3.3,0,0,1,2,16.64c-.15-.07-.29-.15-.43-.2a1.35,1.35,0,0,0-.43-.08,1.26,1.26,0,0,0-.43.08,3.36,3.36,0,0,0-.43.2v.58"/><path class="cls-5" d="M27.73,19.43v-1a4.14,4.14,0,0,1-.43.2,1.26,1.26,0,0,1-.43.08,1.35,1.35,0,0,1-.43-.08c-.14,0-.28-.13-.43-.2a3.3,3.3,0,0,0-.43-.19,1.26,1.26,0,0,0-.43-.08,1.35,1.35,0,0,0-.43.08c-.14,0-.28.12-.43.19a3.36,3.36,0,0,1-.43.2,1.17,1.17,0,0,1-.85,0,3.36,3.36,0,0,1-.43-.2c-.15-.07-.29-.14-.43-.19a1.35,1.35,0,0,0-.43-.08,1.26,1.26,0,0,0-.43.08,3.3,3.3,0,0,0-.43.19c-.15.07-.29.15-.43.2a1.35,1.35,0,0,1-.43.08,1.31,1.31,0,0,1-.43-.08,4.14,4.14,0,0,1-.43-.2,4,4,0,0,0-.43-.19,1.2,1.2,0,0,0-.86,0,4,4,0,0,0-.43.19,4.14,4.14,0,0,1-.43.2,1.26,1.26,0,0,1-.43.08,1.35,1.35,0,0,1-.43-.08c-.14,0-.28-.13-.43-.2a3.3,3.3,0,0,0-.43-.19,1.26,1.26,0,0,0-.43-.08,1.35,1.35,0,0,0-.43.08c-.14,0-.28.12-.43.19a3.36,3.36,0,0,1-.43.2,1.17,1.17,0,0,1-.85,0,3.36,3.36,0,0,1-.43-.2c-.15-.07-.29-.14-.43-.19a1.35,1.35,0,0,0-.43-.08,1.26,1.26,0,0,0-.43.08,3.3,3.3,0,0,0-.43.19c-.15.07-.29.15-.43.2a1.35,1.35,0,0,1-.43.08,1.31,1.31,0,0,1-.43-.08,4.14,4.14,0,0,1-.43-.2,4,4,0,0,0-.43-.19,1.2,1.2,0,0,0-.86,0,4,4,0,0,0-.43.19,4.14,4.14,0,0,1-.43.2,1.31,1.31,0,0,1-.43.08,1.35,1.35,0,0,1-.43-.08c-.14,0-.28-.13-.43-.2A3.3,3.3,0,0,0,5,18.26a1.26,1.26,0,0,0-.43-.08,1.35,1.35,0,0,0-.43.08c-.14,0-.28.12-.43.19a3.36,3.36,0,0,1-.43.2,1.26,1.26,0,0,1-.43.08,1.25,1.25,0,0,1-.42-.08,3.36,3.36,0,0,1-.43-.2c-.15-.07-.29-.14-.43-.19a1.35,1.35,0,0,0-.43-.08,1.26,1.26,0,0,0-.43.08,3.3,3.3,0,0,0-.43.19V19"/><path class="cls-5" d="M27.73,21.25v-1a4,4,0,0,1-.43.19,1.26,1.26,0,0,1-.43.08,1.35,1.35,0,0,1-.43-.08c-.14-.05-.28-.12-.43-.19a3.36,3.36,0,0,0-.43-.2,1.26,1.26,0,0,0-.43-.08,1.35,1.35,0,0,0-.43.08c-.14.05-.28.13-.43.2a3.3,3.3,0,0,1-.43.19,1.17,1.17,0,0,1-.85,0,3.3,3.3,0,0,1-.43-.19c-.15-.07-.29-.15-.43-.2a1.35,1.35,0,0,0-.43-.08,1.26,1.26,0,0,0-.43.08,3.36,3.36,0,0,0-.43.2c-.15.07-.29.14-.43.19a1.35,1.35,0,0,1-.43.08,1.31,1.31,0,0,1-.43-.08,4,4,0,0,1-.43-.19,4.14,4.14,0,0,0-.43-.2,1.2,1.2,0,0,0-.86,0,4.14,4.14,0,0,0-.43.2,4,4,0,0,1-.43.19,1.26,1.26,0,0,1-.43.08,1.35,1.35,0,0,1-.43-.08c-.14-.05-.28-.12-.43-.19a3.36,3.36,0,0,0-.43-.2,1.26,1.26,0,0,0-.43-.08,1.35,1.35,0,0,0-.43.08c-.14.05-.28.13-.43.2a3.3,3.3,0,0,1-.43.19,1.17,1.17,0,0,1-.85,0,3.3,3.3,0,0,1-.43-.19c-.15-.07-.29-.15-.43-.2a1.35,1.35,0,0,0-.43-.08,1.26,1.26,0,0,0-.43.08,3.36,3.36,0,0,0-.43.2c-.15.07-.29.14-.43.19a1.35,1.35,0,0,1-.43.08,1.31,1.31,0,0,1-.43-.08,4,4,0,0,1-.43-.19,4.14,4.14,0,0,0-.43-.2,1.2,1.2,0,0,0-.86,0,4.14,4.14,0,0,0-.43.2,4,4,0,0,1-.43.19,1.31,1.31,0,0,1-.43.08,1.35,1.35,0,0,1-.43-.08c-.14-.05-.28-.12-.43-.19a3.36,3.36,0,0,0-.43-.2A1.26,1.26,0,0,0,4.53,20a1.35,1.35,0,0,0-.43.08c-.14.05-.28.13-.43.2a3.3,3.3,0,0,1-.43.19,1.26,1.26,0,0,1-.43.08,1.25,1.25,0,0,1-.42-.08A3.3,3.3,0,0,1,2,20.27c-.15-.07-.29-.15-.43-.2A1.35,1.35,0,0,0,1.1,20a1.26,1.26,0,0,0-.43.08,3.36,3.36,0,0,0-.43.2v.58"/><path class="cls-5" d="M27.73,23.06v-1a4.14,4.14,0,0,1-.43.2,1.26,1.26,0,0,1-.43.08,1.35,1.35,0,0,1-.43-.08c-.14-.05-.28-.13-.43-.2a3.3,3.3,0,0,0-.43-.19,1.26,1.26,0,0,0-.43-.08,1.35,1.35,0,0,0-.43.08c-.14.05-.28.12-.43.19a3.36,3.36,0,0,1-.43.2,1.17,1.17,0,0,1-.85,0,3.36,3.36,0,0,1-.43-.2c-.15-.07-.29-.14-.43-.19a1.35,1.35,0,0,0-.43-.08,1.26,1.26,0,0,0-.43.08,3.3,3.3,0,0,0-.43.19c-.15.07-.29.15-.43.2a1.35,1.35,0,0,1-.43.08,1.31,1.31,0,0,1-.43-.08,4.14,4.14,0,0,1-.43-.2,4,4,0,0,0-.43-.19,1.2,1.2,0,0,0-.86,0,4,4,0,0,0-.43.19,4.14,4.14,0,0,1-.43.2,1.26,1.26,0,0,1-.43.08,1.35,1.35,0,0,1-.43-.08c-.14-.05-.28-.13-.43-.2a3.3,3.3,0,0,0-.43-.19,1.26,1.26,0,0,0-.43-.08,1.35,1.35,0,0,0-.43.08c-.14.05-.28.12-.43.19a3.36,3.36,0,0,1-.43.2,1.17,1.17,0,0,1-.85,0,3.36,3.36,0,0,1-.43-.2c-.15-.07-.29-.14-.43-.19a1.35,1.35,0,0,0-.43-.08,1.26,1.26,0,0,0-.43.08,3.3,3.3,0,0,0-.43.19c-.15.07-.29.15-.43.2a1.35,1.35,0,0,1-.43.08,1.31,1.31,0,0,1-.43-.08,4.14,4.14,0,0,1-.43-.2,4,4,0,0,0-.43-.19,1.2,1.2,0,0,0-.86,0,4,4,0,0,0-.43.19,4.14,4.14,0,0,1-.43.2,1.31,1.31,0,0,1-.43.08,1.35,1.35,0,0,1-.43-.08c-.14-.05-.28-.13-.43-.2A3.3,3.3,0,0,0,5,21.89a1.26,1.26,0,0,0-.43-.08,1.35,1.35,0,0,0-.43.08c-.14.05-.28.12-.43.19a3.36,3.36,0,0,1-.43.2,1.26,1.26,0,0,1-.43.08,1.25,1.25,0,0,1-.42-.08,3.36,3.36,0,0,1-.43-.2c-.15-.07-.29-.14-.43-.19a1.35,1.35,0,0,0-.43-.08,1.26,1.26,0,0,0-.43.08,3.3,3.3,0,0,0-.43.19v.58"/><path class="cls-5" d="M27.73,24.88v-1a4,4,0,0,1-.43.19,1.26,1.26,0,0,1-.43.08,1.35,1.35,0,0,1-.43-.08C26.3,24,26.16,24,26,23.9a3.3,3.3,0,0,0-.43-.19,1.26,1.26,0,0,0-.43-.08,1.35,1.35,0,0,0-.43.08c-.14.05-.28.12-.43.19a3.3,3.3,0,0,1-.43.19,1.17,1.17,0,0,1-.85,0,3.3,3.3,0,0,1-.43-.19c-.15-.07-.29-.14-.43-.19a1.35,1.35,0,0,0-.43-.08,1.26,1.26,0,0,0-.43.08,3.3,3.3,0,0,0-.43.19c-.15.07-.29.14-.43.19a1.35,1.35,0,0,1-.43.08,1.31,1.31,0,0,1-.43-.08,4,4,0,0,1-.43-.19,4,4,0,0,0-.43-.19,1.2,1.2,0,0,0-.86,0,4,4,0,0,0-.43.19,4,4,0,0,1-.43.19,1.26,1.26,0,0,1-.43.08,1.35,1.35,0,0,1-.43-.08C16,24,15.85,24,15.7,23.9a3.3,3.3,0,0,0-.43-.19,1.26,1.26,0,0,0-.43-.08,1.35,1.35,0,0,0-.43.08c-.14.05-.28.12-.43.19a3.3,3.3,0,0,1-.43.19,1.17,1.17,0,0,1-.85,0,3.3,3.3,0,0,1-.43-.19c-.15-.07-.29-.14-.43-.19a1.35,1.35,0,0,0-.43-.08,1.26,1.26,0,0,0-.43.08,3.3,3.3,0,0,0-.43.19c-.15.07-.29.14-.43.19a1.35,1.35,0,0,1-.43.08,1.31,1.31,0,0,1-.43-.08,4,4,0,0,1-.43-.19,4,4,0,0,0-.43-.19,1.2,1.2,0,0,0-.86,0,4,4,0,0,0-.43.19,4,4,0,0,1-.43.19,1.31,1.31,0,0,1-.43.08,1.35,1.35,0,0,1-.43-.08c-.14-.05-.28-.12-.43-.19A3.3,3.3,0,0,0,5,23.71a1.26,1.26,0,0,0-.43-.08,1.35,1.35,0,0,0-.43.08c-.14.05-.28.12-.43.19a3.3,3.3,0,0,1-.43.19,1.26,1.26,0,0,1-.43.08,1.25,1.25,0,0,1-.42-.08A3.3,3.3,0,0,1,2,23.9c-.15-.07-.29-.14-.43-.19a1.35,1.35,0,0,0-.43-.08,1.26,1.26,0,0,0-.43.08,3.3,3.3,0,0,0-.43.19v.58"/><path class="cls-5" d="M27.73,26.69v-1a2.76,2.76,0,0,1-.43.2,1.26,1.26,0,0,1-.43.08,1.35,1.35,0,0,1-.43-.08,3.26,3.26,0,0,1-.43-.2,3.3,3.3,0,0,0-.43-.19,1.26,1.26,0,0,0-.43-.08,1.35,1.35,0,0,0-.43.08c-.14.05-.28.12-.43.19a2.39,2.39,0,0,1-.43.2,1.17,1.17,0,0,1-.85,0,2.39,2.39,0,0,1-.43-.2c-.15-.07-.29-.14-.43-.19a1.35,1.35,0,0,0-.43-.08,1.26,1.26,0,0,0-.43.08,3.3,3.3,0,0,0-.43.19,3.26,3.26,0,0,1-.43.2A1.35,1.35,0,0,1,20,26a1.31,1.31,0,0,1-.43-.08,2.76,2.76,0,0,1-.43-.2,4,4,0,0,0-.43-.19,1.2,1.2,0,0,0-.86,0,4,4,0,0,0-.43.19,2.76,2.76,0,0,1-.43.2,1.26,1.26,0,0,1-.43.08,1.35,1.35,0,0,1-.43-.08,3.26,3.26,0,0,1-.43-.2,3.3,3.3,0,0,0-.43-.19,1.26,1.26,0,0,0-.43-.08,1.35,1.35,0,0,0-.43.08c-.14.05-.28.12-.43.19a2.39,2.39,0,0,1-.43.2,1.17,1.17,0,0,1-.85,0,2.39,2.39,0,0,1-.43-.2c-.15-.07-.29-.14-.43-.19a1.35,1.35,0,0,0-.43-.08,1.26,1.26,0,0,0-.43.08,3.3,3.3,0,0,0-.43.19,3.26,3.26,0,0,1-.43.2,1.35,1.35,0,0,1-.43.08,1.31,1.31,0,0,1-.43-.08,2.76,2.76,0,0,1-.43-.2,4,4,0,0,0-.43-.19,1.2,1.2,0,0,0-.86,0,4,4,0,0,0-.43.19,2.76,2.76,0,0,1-.43.2,1.31,1.31,0,0,1-.43.08,1.35,1.35,0,0,1-.43-.08,3.26,3.26,0,0,1-.43-.2A3.3,3.3,0,0,0,5,25.52a1.26,1.26,0,0,0-.43-.08,1.35,1.35,0,0,0-.43.08c-.14.05-.28.12-.43.19a2.39,2.39,0,0,1-.43.2,1.26,1.26,0,0,1-.43.08,1.25,1.25,0,0,1-.42-.08,2.39,2.39,0,0,1-.43-.2c-.15-.07-.29-.14-.43-.19a1.35,1.35,0,0,0-.43-.08,1.26,1.26,0,0,0-.43.08,3.3,3.3,0,0,0-.43.19v.58"/><path class="cls-5" d="M27.73,28.51v-1a4,4,0,0,1-.43.19,1.26,1.26,0,0,1-.43.08,1.35,1.35,0,0,1-.43-.08c-.14,0-.28-.12-.43-.19a3.3,3.3,0,0,0-.43-.19,1.26,1.26,0,0,0-.43-.08,1.35,1.35,0,0,0-.43.08c-.14.05-.28.12-.43.19a3.3,3.3,0,0,1-.43.19,1.17,1.17,0,0,1-.85,0,3.3,3.3,0,0,1-.43-.19c-.15-.07-.29-.14-.43-.19a1.35,1.35,0,0,0-.43-.08,1.26,1.26,0,0,0-.43.08,3.3,3.3,0,0,0-.43.19c-.15.07-.29.14-.43.19a1.35,1.35,0,0,1-.43.08,1.31,1.31,0,0,1-.43-.08,4,4,0,0,1-.43-.19,4,4,0,0,0-.43-.19,1.2,1.2,0,0,0-.86,0,4,4,0,0,0-.43.19,4,4,0,0,1-.43.19,1.26,1.26,0,0,1-.43.08,1.35,1.35,0,0,1-.43-.08c-.14,0-.28-.12-.43-.19a3.3,3.3,0,0,0-.43-.19,1.26,1.26,0,0,0-.43-.08,1.35,1.35,0,0,0-.43.08c-.14.05-.28.12-.43.19a3.3,3.3,0,0,1-.43.19,1.17,1.17,0,0,1-.85,0,3.3,3.3,0,0,1-.43-.19c-.15-.07-.29-.14-.43-.19a1.35,1.35,0,0,0-.43-.08,1.26,1.26,0,0,0-.43.08,3.3,3.3,0,0,0-.43.19c-.15.07-.29.14-.43.19a1.35,1.35,0,0,1-.43.08,1.31,1.31,0,0,1-.43-.08,4,4,0,0,1-.43-.19,4,4,0,0,0-.43-.19,1.2,1.2,0,0,0-.86,0,4,4,0,0,0-.43.19,4,4,0,0,1-.43.19,1.31,1.31,0,0,1-.43.08,1.35,1.35,0,0,1-.43-.08c-.14,0-.28-.12-.43-.19A3.3,3.3,0,0,0,5,27.34a1.26,1.26,0,0,0-.43-.08,1.35,1.35,0,0,0-.43.08c-.14.05-.28.12-.43.19a3.3,3.3,0,0,1-.43.19,1.26,1.26,0,0,1-.43.08,1.25,1.25,0,0,1-.42-.08A3.3,3.3,0,0,1,2,27.53c-.15-.07-.29-.14-.43-.19a1.35,1.35,0,0,0-.43-.08,1.26,1.26,0,0,0-.43.08,3.3,3.3,0,0,0-.43.19v.58"/><path class="cls-5" d="M27.73,30.33v-1a4,4,0,0,1-.43.19,1.26,1.26,0,0,1-.43.08,1.35,1.35,0,0,1-.43-.08c-.14-.05-.28-.12-.43-.19a2.39,2.39,0,0,0-.43-.2,1.26,1.26,0,0,0-.43-.08,1.35,1.35,0,0,0-.43.08,3.26,3.26,0,0,0-.43.2,3.3,3.3,0,0,1-.43.19,1.17,1.17,0,0,1-.85,0,3.3,3.3,0,0,1-.43-.19,3.26,3.26,0,0,0-.43-.2,1.35,1.35,0,0,0-.43-.08,1.26,1.26,0,0,0-.43.08,2.39,2.39,0,0,0-.43.2c-.15.07-.29.14-.43.19a1.35,1.35,0,0,1-.43.08,1.31,1.31,0,0,1-.43-.08,4,4,0,0,1-.43-.19,2.76,2.76,0,0,0-.43-.2,1.2,1.2,0,0,0-.86,0,2.76,2.76,0,0,0-.43.2,4,4,0,0,1-.43.19,1.26,1.26,0,0,1-.43.08,1.35,1.35,0,0,1-.43-.08c-.14-.05-.28-.12-.43-.19a2.39,2.39,0,0,0-.43-.2,1.26,1.26,0,0,0-.43-.08,1.35,1.35,0,0,0-.43.08,3.26,3.26,0,0,0-.43.2,3.3,3.3,0,0,1-.43.19,1.17,1.17,0,0,1-.85,0,3.3,3.3,0,0,1-.43-.19,3.26,3.26,0,0,0-.43-.2,1.35,1.35,0,0,0-.43-.08,1.26,1.26,0,0,0-.43.08,2.39,2.39,0,0,0-.43.2c-.15.07-.29.14-.43.19a1.35,1.35,0,0,1-.43.08,1.31,1.31,0,0,1-.43-.08,4,4,0,0,1-.43-.19,2.76,2.76,0,0,0-.43-.2,1.2,1.2,0,0,0-.86,0,2.76,2.76,0,0,0-.43.2,4,4,0,0,1-.43.19,1.31,1.31,0,0,1-.43.08,1.35,1.35,0,0,1-.43-.08c-.14-.05-.28-.12-.43-.19a2.39,2.39,0,0,0-.43-.2,1.26,1.26,0,0,0-.43-.08,1.35,1.35,0,0,0-.43.08,3.26,3.26,0,0,0-.43.2,3.3,3.3,0,0,1-.43.19,1.26,1.26,0,0,1-.43.08,1.25,1.25,0,0,1-.42-.08A3.3,3.3,0,0,1,2,29.35a3.26,3.26,0,0,0-.43-.2,1.35,1.35,0,0,0-.43-.08,1.26,1.26,0,0,0-.43.08,2.39,2.39,0,0,0-.43.2v.57"/><path class="cls-5" d="M27.73,32.14v-1a4,4,0,0,1-.43.19,1.06,1.06,0,0,1-.43.08,1.12,1.12,0,0,1-.43-.08c-.14-.05-.28-.12-.43-.19a3.3,3.3,0,0,0-.43-.19,1.26,1.26,0,0,0-.43-.08,1.35,1.35,0,0,0-.43.08c-.14.05-.28.12-.43.19a3.3,3.3,0,0,1-.43.19,1,1,0,0,1-.42.08,1.06,1.06,0,0,1-.43-.08,3.3,3.3,0,0,1-.43-.19c-.15-.07-.29-.14-.43-.19a1.35,1.35,0,0,0-.43-.08,1.26,1.26,0,0,0-.43.08,3.3,3.3,0,0,0-.43.19c-.15.07-.29.14-.43.19a1.12,1.12,0,0,1-.43.08,1.09,1.09,0,0,1-.43-.08,4,4,0,0,1-.43-.19,4,4,0,0,0-.43-.19,1.2,1.2,0,0,0-.86,0,4,4,0,0,0-.43.19,4,4,0,0,1-.43.19,1.06,1.06,0,0,1-.43.08,1.12,1.12,0,0,1-.43-.08c-.14-.05-.28-.12-.43-.19a3.3,3.3,0,0,0-.43-.19,1.26,1.26,0,0,0-.43-.08,1.35,1.35,0,0,0-.43.08c-.14.05-.28.12-.43.19a3.3,3.3,0,0,1-.43.19,1,1,0,0,1-.42.08,1.06,1.06,0,0,1-.43-.08,3.3,3.3,0,0,1-.43-.19c-.15-.07-.29-.14-.43-.19a1.35,1.35,0,0,0-.43-.08A1.26,1.26,0,0,0,11,31a3.3,3.3,0,0,0-.43.19c-.15.07-.29.14-.43.19a1.12,1.12,0,0,1-.43.08,1.09,1.09,0,0,1-.43-.08,4,4,0,0,1-.43-.19A4,4,0,0,0,8.4,31a1.2,1.2,0,0,0-.86,0,4,4,0,0,0-.43.19,4,4,0,0,1-.43.19,1.09,1.09,0,0,1-.43.08,1.12,1.12,0,0,1-.43-.08c-.14-.05-.28-.12-.43-.19A3.3,3.3,0,0,0,5,31a1.26,1.26,0,0,0-.43-.08A1.35,1.35,0,0,0,4.1,31c-.14.05-.28.12-.43.19a3.3,3.3,0,0,1-.43.19,1.06,1.06,0,0,1-.43.08,1,1,0,0,1-.42-.08A3.3,3.3,0,0,1,2,31.16c-.15-.07-.29-.14-.43-.19a1.35,1.35,0,0,0-.43-.08A1.26,1.26,0,0,0,.67,31a3.3,3.3,0,0,0-.43.19v.58"/></g><path class="cls-21" d="M24.52,21.88a10.54,10.54,0,1,1-21.07,0C3.45,16.06,14,4.53,14,4.53S24.52,16.06,24.52,21.88Z"/></g></g></svg>