<svg xmlns="http://www.w3.org/2000/svg" viewBox="0 0 39.03 39.03"><defs><style>.cls-1{fill:#388659;}</style></defs><title>social-facebook</title><g id="Layer_2" data-name="Layer 2"><g id="Layer_1-2" data-name="Layer 1"><path class="cls-1" d="M19.51,0A19.52,19.52,0,1,0,39,19.52,19.51,19.51,0,0,0,19.51,0ZM29.65,28.53a1.12,1.12,0,0,1-1.12,1.12H23.36V21.81H26l.39-3.06h-3v-2c0-.88.25-1.49,1.52-1.49H26.5V12.56c-.28,0-1.24-.12-2.36-.12a3.69,3.69,0,0,0-3.94,4v2.26H17.56V21.8H20.2v7.85H10.5a1.12,1.12,0,0,1-1.12-1.12v-18A1.12,1.12,0,0,1,10.5,9.38h18a1.12,1.12,0,0,1,1.12,1.12Z"/></g></g></svg>