<svg xmlns="http://www.w3.org/2000/svg" viewBox="0 0 39.03 39.03"><defs><style>.cls-1{fill:#ff0046;}</style></defs><title>social-twitter</title><g id="Layer_2" data-name="Layer 2"><g id="Layer_1-2" data-name="Layer 1"><path class="cls-1" d="M19.51,0A19.52,19.52,0,1,0,39,19.52,19.51,19.51,0,0,0,19.51,0ZM30.05,15.65c0,.21,0,.42,0,.63A14,14,0,0,1,8.51,28.06a11.48,11.48,0,0,0,1.17.07A9.85,9.85,0,0,0,15.78,26a4.94,4.94,0,0,1-4.6-3.41,5.52,5.52,0,0,0,.92.08,5,5,0,0,0,1.29-.17,4.92,4.92,0,0,1-3.94-4.83v-.06a4.92,4.92,0,0,0,2.22.62,4.94,4.94,0,0,1-2.18-4.1,4.87,4.87,0,0,1,.66-2.47A13.92,13.92,0,0,0,20.29,16.8a5.13,5.13,0,0,1-.12-1.12,4.92,4.92,0,0,1,8.51-3.36,10.13,10.13,0,0,0,3.12-1.18,4.88,4.88,0,0,1-2.16,2.72,10.3,10.3,0,0,0,2.83-.77l0,0A10.07,10.07,0,0,1,30.05,15.65Z"/></g></g></svg>