<svg xmlns="http://www.w3.org/2000/svg" viewBox="0 0 39.03 39.04"><defs><style>.cls-1{fill:#f7b32b;}</style></defs><title>social-instagram</title><g id="Layer_2" data-name="Layer 2"><g id="Layer_1-2" data-name="Layer 1"><circle class="cls-1" cx="19.52" cy="19.52" r="4"/><path class="cls-1" d="M29.28,14.67a6.49,6.49,0,0,0-.41-2.23A3.86,3.86,0,0,0,28,11.06a3.65,3.65,0,0,0-1.39-.89,6.54,6.54,0,0,0-2.22-.42c-1.27-.05-1.65-.07-4.85-.07l-.05,0c-3.21,0-3.58,0-4.86.06a6.8,6.8,0,0,0-2.22.42,4,4,0,0,0-2.28,2.28,6.88,6.88,0,0,0-.42,2.23c0,1.28-.06,1.67-.06,4.87s0,3.58.06,4.84a6.88,6.88,0,0,0,.42,2.23A3.56,3.56,0,0,0,11,28a3.67,3.67,0,0,0,1.38.9,6.69,6.69,0,0,0,2.24.42c1.27.06,1.65.08,4.86.08s3.58,0,4.86-.07a6.68,6.68,0,0,0,2.23-.41,4,4,0,0,0,2.28-2.28,6.88,6.88,0,0,0,.42-2.23c.06-1.26.07-1.65.07-4.85S29.34,15.94,29.28,14.67Zm-9.76,11a6.16,6.16,0,1,1,6.16-6.16A6.16,6.16,0,0,1,19.52,25.68Zm6.4-11.12a1.44,1.44,0,1,1,1.44-1.44A1.45,1.45,0,0,1,25.92,14.56Z"/><path class="cls-1" d="M19.52,0A19.52,19.52,0,1,0,39,19.52,19.52,19.52,0,0,0,19.52,0ZM31.44,24.47a8.79,8.79,0,0,1-.55,2.91,5.94,5.94,0,0,1-1.39,2.13,6,6,0,0,1-2.12,1.38,8.83,8.83,0,0,1-2.92.56c-1.28.06-1.68.07-4.94.07s-3.67,0-4.95-.07a8.71,8.71,0,0,1-2.91-.56,5.91,5.91,0,0,1-2.13-1.38,5.78,5.78,0,0,1-1.38-2.13,8.76,8.76,0,0,1-.56-2.91c-.06-1.28-.07-1.69-.07-4.95s0-3.67.07-4.95a8.82,8.82,0,0,1,.56-2.91A5.78,5.78,0,0,1,9.53,9.53a6,6,0,0,1,2.13-1.38,8.71,8.71,0,0,1,2.91-.56c1.28,0,1.69-.07,4.95-.07s3.66,0,4.94.07a8.83,8.83,0,0,1,2.92.56,6.15,6.15,0,0,1,3.51,3.51,9.05,9.05,0,0,1,.55,2.91c.06,1.28.08,1.69.08,4.95S31.5,23.19,31.44,24.47Z"/></g></g></svg>