<svg xmlns="http://www.w3.org/2000/svg" xmlns:xlink="http://www.w3.org/1999/xlink" viewBox="0 0 436.3 104.2">
  <defs>
    <style>
      .cls-1 {
        fill: none;
      }

      .cls-2 {
        fill: #fff;
        opacity: 0.3;
      }

      .cls-3 {
        clip-path: url(#clip-path);
      }

      .cls-4 {
        clip-path: url(#clip-path-2);
      }
    </style>
    <clipPath id="clip-path">
      <path id="Path_48" data-name="Path 48" d="M214.6,459.4c12.8-8,31.6-14,53.6-16.8a18.985,18.985,0,0,1-1.7-7.9c0-11,9.3-19.9,20.7-19.9a19.928,19.928,0,0,1,4.9.6,42.85,42.85,0,0,1-.7-7.2c0-29.2,31.5-52.8,70.3-52.8,29.6,0,54.9,13.7,65.3,33.2a44.046,44.046,0,0,1,37.3-19.9c24.2,0,43.9,18.9,43.9,42.2a48.982,48.982,0,0,1-.7,7.7,27.427,27.427,0,0,1,21.2-9.8,27.08,27.08,0,0,1,24.8,15.7,23.611,23.611,0,0,1,20.2-11.2c13,0,23.4,10.1,23.4,22.6a26.012,26.012,0,0,1-.7,5.6c22.4,1,42.1,7.9,54.5,18.1H214.6Z"/>
    </clipPath>
    <clipPath id="clip-path-2">
      <rect id="Rectangle_19" data-name="Rectangle 19" width="756.7" height="756.7"/>
    </clipPath>
  </defs>
  <g id="Group_33" data-name="Group 33" transform="translate(-214.6 -355.4)">
    <g id="Group_29" data-name="Group 29">
      <path id="Path_46" data-name="Path 46" class="cls-1" d="M497.8,449c.3-.5.5-.9.8-1.4.2.3.3.6.5.9A6.944,6.944,0,0,0,497.8,449Z"/>
      <path id="Path_47" data-name="Path 47" class="cls-2" d="M580.1,458.5c-10.3-8.5-26.7-14.2-45.3-15a17.589,17.589,0,0,0,.6-4.6c0-10.4-8.7-18.8-19.5-18.8a19.661,19.661,0,0,0-16.9,9.3,22.94,22.94,0,0,0-38.3-4.9,33.868,33.868,0,0,0,.6-6.4c0-19.4-16.4-35.1-36.5-35.1a36.637,36.637,0,0,0-31,16.6c-8.6-16.2-29.7-27.6-54.3-27.6-32.3,0-58.5,19.7-58.5,43.9a40.475,40.475,0,0,0,.5,6,18.407,18.407,0,0,0-4.1-.5c-9.5,0-17.2,7.4-17.2,16.6a15.8,15.8,0,0,0,1.4,6.5c-18.3,2.3-34,7.4-44.6,14Z"/>
    </g>
    <g id="Group_32" data-name="Group 32">
      <g id="Group_31" data-name="Group 31" class="cls-3">
        <g id="Group_30" data-name="Group 30" class="cls-4">
          <rect id="Rectangle_18" data-name="Rectangle 18" class="cls-1" width="756.6" height="756.6" transform="translate(0.084 756.684) rotate(-90)"/>
        </g>
      </g>
    </g>
  </g>
</svg>
