<svg xmlns="http://www.w3.org/2000/svg" viewBox="0 0 371.52 151.87"><defs><style>.cls-1{fill:#2d2a26;}.cls-2{fill:#8d2328;}</style></defs><title>csp</title><g id="Layer_2" data-name="Layer 2"><g id="Layer_1-2" data-name="Layer 1"><path class="cls-1" d="M16.38,79.4c3.51,0,6.07,1.3,7.39,6.13l1.48-.23c-.25-2.6-.41-4.42-.74-6.7a31.28,31.28,0,0,0-7.44-1.06C7.35,77.54.94,83.8.94,91.93c0,6.65,4.38,13.67,15.39,13.67a37.77,37.77,0,0,0,7.73-1.15,57.91,57.91,0,0,0,2.1-7.1l-1.49-.3c-2.15,4.42-4.23,6.69-8.38,6.69-5.49,0-9.23-5.11-9.23-12.75,0-5.94,3-11.59,9.32-11.59"/><path class="cls-1" d="M34,102.23a3.16,3.16,0,1,0-3.18,3.25A3.11,3.11,0,0,0,34,102.23"/><path class="cls-1" d="M37.51,85.61c0,3.94,2.92,6.32,6.4,7.87l.83.35c3.13,1.37,4.65,2.73,4.65,5.54a4.12,4.12,0,0,1-4.25,4.37c-4.08,0-6.44-4.41-7.13-6.69l-1.49.54c.46,2.47.95,5.34,1.29,6.4a21.18,21.18,0,0,0,2.47,1,14,14,0,0,0,4.16.65c5.94,0,9.8-3.71,9.8-8.58,0-4.45-3.06-6.65-6.37-8.06l-1.32-.57c-3-1.28-4.5-2.78-4.5-4.87a3.86,3.86,0,0,1,4-4.12c3.5,0,4.74,2.93,5.56,5.35l1.49-.29c-.41-2.47-.7-4.32-.86-5.81-.5-.17-1.12-.33-1.78-.53a11.84,11.84,0,0,0-3.79-.58c-5.75,0-9.17,3.67-9.17,8.07"/><path class="cls-1" d="M62.94,102.23a3.16,3.16,0,1,0-3.18,3.25,3.12,3.12,0,0,0,3.18-3.25"/><path class="cls-1" d="M80.09,102.23A3.16,3.16,0,1,0,83.23,99a3.1,3.1,0,0,0-3.14,3.23"/><path class="cls-1" d="M65.42,103.66V105H78v-1.32c-3.67-.25-4-.54-4-5V93.55l2.86.62a13.9,13.9,0,0,0,1.82-.09C83,93.55,87,91,87,85.79a6.82,6.82,0,0,0-2.88-6c-1.74-1.21-4.17-1.65-7.39-1.65H65.61v1.31c2.86.26,3.18.55,3.18,5v14.2c0,4.46-.32,4.75-3.37,5M74,81.42c0-1.19.09-1.49,1.9-1.49,3,0,5.33,1.33,5.33,5.74,0,5.79-3.63,6.52-4.79,6.52A7.61,7.61,0,0,1,74,91.73Z"/><path class="cls-1" d="M99.37,94a64.12,64.12,0,0,1-.75,7.52c-.24,1.54-1,1.94-3,2.11V105h9.78v-1.32c-2.67-.21-3.54-.57-3.71-2.11a48.23,48.23,0,0,1-.12-7.1l.33-10.19H102l8.71,20.28h1.4l9-21.31h.16l.14,15.43c0,4.59-.1,4.71-3.15,5V105h11.81v-1.32c-3.23-.29-3.31-.41-3.43-5l-.41-14.2c-.12-4.53,0-4.7,3.26-5V78.16h-8.38l-7.91,18.56-8.43-18.56h-8.3v1.31c3.42.29,3.76.76,3.42,6.25Z"/><path class="cls-1" d="M134.12,96a4.35,4.35,0,0,0-3.15,4.38,5.22,5.22,0,0,0,5.19,5.07c.74,0,2.92-1.57,4.63-2.69a3.36,3.36,0,0,0,3.5,2.69l4.45-2.39-.44-1.2a4.42,4.42,0,0,1-1.58.39c-.57,0-1.11-.6-1.11-2.34V91.48a4.33,4.33,0,0,0-1.82-4,6.46,6.46,0,0,0-4-1.12,17,17,0,0,0-7.13,3,3.05,3.05,0,0,0-1.45,2.19c0,1.13,1.65,2,2.43,2s1.41-.3,1.53-1a6.63,6.63,0,0,1,1.48-3.39,2.26,2.26,0,0,1,1.36-.57c1.57,0,2.68,1,2.68,3.09v1.48A54,54,0,0,1,134.12,96m6.61,5.24a3.93,3.93,0,0,1-2.26,1.11,2.82,2.82,0,0,1-2.35-3,3.15,3.15,0,0,1,1.85-3c.83-.47,1.94-1.16,2.76-1.57Z"/><path class="cls-1" d="M148.66,103.66V105h10v-1.32c-1.78-.25-2-.41-2-2.76V91a5.75,5.75,0,0,1,3.53-1.5c1.6,0,2.83.93,2.83,3.37v8.05c0,2.35-.16,2.51-2.23,2.76V105h9.74v-1.32c-2.27-.25-2.48-.41-2.48-2.76v-9c0-3.18-2-5.53-5.32-5.53A6.25,6.25,0,0,0,159,87.69c-.75.48-1.54,1-2.32,1.56V86.33c-2.67.57-5.32,1.14-7.67,1.44v1.12c2.56.27,2.64.32,2.64,2.79v9.22c0,2.35-.2,2.51-3,2.76"/><path class="cls-1" d="M174.79,96c-2.23.89-3.17,2.3-3.17,4.38a5.22,5.22,0,0,0,5.19,5.07c.74,0,2.94-1.57,4.63-2.69a3.38,3.38,0,0,0,3.5,2.69l4.47-2.39-.45-1.2a4.42,4.42,0,0,1-1.58.39c-.57,0-1.12-.6-1.12-2.34V91.48a4.36,4.36,0,0,0-1.81-4,6.5,6.5,0,0,0-4-1.12,17.08,17.08,0,0,0-7.15,3,3.08,3.08,0,0,0-1.43,2.19c0,1.13,1.64,2,2.43,2s1.41-.3,1.51-1a6.54,6.54,0,0,1,1.5-3.39,2.26,2.26,0,0,1,1.36-.57c1.57,0,2.68,1,2.68,3.09v1.48a56.71,56.71,0,0,1-6.6,2.94m6.6,5.24a3.89,3.89,0,0,1-2.27,1.11,2.83,2.83,0,0,1-2.37-3,3.18,3.18,0,0,1,1.88-3c.82-.47,1.94-1.16,2.76-1.57Z"/><path class="cls-1" d="M189.78,109.57c0,2.38,2.42,5.4,7.84,5.4,5.61,0,10.35-3.67,10.35-8.16s-3.87-5.17-6.31-5.17c-1.39,0-2.93,0-3.46,0-1.69,0-2.4-.67-2.4-1.32s.44-1,1.14-1.29a8,8,0,0,0,1,.05c3.89,0,7.89-2.24,7.89-6.69a5.74,5.74,0,0,0-.9-3l2,.22a5.61,5.61,0,0,0,1.9-2.32l-.25-.36c-1.85.16-3.78.41-5.83.5a9.5,9.5,0,0,0-4.53-1.12c-3.76,0-8.09,2.19-8.09,6.85,0,2.55,1.81,4.78,4.78,5.56a38.87,38.87,0,0,1-4.32,2.33,3.69,3.69,0,0,0,.66,2.22,5.9,5.9,0,0,0,3,2,38.31,38.31,0,0,0-3.63,2.36,2.38,2.38,0,0,0-.82,1.9m8.06-21.52c1.91,0,3.19,2.4,3.19,5,0,2.92-1.44,4.33-2.76,4.33-1.76,0-3.14-2.27-3.14-5.11s1.38-4.23,2.71-4.23m-2.45,18.25c.66-.58,1.36-.73,3.14-.73a11.69,11.69,0,0,1,3.26.36,3,3,0,0,1,2.31,2.85c0,2-1.2,4-4.67,4-3,0-5.15-1.61-5.15-4.1a3,3,0,0,1,1.11-2.34"/><path class="cls-1" d="M224.56,92.57a6.45,6.45,0,0,0-6.43-6.24c-5,0-9.49,4.46-9.49,10.39a8.47,8.47,0,0,0,8.79,8.76c1.44,0,4.66-.87,7-4.47l-.57-.82a7.6,7.6,0,0,1-4.47,1.61c-3.14,0-5.95-2.14-5.95-6.76,4.08-.18,9.58-.55,10.17-.67.82-.17.93-.23.93-1.8m-5.53.49-5.39.12c.23-2.86,1.77-5,3.29-5s2.9,2.19,2.9,3.89c0,.82-.17,1-.8,1"/><path class="cls-1" d="M225.06,103.66V105H235v-1.32c-1.73-.25-1.95-.41-1.95-2.76V91a5.89,5.89,0,0,1,3.51-1.5c1.57,0,2.78.93,2.78,3.37v8.05c0,2.35-.17,2.51-2.2,2.76V105h9.42v-1.32c-2-.25-2.19-.41-2.19-2.76V91.81a5.16,5.16,0,0,0,0-.78,5.76,5.76,0,0,1,3.51-1.55c1.56,0,2.81.93,2.81,3.37v8.05c0,2.35-.21,2.51-2.18,2.76V105h9.69v-1.32c-2.27-.25-2.48-.41-2.48-2.76v-9c0-3.18-1.9-5.53-5.49-5.53a5.93,5.93,0,0,0-3.59,1.28c-.92.56-1.77,1.2-2.65,1.8A5.09,5.09,0,0,0,239,86.33a6.2,6.2,0,0,0-3.75,1.44c-.79.5-1.45,1-2.21,1.48V86.33c-2.67.57-5.32,1.14-7.66,1.44v1.12c2.56.27,2.64.32,2.64,2.79v9.22c0,2.35-.22,2.51-3,2.76"/><path class="cls-1" d="M275.21,92.57a6.44,6.44,0,0,0-6.43-6.24c-5,0-9.5,4.46-9.5,10.39a8.46,8.46,0,0,0,8.79,8.76c1.44,0,4.66-.87,7-4.47l-.59-.82a7.54,7.54,0,0,1-4.45,1.61c-3.14,0-5.95-2.14-5.95-6.76,4.09-.18,9.58-.55,10.15-.67.84-.17.95-.23.95-1.8m-5.53.49-5.4.11c.25-2.85,1.76-5,3.29-5s2.89,2.19,2.89,3.89c0,.82-.15,1-.78,1"/><path class="cls-1" d="M275.71,103.66V105h10v-1.32c-1.78-.25-2-.41-2-2.76V91a5.73,5.73,0,0,1,3.51-1.5c1.61,0,2.85.93,2.85,3.37v8.05c0,2.35-.17,2.51-2.24,2.76V105h9.75v-1.32c-2.27-.25-2.47-.41-2.47-2.76v-9c0-3.18-2-5.53-5.33-5.53A6.31,6.31,0,0,0,286,87.69c-.74.48-1.52,1-2.3,1.56V86.33c-2.68.57-5.32,1.14-7.68,1.44v1.12c2.55.27,2.64.32,2.64,2.79v9.22c0,2.35-.21,2.51-3,2.76"/><path class="cls-1" d="M305.14,81.05l-4.33,3.25v2.52h-1.62l-1.32,1.57.3.54h2.64v11.48c0,3.67,1.77,5.07,4.95,5.07a3.92,3.92,0,0,0,1.56-.45l3.55-1.78-.58-1.24a4.2,4.2,0,0,1-2.14.67c-.74,0-2.3-.58-2.3-3.76v-10h3.78a1.41,1.41,0,0,0,.3-2.11h-4.08v-5.4Z"/><rect class="cls-2" x="1.31" y="118.67" width="308.06" height="3.07"/><path class="cls-2" d="M126,45.26V39.74H126a3.88,3.88,0,0,0-7.75,0h0v5.52Z"/><path class="cls-2" d="M4,72.7C15.59,62.28,31.12,64.2,45.17,62c-1.54-2.07-5.28-7.75-5.28-7.75s-2.2,3.06-3.34,1.81,3.47-5,3.47-5,3.76,5.52,7.72,10.17a1.22,1.22,0,0,0,2-1.27c-3.52-4.39-8.77-12.12-8.77-12.12L0,48V71.66s.9,3.87,4,1"/><path class="cls-2" d="M251.67,24.38a11.4,11.4,0,0,0,6.59-.87c2.2-1.31.88-4,.88-5.7,0-.88-.44-2.63-1.76-3.08a13.36,13.36,0,0,0-1.49-.27,3.06,3.06,0,0,0-1.34-.31,3,3,0,0,0-1.45.38l-1,.2a6.41,6.41,0,0,0-2.2,2.63c-.45,1.34,0,2.64,0,4,0,1,.43,2.64,1.75,3.05"/><path class="cls-2" d="M52.76,61.28c6.16.45,11.87-.87,17.57-2.63,4-1.77,8.94-3.17,13.17-5.26a12.84,12.84,0,0,1,5.71-.89,63.42,63.42,0,0,1,9.22-.45c4.39,0,8.34-1.31,12.74-.87a105.91,105.91,0,0,0,29,.87c9.67-.43,19.33,0,29-2.63,2.64-.43,4.83-1.31,7.47-1.31,13.61-1.32,26.35.42,39.95-2.64,6.14-1.76,10.54-5.71,15.8-8.78,6.17-3.09,12.31-2.2,18.89-3.95,3.08-.44,6.15-.88,9.23-2.64,2.19-1.32,3.06-4,5.26-5.26,2.64-1.32,5.27-3.51,8.34-4a33.2,33.2,0,0,0,6.59-.44c2.63-.88,4.82-3.08,7.9-4,.88,0,1.32-.89,2.2-1.31,6.12-2.46,12.21-4.14,18.68-4l3.4-1.83L303.48,0H213.32l10,11.72-43.42.48-7.07,9s7.66,6.54,9.75,8.62-.66,4.41-2.12,3-9.36-8.51-9.36-8.51-4.65,5.43-6.4,7.18-4.07-.39-2.32-2.13c2-2.56,9-10.91,9-10.91H142.22l-9.76,9.75L125,20.74H100.39L87,30.11v3.31H65.5v4.64l17.32,8.78-1.51,2.58L64.24,41.66,55.4,50.5H52.33l.4,10a5.62,5.62,0,0,0,0,.82m166.9-33.23h15.39L227,20c-1.38-1.39.36-3.61,2-1.95,2.34,2.33,4.59,4.4,4.59,4.4l20.5-12.19,15.86,6.82s2.67-.15,8.52-.15c-23.17,3.51-17.32,12.59-27.8,12.59-.24-2.92-2.93-4.63-5.61-4.63s-5.12,1.95-4.86,5.61c-6.61.49-20.52,6.09-20.52,6.09Zm-77.82,19H102.72L121.9,30.85ZM90.63,31l10.49-7.56,11.21,8.76-7.86.27a4.15,4.15,0,0,0-8.21.28l-5.87.2Z"/><path class="cls-1" d="M2.26,145.28a2,2,0,0,1-.11.83.6.6,0,0,1-.32.21,5.32,5.32,0,0,1-1.25.09V147c1.31,0,2.25-.07,2.81-.07s1.42,0,2.25.07v-.56a5.45,5.45,0,0,1-1.25-.09.7.7,0,0,1-.32-.22,3.31,3.31,0,0,1-.12-1c0-.75,0-1.52,0-2.3V139c0-1.61.06-2.43.06-2.52q0-.4.06-.87a5.51,5.51,0,0,1,1.74-.28,3,3,0,0,1,2.12.64,2.1,2.1,0,0,1,.7,1.67,2.54,2.54,0,0,1-.82,2,3.41,3.41,0,0,1-2.38.76c-.16,0-.37,0-.67,0l-.1.26c.56.62,1.14,1.32,1.75,2.11.37.45.82,1,1.31,1.74.88,1.27,1.53,2.11,1.9,2.55.5,0,.91-.07,1.25-.07s.71,0,1.14.07v-.56a2.91,2.91,0,0,1-.57,0,.38.38,0,0,1-.15-.09,16.49,16.49,0,0,1-1.11-1.34L8,142.05c-.53-.69-.89-1.13-1-1.34A5.31,5.31,0,0,0,8.86,140,3,3,0,0,0,10,138.77a3.09,3.09,0,0,0,.38-1.43,2.68,2.68,0,0,0-.4-1.45,2.49,2.49,0,0,0-1.18-1,7.44,7.44,0,0,0-2.41-.29l-1.58,0c-.69,0-1.2,0-1.53,0l-1.66,0h-1v.55a5.42,5.42,0,0,1,1.24.1.67.67,0,0,1,.33.21,2.5,2.5,0,0,1,.11,1c0,.74,0,1.53,0,2.3v4c0,1.53,0,2.35,0,2.48"/><path class="cls-1" d="M18.78,142.68a11.14,11.14,0,0,0,1.12-.16,4.84,4.84,0,0,0,.05-.59,3.91,3.91,0,0,0-.37-1.71A2.85,2.85,0,0,0,18.44,139a3.58,3.58,0,0,0-1.76-.43,3.94,3.94,0,0,0-1.48.28,5.21,5.21,0,0,0-1,.58,3.79,3.79,0,0,0-.79.64,3.3,3.3,0,0,0-.61,1.17,5.36,5.36,0,0,0-.27,1.8,4.7,4.7,0,0,0,.51,2.23,3.43,3.43,0,0,0,1.44,1.41,4.55,4.55,0,0,0,2.06.47,4.32,4.32,0,0,0,1.1-.12,6.66,6.66,0,0,0,.95-.3,9.48,9.48,0,0,0,.87-.5l.27-.63-.14-.15a6.09,6.09,0,0,1-1.29.62,3.24,3.24,0,0,1-1.05.19,3.37,3.37,0,0,1-1.51-.37,2.5,2.5,0,0,1-1.13-1.14,4.57,4.57,0,0,1-.44-2H16.9c.63,0,1.26,0,1.88-.06m-3.73-.57c-.47,0-.76,0-.93-.05a3.61,3.61,0,0,1,.6-2.22,2,2,0,0,1,1.6-.69,1.83,1.83,0,0,1,1.48.63,3,3,0,0,1,.56,2c0,.06,0,.17,0,.31-.24,0-.76,0-1.53,0l-1.77,0"/><path class="cls-1" d="M27.75,146.9c.36,0,.77,0,1.25.07v-.5l-.57-.05a1.28,1.28,0,0,1-.38-.07.51.51,0,0,1-.16-.19,2.52,2.52,0,0,1-.06-.59V143l0-1.59a3,3,0,0,0-.24-1.31,2.25,2.25,0,0,0-1-1.07,3.46,3.46,0,0,0-1.66-.36,4,4,0,0,0-1.2.17,8.39,8.39,0,0,0-1.79,1v1.12l.45.12c.07-.19.18-.45.34-.8l.16-.32a1.12,1.12,0,0,1,.47-.22,2.7,2.7,0,0,1,.9-.14,2.41,2.41,0,0,1,1.21.29,1.76,1.76,0,0,1,.7.76,2.75,2.75,0,0,1,.18,1.26,17,17,0,0,0-2.23.41,8.66,8.66,0,0,0-1.64.5,2.3,2.3,0,0,0-.59.43,2.67,2.67,0,0,0-.47.77,2.8,2.8,0,0,0-.21,1.1,1.93,1.93,0,0,0,.59,1.48,2.24,2.24,0,0,0,1.64.56,1.69,1.69,0,0,0,.82-.17,22.54,22.54,0,0,0,2.09-1.5l0,1.54c.6,0,1-.07,1.4-.07m-2.47-1.18a2.36,2.36,0,0,1-1.16.33,1.3,1.3,0,0,1-1-.36,1.39,1.39,0,0,1-.36-1,2.06,2.06,0,0,1,.24-.95,1.14,1.14,0,0,1,.35-.44,3.62,3.62,0,0,1,1.12-.5c.53-.14,1.18-.28,1.91-.41v2.33a4.2,4.2,0,0,1-1.11,1"/><path class="cls-1" d="M31.25,145.63a1.65,1.65,0,0,1-.11.63.32.32,0,0,1-.15.13.58.58,0,0,1-.3.07h-.82v.5c.91,0,1.65-.07,2.21-.07s1.29,0,2.07.07v-.5l-1,0a1,1,0,0,1-.2-.09c0-.05-.1-.09-.11-.14a2.49,2.49,0,0,1-.1-.63c0-.13,0-.94,0-2.43v-4.49l0-1.36c0-.74,0-1.62.06-2.65v-.28c0-.08,0-.14,0-.17a.14.14,0,0,0,0-.11.16.16,0,0,0-.1,0,.74.74,0,0,0-.18.06,9.68,9.68,0,0,1-2.7.62v.5a6.31,6.31,0,0,1,1.21.05.2.2,0,0,1,.13.12,4.24,4.24,0,0,1,.1,1.16c0,1,0,2,0,3v3.61c0,1.56,0,2.41,0,2.47"/><path class="cls-1" d="M41.13,145.2a3.58,3.58,0,0,1-.13.91.33.33,0,0,1-.18.17,3.67,3.67,0,0,1-1.2.13V147l2.28-.07,5.18.07a11.55,11.55,0,0,0,1.81-.12,25.64,25.64,0,0,1,.21-2.92h-.56c0,.26-.13.66-.25,1.19-.07.28-.15.52-.22.72a5.12,5.12,0,0,1-.88.23,13.75,13.75,0,0,1-1.57.06c-1,0-2,0-2.8-.1,0-.54-.06-1.36-.06-2.42s0-2,.06-2.57c.72,0,1.27-.06,1.66-.06a11.33,11.33,0,0,1,1.94.11.54.54,0,0,1,.39.21,2.29,2.29,0,0,1,.12.81l0,.58h.57l0-2,0-1.79v-.17H47l0,.61a2.09,2.09,0,0,1-.15.71.64.64,0,0,1-.35.15,17.63,17.63,0,0,1-1.77.08c-.58,0-1.2,0-1.87-.05l0-2.95c0-.55,0-1.17,0-1.81l1-.07.93,0a14.08,14.08,0,0,1,2,.12,3.92,3.92,0,0,1,1.06.26,10.27,10.27,0,0,1,.11,1.61h.56a16.4,16.4,0,0,1,.17-1.78,4.06,4.06,0,0,1,.18-.85,12,12,0,0,0-1.61-.1c-.57,0-1.48,0-2.74,0l-2.62,0-2.47,0v.55a5.65,5.65,0,0,1,1.24.1.66.66,0,0,1,.31.21,3,3,0,0,1,.13,1c0,.74,0,1.52,0,2.3v4.43c0,.55,0,1.22,0,2"/><path class="cls-1" d="M53.46,146.69a7.18,7.18,0,0,1-.8,0,2.19,2.19,0,0,1-.53-.14,1.74,1.74,0,0,1-.47-.31,1.16,1.16,0,0,1-.32-.47,4.47,4.47,0,0,1-.16-.57c0-.21,0-.47,0-.81h-.5c0,.77,0,1.24,0,1.49a4.72,4.72,0,0,1-.11.71c0,.08,0,.11,0,.15s0,.08,0,.08a2.25,2.25,0,0,0,.73.19,11.94,11.94,0,0,0,2,.24,3.71,3.71,0,0,0,2.58-.87,2.7,2.7,0,0,0,1-2,2,2,0,0,0-.24-1,1.64,1.64,0,0,0-.68-.61,7.42,7.42,0,0,0-1.49-.49l-1.44-.35a3.51,3.51,0,0,1-.62-.27.89.89,0,0,1-.36-.41,1,1,0,0,1-.14-.57,1.43,1.43,0,0,1,.46-1.06,1.7,1.7,0,0,1,1.22-.45,2.7,2.7,0,0,1,.92.14,2.33,2.33,0,0,1,.59.32,1.2,1.2,0,0,1,.49.68,6.29,6.29,0,0,1,.1.82h.49c0-.66.05-1.3.09-2a6.25,6.25,0,0,0-1.17-.37,7,7,0,0,0-1.27-.14,4.33,4.33,0,0,0-1.69.35,2.68,2.68,0,0,0-1.13,1,2.38,2.38,0,0,0-.35,1.25,2,2,0,0,0,.18.88,1.83,1.83,0,0,0,.44.65,2.39,2.39,0,0,0,.78.44c.2.07.69.2,1.42.37a6.92,6.92,0,0,1,1.41.42,1,1,0,0,1,.52.42,1.12,1.12,0,0,1,.18.64,1.56,1.56,0,0,1-.58,1.28,2.2,2.2,0,0,1-1.45.47"/><path class="cls-1" d="M61.83,140.08c.3,0,.64,0,1,0l.18-.81-.06-.08a2.77,2.77,0,0,1-.67.06l-.9,0h-.83c.09-1.66.15-2.72.23-3.21l-.23-.16a6.74,6.74,0,0,1-1.46.67v2.62a10.43,10.43,0,0,1-1.34.62v.36a9.16,9.16,0,0,1,1-.05h.36V144c0,.47-.05.89-.05,1.29a2.61,2.61,0,0,0,.2.9,1.64,1.64,0,0,0,.37.47,2,2,0,0,0,.5.3,2.34,2.34,0,0,0,.73.11,5.57,5.57,0,0,0,.65,0,3.07,3.07,0,0,0,.61-.16c.26-.24.52-.46.79-.67l-.11-.36a2.25,2.25,0,0,1-.54.15,3.11,3.11,0,0,1-.57,0,1.44,1.44,0,0,1-.66-.19.76.76,0,0,1-.32-.27.92.92,0,0,1-.15-.44,12,12,0,0,1,0-1.54l0-3.51c.55,0,1,0,1.28,0"/><path class="cls-1" d="M70.36,146.9c.36,0,.77,0,1.26.07v-.5l-.58-.05a1.08,1.08,0,0,1-.37-.07.38.38,0,0,1-.16-.19,2,2,0,0,1-.07-.59V143l0-1.59a3,3,0,0,0-.24-1.31,2.3,2.3,0,0,0-1-1.07,3.53,3.53,0,0,0-1.65-.36,4.06,4.06,0,0,0-1.21.17,8.22,8.22,0,0,0-1.81,1v1.12l.47.12a8.34,8.34,0,0,1,.34-.8l.15-.32a1,1,0,0,1,.48-.22,2.6,2.6,0,0,1,.89-.14,2.34,2.34,0,0,1,1.2.29,1.67,1.67,0,0,1,.71.76,2.62,2.62,0,0,1,.18,1.26,16.27,16.27,0,0,0-2.22.41,8.43,8.43,0,0,0-1.64.5,2.11,2.11,0,0,0-.58.43,2.7,2.7,0,0,0-.5.77,3.21,3.21,0,0,0-.2,1.1,1.93,1.93,0,0,0,.59,1.48,2.26,2.26,0,0,0,1.63.56,1.68,1.68,0,0,0,.83-.17,22.54,22.54,0,0,0,2.09-1.5L69,147c.56,0,1-.07,1.38-.07m-2.47-1.18a2.29,2.29,0,0,1-1.15.33,1.31,1.31,0,0,1-1-.36,1.38,1.38,0,0,1-.35-1,2,2,0,0,1,.22-.95,1.25,1.25,0,0,1,.36-.44,3.51,3.51,0,0,1,1.12-.5c.54-.14,1.17-.28,1.91-.41v2.33a4.2,4.2,0,0,1-1.11,1"/><path class="cls-1" d="M75.22,140.1c.54,0,1,0,1.27,0s.64,0,1,0l.17-.81,0-.08a2.85,2.85,0,0,1-.69.06l-.88,0h-.82c.07-1.66.14-2.72.22-3.21l-.22-.16a7.91,7.91,0,0,1-1.47.67v2.62a12.52,12.52,0,0,1-1.33.62v.36a8.63,8.63,0,0,1,1-.05h.36V144c0,.47,0,.89,0,1.29a2.4,2.4,0,0,0,.2.9,1.25,1.25,0,0,0,.37.47,1.66,1.66,0,0,0,.5.3,2.22,2.22,0,0,0,.72.11,5.39,5.39,0,0,0,.65,0,2.55,2.55,0,0,0,.61-.17l.78-.66-.09-.36a2.36,2.36,0,0,1-.56.15,3,3,0,0,1-.57,0,1.39,1.39,0,0,1-.65-.19.8.8,0,0,1-.31-.27,1.23,1.23,0,0,1-.17-.44,12.82,12.82,0,0,1,0-1.54Z"/><path class="cls-1" d="M84.56,142.68c.32,0,.69-.08,1.11-.16,0-.24,0-.42,0-.59a3.9,3.9,0,0,0-.36-1.71A2.89,2.89,0,0,0,84.2,139a3.55,3.55,0,0,0-1.75-.43,3.94,3.94,0,0,0-1.48.28,5.49,5.49,0,0,0-1,.58,3.36,3.36,0,0,0-.77.64,3.14,3.14,0,0,0-.63,1.17,5.62,5.62,0,0,0-.27,1.8,4.59,4.59,0,0,0,.52,2.23,3.35,3.35,0,0,0,1.43,1.41,4.6,4.6,0,0,0,2.07.47,4.32,4.32,0,0,0,1.1-.12,6.51,6.51,0,0,0,.94-.3c.17-.08.47-.26.87-.5l.28-.63-.14-.15a6.62,6.62,0,0,1-1.3.62,3.24,3.24,0,0,1-1,.19,3.32,3.32,0,0,1-1.5-.37,2.47,2.47,0,0,1-1.14-1.14,4.19,4.19,0,0,1-.44-2h2.79c.62,0,1.25,0,1.88-.06m-3.74-.57c-.46,0-.77,0-.93-.05a3.36,3.36,0,0,1,.61-2.22,2,2,0,0,1,1.59-.69,1.82,1.82,0,0,1,1.47.63,3,3,0,0,1,.57,2v.31c-.25,0-.76,0-1.54,0l-1.77,0"/><path class="cls-1" d="M105.42,136.35a1.67,1.67,0,0,1,.14-.84.67.67,0,0,1,.29-.2,7.62,7.62,0,0,1,1.27-.08v-.58c-.87,0-1.49,0-1.88,0s-.94,0-1.56,0c-.27.72-.8,1.92-1.62,3.6l-3,6.23-3.28-6.78c-.44-.88-.9-1.91-1.4-3-.52,0-1,0-1.61,0s-1.13,0-1.73,0v.58a7.13,7.13,0,0,1,1.24.08.57.57,0,0,1,.32.23,2.82,2.82,0,0,1,.13,1c0,.76,0,1.52,0,2.3v4c0,1.51,0,2.34,0,2.46a2.46,2.46,0,0,1-.13.83.6.6,0,0,1-.32.21,5.86,5.86,0,0,1-1.24.09V147l2.18-.07,2.09.07v-.56a6,6,0,0,1-1.25-.09.65.65,0,0,1-.32-.22,3.55,3.55,0,0,1-.13-1c0-.75-.05-1.52-.05-2.32v-6.07l4.13,8.61.6,1.26c0,.13.12.3.2.52h.33c.39-.94.69-1.62.87-2.06s.63-1.39,1.09-2.34l3-6.27v6.35c0,1.53,0,2.36,0,2.48a2.29,2.29,0,0,1-.12.83.58.58,0,0,1-.3.21,6.28,6.28,0,0,1-1.26.09V147c1.32,0,2.17-.07,2.57-.07s1.29,0,2.46.07v-.56a5.91,5.91,0,0,1-1.25-.09.74.74,0,0,1-.33-.22,2.72,2.72,0,0,1-.12-1c0-.75,0-1.52,0-2.3v-4c0-1.51,0-2.34,0-2.46"/><path class="cls-1" d="M114.73,146.9c.35,0,.78,0,1.25.07v-.5l-.57-.05a1,1,0,0,1-.36-.07.35.35,0,0,1-.17-.19,1.7,1.7,0,0,1-.07-.59V143l0-1.59a3.16,3.16,0,0,0-.22-1.31,2.38,2.38,0,0,0-1-1.07,3.5,3.5,0,0,0-1.67-.36,4,4,0,0,0-1.2.17,9.19,9.19,0,0,0-1.8,1v1.12l.45.12c.08-.19.21-.45.36-.8l.15-.32a1.26,1.26,0,0,1,.48-.22,2.72,2.72,0,0,1,.89-.14,2.41,2.41,0,0,1,1.21.29,1.7,1.7,0,0,1,.7.76,3.18,3.18,0,0,1,.2,1.26,16.26,16.26,0,0,0-2.24.41,8.2,8.2,0,0,0-1.64.5,2,2,0,0,0-.58.43,2.22,2.22,0,0,0-.49.77,3,3,0,0,0-.21,1.1,2,2,0,0,0,.58,1.48,2.28,2.28,0,0,0,1.64.56,1.75,1.75,0,0,0,.84-.17c.21-.11.92-.61,2.1-1.5l0,1.54c.58,0,1-.07,1.39-.07m-2.47-1.18a2.32,2.32,0,0,1-1.15.33,1.32,1.32,0,0,1-1-.36,1.38,1.38,0,0,1-.34-1,2,2,0,0,1,.22-.95,1.05,1.05,0,0,1,.35-.44,3.54,3.54,0,0,1,1.11-.5c.53-.14,1.19-.28,1.94-.41v2.33a4.41,4.41,0,0,1-1.13,1"/><path class="cls-1" d="M123.6,147c.76,0,1.28-.07,1.62-.07s.83,0,1.39.07v-.5l-.93,0a.52.52,0,0,1-.3-.13.72.72,0,0,1-.14-.36c0-.27,0-.79,0-1.54v-1.53a16.77,16.77,0,0,0-.08-2.17,2.2,2.2,0,0,0-1.36-1.81,3.34,3.34,0,0,0-1.34-.27,3.81,3.81,0,0,0-1.35.25l-1.61,1.38c0-.68,0-1.12,0-1.32a.47.47,0,0,0,0-.16.25.25,0,0,0,0-.12.13.13,0,0,0-.08,0,1.09,1.09,0,0,0-.25.07,9.07,9.07,0,0,1-2.53.64v.48a7,7,0,0,1,1.11,0,.33.33,0,0,1,.19.14,2,2,0,0,1,.09.62c0,.53,0,1,0,1.48v1c0,1.56,0,2.41,0,2.47a1.61,1.61,0,0,1-.12.63.42.42,0,0,1-.16.13.55.55,0,0,1-.28.07h-.83v.5c1.1,0,1.89-.07,2.38-.07s1.21,0,1.91.07v-.5l-1,0a.91.91,0,0,1-.23-.09l-.1-.14a1.58,1.58,0,0,1-.1-.63c0-.12,0-.94,0-2.43v-1a3.16,3.16,0,0,1,.23-1.37,2.12,2.12,0,0,1,.77-.7,2.41,2.41,0,0,1,1.19-.29,2.09,2.09,0,0,1,1.25.35,1.51,1.51,0,0,1,.68.93,9.87,9.87,0,0,1,.11,1.77v1.47c0,.36,0,1.27-.11,2.7"/><path class="cls-1" d="M133.93,146.9c.36,0,.77,0,1.25.07v-.5l-.56-.05a.7.7,0,0,1-.37-.08.29.29,0,0,1-.18-.18,2.41,2.41,0,0,1-.07-.59V143l0-1.59a3.17,3.17,0,0,0-.21-1.31,2.46,2.46,0,0,0-1-1.07,3.57,3.57,0,0,0-1.68-.36,4,4,0,0,0-1.2.17,9.19,9.19,0,0,0-1.8,1c0,.14,0,.32,0,.57s0,.42,0,.55l.46.12c.07-.19.19-.45.34-.8l.15-.32a1.26,1.26,0,0,1,.48-.22,2.74,2.74,0,0,1,.9-.14,2.43,2.43,0,0,1,1.21.29,1.65,1.65,0,0,1,.7.76,2.87,2.87,0,0,1,.19,1.26,16.54,16.54,0,0,0-2.24.41,8.51,8.51,0,0,0-1.63.5,1.85,1.85,0,0,0-.58.43,2.22,2.22,0,0,0-.49.77,2.8,2.8,0,0,0-.2,1.1,1.86,1.86,0,0,0,.59,1.48,2.2,2.2,0,0,0,1.62.56,1.77,1.77,0,0,0,.84-.17,24.14,24.14,0,0,0,2.09-1.5l0,1.54c.58,0,1-.07,1.39-.07m-2.48-1.18a2.29,2.29,0,0,1-1.15.33,1.26,1.26,0,0,1-1-.36,1.35,1.35,0,0,1-.37-1,1.94,1.94,0,0,1,.24-.95,1.22,1.22,0,0,1,.34-.44,3.62,3.62,0,0,1,1.12-.5c.53-.14,1.18-.28,1.93-.41v2.33a4.26,4.26,0,0,1-1.13,1"/><path class="cls-1" d="M145.28,139.48l-.07-.18q-.89,0-2.52,0a3.35,3.35,0,0,0-1-.57,3.51,3.51,0,0,0-1.12-.19,5.21,5.21,0,0,0-2,.43,3.26,3.26,0,0,0-1.52,1.14,2.94,2.94,0,0,0-.45,1.58,2.47,2.47,0,0,0,.24,1.1,2.06,2.06,0,0,0,.66.79,3.83,3.83,0,0,0,1.22.5c-.6.45-1.07.77-1.34,1a4.4,4.4,0,0,0-.27.95.64.64,0,0,0,.2.4,2.14,2.14,0,0,0,.91.45,7.21,7.21,0,0,1-1.51.84,2.28,2.28,0,0,0-.52,1.43,2.32,2.32,0,0,0,.4,1.31,2.73,2.73,0,0,0,1.24,1,5,5,0,0,0,2,.37,6.34,6.34,0,0,0,2.59-.52,4,4,0,0,0,1.74-1.46,3.47,3.47,0,0,0,.58-1.81,2.84,2.84,0,0,0-.24-1.19,1.6,1.6,0,0,0-.74-.78,3.43,3.43,0,0,0-1.48-.25l-1.87,0a5.8,5.8,0,0,1-1.37-.11.73.73,0,0,1-.39-.22.53.53,0,0,1-.12-.38.48.48,0,0,1,.1-.33,3,3,0,0,1,.7-.68,5.7,5.7,0,0,0,1.29-.1,3.74,3.74,0,0,0,1.4-.59,2.94,2.94,0,0,0,1-1.09,2.41,2.41,0,0,0,.34-1.26,2.69,2.69,0,0,0-.19-1h1.62c.08-.13.22-.36.44-.69m-6.59,7.79a.92.92,0,0,1,.37-.17c.21,0,.74,0,1.61,0s1.54,0,1.67,0a1.44,1.44,0,0,1,.57.27,1.54,1.54,0,0,1,.33.45,2.13,2.13,0,0,1,.17.84,2.59,2.59,0,0,1-.38,1.27,2.56,2.56,0,0,1-1.16,1,3.65,3.65,0,0,1-1.66.37,2.75,2.75,0,0,1-1.94-.63,2,2,0,0,1-.71-1.52,2.67,2.67,0,0,1,.18-1,1,1,0,0,1,.18-.35,8.29,8.29,0,0,1,.77-.55m2.67-4.14a2,2,0,0,1-1.33.48,1.79,1.79,0,0,1-1-.29,1.83,1.83,0,0,1-.68-.87,3.6,3.6,0,0,1-.23-1.2,2.11,2.11,0,0,1,.51-1.5,1.79,1.79,0,0,1,1.36-.55,1.76,1.76,0,0,1,1.39.66,2.45,2.45,0,0,1,.57,1.72,1.91,1.91,0,0,1-.57,1.55"/><path class="cls-1" d="M152.21,142.68c.33,0,.69-.08,1.11-.16,0-.24,0-.43,0-.59a3.77,3.77,0,0,0-.37-1.71,2.77,2.77,0,0,0-1.13-1.22,3.58,3.58,0,0,0-1.76-.43,4,4,0,0,0-1.48.28,5.56,5.56,0,0,0-1.06.58,3.6,3.6,0,0,0-.77.64,3.14,3.14,0,0,0-.62,1.17,5.36,5.36,0,0,0-.27,1.8,4.82,4.82,0,0,0,.5,2.23,3.51,3.51,0,0,0,1.45,1.41,4.57,4.57,0,0,0,2.07.47A4.42,4.42,0,0,0,151,147a6.13,6.13,0,0,0,.94-.3c.17-.08.47-.26.87-.5l.27-.63-.13-.15a6.66,6.66,0,0,1-1.31.62,3.22,3.22,0,0,1-1,.19,3.38,3.38,0,0,1-1.52-.37,2.64,2.64,0,0,1-1.15-1.14,4.61,4.61,0,0,1-.42-2h2.79c.62,0,1.24,0,1.88-.06m-3.75-.57-.92-.05a3.31,3.31,0,0,1,.61-2.22,2,2,0,0,1,1.58-.69,1.86,1.86,0,0,1,1.49.63,3.07,3.07,0,0,1,.55,2v.31c-.25,0-.75,0-1.53,0l-1.78,0"/><path class="cls-1" d="M166.37,144.58,166.3,147c.77,0,1.27-.07,1.52-.07s.76,0,1.48.07v-.5l-1,0a1.23,1.23,0,0,1-.22-.09l-.11-.14a2.1,2.1,0,0,1-.1-.63c0-.13,0-.54,0-1.24v-2.09a9.16,9.16,0,0,0-.12-1.91,2.34,2.34,0,0,0-.87-1.2,2.49,2.49,0,0,0-1.64-.51,3,3,0,0,0-1.47.35,3,3,0,0,0-.44.36l-1,.89a2.55,2.55,0,0,0-1-1.2,2.63,2.63,0,0,0-1.46-.4,3.07,3.07,0,0,0-.77.09,1.73,1.73,0,0,0-.58.21,1.61,1.61,0,0,0-.27.21l-1.12,1c0-.55,0-1,0-1.24v-.16a.25.25,0,0,0,0-.12s-.05,0-.09,0a1,1,0,0,0-.23.07,9.38,9.38,0,0,1-2.53.64v.48a7.14,7.14,0,0,1,1.11,0,.36.36,0,0,1,.19.14,2,2,0,0,1,.07.62c0,.53,0,1,0,1.48v1c0,1.56,0,2.41,0,2.47a1.69,1.69,0,0,1-.1.63.42.42,0,0,1-.16.13.58.58,0,0,1-.28.07h-.83v.5c1,0,1.74-.07,2.24-.07s1.24,0,2,.07v-.5l-1,0a.72.72,0,0,1-.21-.09.67.67,0,0,1-.11-.14,1.82,1.82,0,0,1-.1-.63c0-.12,0-.94,0-2.43v-.54a9.67,9.67,0,0,1,.08-1.41,1.56,1.56,0,0,1,.3-.7,1.9,1.9,0,0,1,.73-.55,2.22,2.22,0,0,1,1-.21,1.64,1.64,0,0,1,1.64,1.12,5.35,5.35,0,0,1,.17,1.62v.67c0,1.57,0,2.41,0,2.48a1.43,1.43,0,0,1-.12.62.28.28,0,0,1-.15.13.54.54,0,0,1-.29.07h-.84v.5c1.09,0,1.84-.07,2.26-.07s1.19,0,2,.07v-.5l-1,0-.21-.09a.67.67,0,0,1-.11-.14,2.1,2.1,0,0,1-.1-.63c0-.12,0-.53,0-1.23l0-1.2v-.57a7.43,7.43,0,0,1,.13-1.69,1.63,1.63,0,0,1,.58-.75,2.15,2.15,0,0,1,1.3-.4,1.78,1.78,0,0,1,1.1.32,1.45,1.45,0,0,1,.62.85,8,8,0,0,1,.15,2v.74Z"/><path class="cls-1" d="M176.36,142.68a11.14,11.14,0,0,0,1.12-.16,4.71,4.71,0,0,0,0-.59,3.77,3.77,0,0,0-.37-1.71A2.77,2.77,0,0,0,176,139a3.62,3.62,0,0,0-1.77-.43,3.89,3.89,0,0,0-1.47.28,5.49,5.49,0,0,0-1.05.58,3.54,3.54,0,0,0-.79.64,3.3,3.3,0,0,0-.61,1.17,5.62,5.62,0,0,0-.27,1.8,4.59,4.59,0,0,0,.51,2.23,3.4,3.4,0,0,0,1.45,1.41,4.54,4.54,0,0,0,2.07.47,4.47,4.47,0,0,0,1.1-.12,6.36,6.36,0,0,0,.93-.3c.17-.08.47-.26.87-.5l.28-.63-.15-.15a5.91,5.91,0,0,1-1.3.62,3.19,3.19,0,0,1-1,.19,3.4,3.4,0,0,1-1.51-.37,2.65,2.65,0,0,1-1.13-1.14,4.47,4.47,0,0,1-.43-2h2.79c.62,0,1.24,0,1.87-.06m-3.74-.57-.92-.05a3.42,3.42,0,0,1,.6-2.22,2,2,0,0,1,1.59-.69,1.91,1.91,0,0,1,1.5.63,3.18,3.18,0,0,1,.55,2c0,.06,0,.17,0,.31-.24,0-.74,0-1.52,0l-1.79,0"/><path class="cls-1" d="M185.32,147c.76,0,1.28-.07,1.61-.07s.85,0,1.41.07v-.5l-1,0a.52.52,0,0,1-.28-.13A.64.64,0,0,1,187,146c0-.27,0-.79,0-1.54v-1.53a17.65,17.65,0,0,0-.07-2.17,2.23,2.23,0,0,0-.41-1.08,2.36,2.36,0,0,0-.95-.73,3.29,3.29,0,0,0-1.33-.27,3.72,3.72,0,0,0-1.34.25l-1.62,1.38c0-.68,0-1.12,0-1.32v-.16a.24.24,0,0,0,0-.12s-.05,0-.09,0a1,1,0,0,0-.23.07,9.27,9.27,0,0,1-2.53.64v.48a6.78,6.78,0,0,1,1.1,0,.32.32,0,0,1,.2.14,2.43,2.43,0,0,1,.09.62c0,.53,0,1,0,1.48v1c0,1.56,0,2.41,0,2.47a1.57,1.57,0,0,1-.13.63.27.27,0,0,1-.16.13.52.52,0,0,1-.28.07h-.82v.5c1.09,0,1.87-.07,2.37-.07s1.2,0,1.91.07v-.5l-1,0a1.1,1.1,0,0,1-.23-.09.94.94,0,0,1-.1-.14,2,2,0,0,1-.11-.63c0-.12,0-.94,0-2.43v-1a2.88,2.88,0,0,1,.23-1.37,2,2,0,0,1,.76-.7,2.38,2.38,0,0,1,1.19-.29,2.13,2.13,0,0,1,1.26.35,1.5,1.5,0,0,1,.67.93,9,9,0,0,1,.11,1.77v1.47c0,.36,0,1.27-.11,2.7"/><path class="cls-1" d="M191.62,140.1c.56,0,1,0,1.29,0s.63,0,1,0l.2-.81-.07-.08a2.83,2.83,0,0,1-.67.06l-.9,0h-.84c.09-1.66.16-2.72.23-3.21l-.21-.16a6.41,6.41,0,0,1-1.47.65v2.64a10.43,10.43,0,0,1-1.34.62v.36a9.09,9.09,0,0,1,1-.05h.35v3.57a1.62,1.62,0,0,1,0,.32c0,.47,0,.89,0,1.29a2.61,2.61,0,0,0,.2.9,1.36,1.36,0,0,0,.37.47,2.14,2.14,0,0,0,.5.3,2.34,2.34,0,0,0,.73.11,3,3,0,0,0,.65-.07,1.81,1.81,0,0,0,.61-.15c.26-.23.52-.45.79-.66l-.11-.36a2.13,2.13,0,0,1-.54.15,3.11,3.11,0,0,1-.57,0,1.4,1.4,0,0,1-.66-.19.74.74,0,0,1-.31-.27,1.23,1.23,0,0,1-.17-.44c0-.16,0-.68,0-1.54Z"/><path class="cls-1" d="M195.67,145.22a12.44,12.44,0,0,1-.2,1.29,8.56,8.56,0,0,1-.43,1.19c-.2.41-.49,1-.92,1.7l.23.21.72-.33a17.61,17.61,0,0,0,2.61-4.33l-.22-.24-.85.28Z"/><path class="cls-1" d="M208.83,146.07a3.38,3.38,0,0,1-1.62.4,3.62,3.62,0,0,1-1.23-.21,3.43,3.43,0,0,1-1-.46,1.35,1.35,0,0,1-.48-.48,6.34,6.34,0,0,1-.14-1.49h-.57a21.07,21.07,0,0,1-.17,2.7,7.2,7.2,0,0,0,3.11.68,5.29,5.29,0,0,0,3.69-1.3,3.93,3.93,0,0,0,1.42-3,3,3,0,0,0-.25-1.28,2.41,2.41,0,0,0-.64-.87,3.29,3.29,0,0,0-1.19-.58c-.58-.11-1.22-.22-1.94-.32a11.24,11.24,0,0,1-1.55-.28A1.63,1.63,0,0,1,205,137.8a2.64,2.64,0,0,1,.76-2,2.72,2.72,0,0,1,2-.78,3.75,3.75,0,0,1,1.87.52,2.05,2.05,0,0,1,.58.55,8.54,8.54,0,0,1,.09,1.45h.57a13.31,13.31,0,0,1,.08-1.38,5.89,5.89,0,0,1,.15-1,6.69,6.69,0,0,0-1.63-.57,6.27,6.27,0,0,0-1.61-.2,5.08,5.08,0,0,0-2.25.51,3.39,3.39,0,0,0-1.57,1.39,3.65,3.65,0,0,0-.53,1.91,3,3,0,0,0,.27,1.31,2.62,2.62,0,0,0,.67,1,4,4,0,0,0,1.33.65c.45.08,1,.19,1.63.27s1.06.14,1.27.18a2,2,0,0,1,.86.34,1.77,1.77,0,0,1,.52.68,2.84,2.84,0,0,1,.15,1,3,3,0,0,1-.33,1.4,2.63,2.63,0,0,1-1.06,1.06"/><path class="cls-1" d="M219.63,146.9c.35,0,.76,0,1.24.07v-.5l-.57-.05a.77.77,0,0,1-.37-.08.36.36,0,0,1-.16-.18,1.76,1.76,0,0,1-.06-.59V143l0-1.59a3,3,0,0,0-.23-1.31,2.32,2.32,0,0,0-1-1.07,3.43,3.43,0,0,0-1.66-.36,4.09,4.09,0,0,0-1.2.17,8.63,8.63,0,0,0-1.79,1v1.12l.44.12c.09-.19.21-.45.36-.8l.15-.32a1.06,1.06,0,0,1,.46-.22,2.87,2.87,0,0,1,.92-.14,2.29,2.29,0,0,1,1.18.29,1.57,1.57,0,0,1,.71.76,2.84,2.84,0,0,1,.21,1.26,16,16,0,0,0-2.24.41,8.43,8.43,0,0,0-1.64.5,1.82,1.82,0,0,0-.57.43,2.1,2.1,0,0,0-.5.77,2.8,2.8,0,0,0-.21,1.1,1.93,1.93,0,0,0,.59,1.48,2.26,2.26,0,0,0,1.63.56,1.72,1.72,0,0,0,.84-.17,25.23,25.23,0,0,0,2.1-1.5l0,1.54c.57,0,1-.07,1.39-.07m-2.49-1.18a2.21,2.21,0,0,1-1.15.33,1.31,1.31,0,0,1-1-.36,1.43,1.43,0,0,1-.35-1,1.94,1.94,0,0,1,.23-.95,1.22,1.22,0,0,1,.34-.44,3.59,3.59,0,0,1,1.13-.5c.53-.14,1.17-.28,1.93-.41v2.33a4.61,4.61,0,0,1-1.14,1"/><path class="cls-1" d="M223.13,145.63a1.29,1.29,0,0,1-.13.63.3.3,0,0,1-.14.13.68.68,0,0,1-.31.07h-.81v.5c.92,0,1.66-.07,2.22-.07s1.27,0,2.06.07v-.5l-1,0a.63.63,0,0,1-.2-.09.47.47,0,0,1-.12-.14,1.61,1.61,0,0,1-.1-.63c0-.13,0-.94,0-2.43v-4.49l0-1.36c0-.74,0-1.62.06-2.65v-.28a.66.66,0,0,0,0-.17.23.23,0,0,0,0-.11.18.18,0,0,0-.11,0,.7.7,0,0,0-.17.06,10.16,10.16,0,0,1-2.7.62v.5a6.31,6.31,0,0,1,1.2.05.4.4,0,0,1,.15.12,8.29,8.29,0,0,1,.09,1.16c0,1,0,2,0,3v3.61c0,1.56,0,2.41,0,2.47"/><path class="cls-1" d="M233.19,142.68c.33,0,.7-.08,1.12-.16,0-.24.05-.43.05-.59a3.91,3.91,0,0,0-.38-1.71,2.59,2.59,0,0,0-1.14-1.22,3.56,3.56,0,0,0-1.76-.43,4.1,4.1,0,0,0-1.48.28,5.42,5.42,0,0,0-1,.58,3.16,3.16,0,0,0-.77.64,2.88,2.88,0,0,0-.63,1.17,5.36,5.36,0,0,0-.27,1.8,4.59,4.59,0,0,0,.51,2.23,3.35,3.35,0,0,0,1.45,1.41A4.86,4.86,0,0,0,232,147a5.33,5.33,0,0,0,.93-.31,7,7,0,0,0,.88-.49l.27-.63-.13-.15a6.17,6.17,0,0,1-1.31.62,3.19,3.19,0,0,1-1.05.19,3.37,3.37,0,0,1-1.51-.37,2.59,2.59,0,0,1-1.13-1.14,4.47,4.47,0,0,1-.43-2h2.78c.63,0,1.25,0,1.88-.06m-3.74-.57-.92-.05a3.42,3.42,0,0,1,.6-2.22,2,2,0,0,1,1.58-.69,1.89,1.89,0,0,1,1.5.63,3.06,3.06,0,0,1,.56,2c0,.06,0,.17,0,.31-.26,0-.75,0-1.53,0l-1.78,0"/><path class="cls-1" d="M238.56,146.69a7,7,0,0,1-.8,0,1.88,1.88,0,0,1-.53-.14,1.74,1.74,0,0,1-.47-.31,1.18,1.18,0,0,1-.33-.47,4.84,4.84,0,0,1-.15-.57c0-.21,0-.47,0-.81h-.51c0,.77,0,1.24,0,1.49s-.05.47-.09.71c0,.08,0,.11,0,.15a.1.1,0,0,0,0,.08,2.38,2.38,0,0,0,.75.19,11.63,11.63,0,0,0,2,.24,3.7,3.7,0,0,0,2.58-.87,2.7,2.7,0,0,0,1-2,1.87,1.87,0,0,0-.25-1,1.49,1.49,0,0,0-.66-.61,8,8,0,0,0-1.51-.49l-1.42-.36a4,4,0,0,1-.65-.26,1.2,1.2,0,0,1-.36-.41,1.34,1.34,0,0,1-.12-.57,1.41,1.41,0,0,1,.47-1.06,1.65,1.65,0,0,1,1.21-.45,2.64,2.64,0,0,1,.91.14,2.46,2.46,0,0,1,.61.31,1,1,0,0,1,.32.34,1.43,1.43,0,0,1,.17.35,7,7,0,0,1,.09.82h.5c0-.66,0-1.3.07-2a5.89,5.89,0,0,0-1.16-.37,7,7,0,0,0-1.28-.14,4.28,4.28,0,0,0-1.68.35,2.53,2.53,0,0,0-1.12,1,2.22,2.22,0,0,0-.36,1.25,2.34,2.34,0,0,0,.17.88,2.16,2.16,0,0,0,.45.65,2.33,2.33,0,0,0,.77.44c.21.07.69.2,1.43.37a7.57,7.57,0,0,1,1.42.42,1,1,0,0,1,.52.42,1.3,1.3,0,0,1,.18.64,1.55,1.55,0,0,1-.57,1.28,2.27,2.27,0,0,1-1.47.47"/><path class="cls-1" d="M248.38,141.64a3.35,3.35,0,0,0-.69,2.12,3.84,3.84,0,0,0,.41,1.67,3,3,0,0,0,1.23,1.3,3.65,3.65,0,0,0,2,.49,4.87,4.87,0,0,0,1.71-.28,7.56,7.56,0,0,0,1.87-1.07,6.79,6.79,0,0,0,1.89,1.12,3.14,3.14,0,0,0,1.31.23,2.23,2.23,0,0,0,.62-.07c.38-.3.64-.5.75-.6l.75-.56-.11-.44a3.42,3.42,0,0,1-.6.31,1.24,1.24,0,0,1-.41,0,5.31,5.31,0,0,1-3.1-1.13,7,7,0,0,0,1.12-1.51,3.72,3.72,0,0,0,.33-1.5,2.87,2.87,0,0,0-.1-.75,10.46,10.46,0,0,1,2.46.17A10.43,10.43,0,0,1,260,140c-.75,0-1.28,0-1.56,0l-2.14,0a14.18,14.18,0,0,1-1.42-.06l-.56.83.09.1a9.77,9.77,0,0,1,1.37.07.49.49,0,0,1,.37.27,2.09,2.09,0,0,1,.19,1,3.1,3.1,0,0,1-.89,2.11,14.68,14.68,0,0,1-1.94-2,16.16,16.16,0,0,1-1.67-2.49,7,7,0,0,0,2-1.82,3.13,3.13,0,0,0,.58-1.71,1.65,1.65,0,0,0-.41-1.2,1.59,1.59,0,0,0-1.18-.44,1.65,1.65,0,0,0-.8.18,4,4,0,0,0-.77.53c-.54.47-.83.74-.91.81a1.9,1.9,0,0,0-.22.47,2.17,2.17,0,0,0-.21,1,5.89,5.89,0,0,0,.51,2.29,6,6,0,0,0-2,1.67m2.89-5.37a.92.92,0,0,1,.42-.49,1.38,1.38,0,0,1,.58-.14.88.88,0,0,1,.65.31,1.2,1.2,0,0,1,.29.84,2.41,2.41,0,0,1-.41,1.24,4.49,4.49,0,0,1-1.23,1.23,6.83,6.83,0,0,1-.45-2.1,2.26,2.26,0,0,1,.15-.89m-1.7,5.53a3.76,3.76,0,0,1,1.12-1.15c.36.63.7,1.18,1,1.64s.67.92,1,1.38.82.92,1.59,1.75a3.64,3.64,0,0,1-2.16.77,2.83,2.83,0,0,1-1.46-.39,3,3,0,0,1-1.09-1.15,3.1,3.1,0,0,1-.41-1.49,2.46,2.46,0,0,1,.35-1.36"/><path class="cls-1" d="M266.83,144.41a16,16,0,0,1-.08,1.64c-.21.15-.49.31-.82.5V147c.88-.05,1.5-.07,1.84-.07l1.55,0c.61,0,1.07,0,1.43,0a9,9,0,0,0,2.49-.27,6.51,6.51,0,0,0,4.46-4.13,7.16,7.16,0,0,0,.42-2.47,5.24,5.24,0,0,0-.9-3.11,5.07,5.07,0,0,0-2.19-1.82,9,9,0,0,0-3.42-.54c-.47,0-1.12,0-2,0s-1.52,0-2,0-1.39,0-2.23,0v.55a4,4,0,0,1,1.19.13.33.33,0,0,1,.18.17,3,3,0,0,1,.13.89c0,.77,0,1.42,0,2v3.55c0,.46,0,1.28-.06,2.48m1.7-6.14,0-1.28c0-.72,0-1.24.05-1.5a16,16,0,0,1,2.15-.15,7.09,7.09,0,0,1,3.2.61,4.05,4.05,0,0,1,1.72,1.78,6.15,6.15,0,0,1,.57,2.79,8,8,0,0,1-.29,2.18,4.72,4.72,0,0,1-.85,1.74,4.44,4.44,0,0,1-1.15,1,5.13,5.13,0,0,1-1.42.53,8.48,8.48,0,0,1-1.93.2,13,13,0,0,1-2-.14c0-.65-.05-1.18-.05-1.58l0-2.72Z"/><path class="cls-1" d="M285.6,142.68c.34,0,.7-.08,1.13-.16,0-.24,0-.43,0-.59a4,4,0,0,0-.36-1.71,2.66,2.66,0,0,0-1.15-1.22,3.6,3.6,0,0,0-1.75-.43,3.7,3.7,0,0,0-1.49.28,5.19,5.19,0,0,0-1,.58,3.54,3.54,0,0,0-.79.64,3.29,3.29,0,0,0-.62,1.17,5.63,5.63,0,0,0-.26,1.8,4.59,4.59,0,0,0,.51,2.23,3.4,3.4,0,0,0,1.45,1.41,4.89,4.89,0,0,0,3.17.35,5.51,5.51,0,0,0,.92-.31,7.82,7.82,0,0,0,.88-.49l.26-.63-.13-.15a6.09,6.09,0,0,1-1.29.62,3.18,3.18,0,0,1-2.57-.18,2.62,2.62,0,0,1-1.14-1.14,4.61,4.61,0,0,1-.43-2h2.79c.62,0,1.25,0,1.87-.06m-3.73-.57-.93-.05a3.48,3.48,0,0,1,.61-2.22,2,2,0,0,1,1.59-.69,1.86,1.86,0,0,1,1.48.62,3.11,3.11,0,0,1,.56,2v.31c-.26,0-.77,0-1.52,0l-1.79,0"/><path class="cls-1" d="M291.71,139.32v-.5c-.84,0-1.51.07-2,.07s-1.15,0-2.09-.07v.5a2.73,2.73,0,0,1,.63.06.43.43,0,0,1,.27.15,2.67,2.67,0,0,1,.31.54l1.76,4.12.71,1.67.48,1.17h.9c.85-2,1.35-3.19,1.49-3.52l.84-1.78c.54-1.1.85-1.74.93-1.87a.87.87,0,0,1,.35-.41,1.54,1.54,0,0,1,.7-.13v-.5l-1.64.07c-.24,0-.8,0-1.65-.07v.5a3,3,0,0,1,1.11.15.21.21,0,0,1,.11.21,1,1,0,0,1,0,.26,14.77,14.77,0,0,1-.55,1.57c-.47,1.18-.72,1.83-.79,2l-.86,2c-.11-.23-.31-.7-.58-1.38l-.26-.59-1.06-2.64a3.8,3.8,0,0,1-.35-1.13.34.34,0,0,1,.16-.26,4.23,4.23,0,0,1,1.11-.11"/><path class="cls-1" d="M304.13,142.68a11.14,11.14,0,0,0,1.12-.16c0-.24,0-.43,0-.59a4,4,0,0,0-.36-1.71,2.74,2.74,0,0,0-1.14-1.22,3.65,3.65,0,0,0-1.77-.43,3.6,3.6,0,0,0-1.47.28,4.76,4.76,0,0,0-1.05.58,3.7,3.7,0,0,0-.78.64,3,3,0,0,0-.63,1.17,5.62,5.62,0,0,0-.27,1.8,4.71,4.71,0,0,0,.52,2.23,3.4,3.4,0,0,0,1.45,1.41,4.46,4.46,0,0,0,2.06.47A4.55,4.55,0,0,0,303,147a5,5,0,0,0,.92-.31,5.85,5.85,0,0,0,.87-.49l.28-.63-.14-.15a6.83,6.83,0,0,1-1.28.62,3.2,3.2,0,0,1-2.58-.18,2.7,2.7,0,0,1-1.13-1.14,4.22,4.22,0,0,1-.43-2h2.79c.61,0,1.24,0,1.87-.06m-3.73-.57-.93-.05a3.42,3.42,0,0,1,.6-2.22,2,2,0,0,1,1.59-.69,1.88,1.88,0,0,1,1.49.62,3.17,3.17,0,0,1,.55,2v.31c-.25,0-.74,0-1.54,0l-1.76,0"/><path class="cls-1" d="M307.73,145.63a1.44,1.44,0,0,1-.12.63.32.32,0,0,1-.15.13.58.58,0,0,1-.3.07h-.82v.5c.93-.05,1.66-.07,2.22-.07s1.28,0,2.05.07v-.5l-1,0-.21-.09a.94.94,0,0,1-.1-.14,1.66,1.66,0,0,1-.11-.63c0-.13,0-.94-.05-2.43v-4.51l0-1.34c0-.74,0-1.62.05-2.65l0-.28v-.17c0-.06,0-.09,0-.11a.12.12,0,0,0-.1,0,.46.46,0,0,0-.16.06,10.37,10.37,0,0,1-2.7.62v.5a6.31,6.31,0,0,1,1.2.05.22.22,0,0,1,.13.12,7.48,7.48,0,0,1,.1,1.16c0,1,0,2,0,3v3.61c0,1.56,0,2.41,0,2.47"/><path class="cls-1" d="M312.05,145a3.75,3.75,0,0,0,.65,1.06,3.23,3.23,0,0,0,1.15.85,3.52,3.52,0,0,0,1.68.34,5,5,0,0,0,2.36-.59,4,4,0,0,0,1.66-1.66,4.41,4.41,0,0,0,.58-2.31,3.91,3.91,0,0,0-4.09-4.11,4.21,4.21,0,0,0-4.39,4.4,4.86,4.86,0,0,0,.4,2m1.89-5.07a2.18,2.18,0,0,1,1.73-.77,2.55,2.55,0,0,1,1.39.4,3.13,3.13,0,0,1,1,1.43,6.55,6.55,0,0,1,.4,2.38,3.66,3.66,0,0,1-.69,2.47,2.1,2.1,0,0,1-1.67.8,2.3,2.3,0,0,1-1.44-.51,3,3,0,0,1-1-1.62,7,7,0,0,1-.36-2.17,3.71,3.71,0,0,1,.65-2.41"/><path class="cls-1" d="M322.36,140a.33.33,0,0,1,.13.21,15.43,15.43,0,0,1,.06,1.72c0,1.05,0,2.07,0,3.08V148c0,1.57,0,2.41-.06,2.47a1.39,1.39,0,0,1-.11.63.3.3,0,0,1-.15.12.47.47,0,0,1-.28.07l-.83,0v.49c.35,0,.85-.06,1.51-.06,1.18,0,2.13,0,2.84.06v-.49l-1,0a.67.67,0,0,1-.2-.08.57.57,0,0,1-.12-.15,1.92,1.92,0,0,1-.1-.63c0-.15,0-1,0-2.41v-1.38a5.56,5.56,0,0,0,.92.36,3.2,3.2,0,0,0,.86.1,3.53,3.53,0,0,0,1-.15,7.5,7.5,0,0,0,.82-.37,6.36,6.36,0,0,0,1.07-.7c.36-.28.56-.45.64-.53a2.66,2.66,0,0,0,.45-.54,5.85,5.85,0,0,0,.44-.78,5.25,5.25,0,0,0,.32-.92,4.27,4.27,0,0,0,.13-1,4,4,0,0,0-.37-1.69,2.91,2.91,0,0,0-1.15-1.29,3.63,3.63,0,0,0-1.92-.48,3.51,3.51,0,0,0-1.42.22,11.12,11.12,0,0,0-1.83,1.53v-.91a2.32,2.32,0,0,1,0-.45v-.21a.24.24,0,0,0,0-.15s-.06,0-.12,0a.27.27,0,0,0-.14,0,4.25,4.25,0,0,1-.93.35c-.41.11-.78.19-1.1.25a5.46,5.46,0,0,1-.67.07v.49l1.08,0a.3.3,0,0,1,.23.09m1.65,1.87a2.78,2.78,0,0,1,0-.62,2,2,0,0,1,.53-.73,3.45,3.45,0,0,1,.87-.55,2.42,2.42,0,0,1,1-.2,3,3,0,0,1,1.34.35,2.52,2.52,0,0,1,1,1,3.44,3.44,0,0,1,.35,1.63,4.29,4.29,0,0,1-.36,1.8,2.59,2.59,0,0,1-2.47,1.6,3.28,3.28,0,0,1-1.25-.25,3.13,3.13,0,0,1-1.05-.74Z"/><path class="cls-1" d="M336.05,147v-.5l-1,0a.54.54,0,0,1-.2-.09.34.34,0,0,1-.11-.14,1.62,1.62,0,0,1-.11-.63c0-.12,0-.94-.05-2.43v-.54a8.25,8.25,0,0,1,.1-1.41,1.44,1.44,0,0,1,.29-.7,1.9,1.9,0,0,1,.73-.55,2.22,2.22,0,0,1,1-.23,1.78,1.78,0,0,1,1,.31,1.58,1.58,0,0,1,.6.83,5.54,5.54,0,0,1,.19,1.62v.67c0,1.57-.05,2.41-.05,2.48a1.27,1.27,0,0,1-.13.62.22.22,0,0,1-.15.13.52.52,0,0,1-.28.07h-.83v.5c1.09-.05,1.84-.07,2.25-.07s1.18,0,2,.07v-.5l-1,0a.87.87,0,0,1-.21-.09c-.05-.05-.09-.09-.09-.14a2,2,0,0,1-.13-.63c0-.12,0-.53,0-1.23l0-1.2v-.57a6.14,6.14,0,0,1,.15-1.69,1.58,1.58,0,0,1,.56-.75,2.21,2.21,0,0,1,1.3-.42,1.8,1.8,0,0,1,1.1.34,1.52,1.52,0,0,1,.63.85,9.21,9.21,0,0,1,.15,2v.74l0,.94-.08,2.39c.77-.05,1.28-.07,1.53-.07s.77,0,1.48.07v-.5l-.95,0-.22-.09a.28.28,0,0,1-.1-.14,1.65,1.65,0,0,1-.1-.63c0-.13,0-.54,0-1.24v-2.09a8.91,8.91,0,0,0-.13-1.91,2.34,2.34,0,0,0-.87-1.2,2.48,2.48,0,0,0-1.64-.51,3,3,0,0,0-1.47.35,2.23,2.23,0,0,0-.43.36l-1,.89a2.48,2.48,0,0,0-1-1.2,3,3,0,0,0-2.23-.31,2,2,0,0,0-.57.21,2.69,2.69,0,0,0-.26.21l-1.14,1c0-.55,0-1,.05-1.24v-.16s0-.08,0-.12a.17.17,0,0,0-.12,0,.5.5,0,0,0-.22.07,9,9,0,0,1-2.52.63v.49a7.33,7.33,0,0,1,1.11,0,.34.34,0,0,1,.18.14,2.17,2.17,0,0,1,.08.62c0,.52,0,1,0,1.48v1c0,1.56,0,2.41,0,2.47a1.65,1.65,0,0,1-.11.63.87.87,0,0,1-.15.13.66.66,0,0,1-.3.07h-.81v.5c1-.05,1.73-.07,2.24-.07s1.23,0,2,.07"/><path class="cls-1" d="M349.45,146.68a4.57,4.57,0,0,0,2.07.47,4.5,4.5,0,0,0,1.11-.12,5,5,0,0,0,.92-.31,7.09,7.09,0,0,0,.87-.49l.29-.63-.13-.15a6.44,6.44,0,0,1-1.32.62,3.2,3.2,0,0,1-1.06.19,3.24,3.24,0,0,1-1.48-.37,2.66,2.66,0,0,1-1.16-1.14,4.75,4.75,0,0,1-.43-2h2.8c.62,0,1.24,0,1.87-.07a8.93,8.93,0,0,0,1.12-.15c0-.24.05-.43.05-.59a3.74,3.74,0,0,0-.38-1.71,2.52,2.52,0,0,0-1.13-1.22,3.92,3.92,0,0,0-3.24-.15,4.93,4.93,0,0,0-1,.58,3.13,3.13,0,0,0-.79.64,3.29,3.29,0,0,0-.62,1.17,5.36,5.36,0,0,0-.27,1.8,4.7,4.7,0,0,0,.51,2.23,3.43,3.43,0,0,0,1.44,1.41m.32-6.84a1.93,1.93,0,0,1,1.58-.69,1.87,1.87,0,0,1,1.48.63,3,3,0,0,1,.55,2c0,.06,0,.17,0,.3a14.14,14.14,0,0,1-1.52.06c-.33,0-.92,0-1.79-.06l-.93,0a3.36,3.36,0,0,1,.64-2.22"/><path class="cls-1" d="M360.08,147v-.5l-1,0a.81.81,0,0,1-.22-.09,1.58,1.58,0,0,1-.12-.15,2.09,2.09,0,0,1-.09-.62c0-.12,0-.94,0-2.43V142.1a2.86,2.86,0,0,1,.23-1.36,2.08,2.08,0,0,1,.78-.7,2.33,2.33,0,0,1,1.18-.31,2.17,2.17,0,0,1,1.25.37,1.51,1.51,0,0,1,.68.93,9.87,9.87,0,0,1,.11,1.77v1.47c0,.36,0,1.27-.11,2.7.74-.05,1.28-.07,1.6-.07s.84,0,1.41.07v-.5l-.95,0a.6.6,0,0,1-.29-.13,1,1,0,0,1-.13-.36c0-.27,0-.79,0-1.54v-1.53a18.64,18.64,0,0,0-.06-2.17,2.33,2.33,0,0,0-.42-1.08,2.52,2.52,0,0,0-.94-.73,3.36,3.36,0,0,0-1.33-.27,3.69,3.69,0,0,0-1.35.25l-1.62,1.38c0-.68,0-1.12,0-1.32v-.16a.17.17,0,0,0,0-.12s0,0-.09,0a.55.55,0,0,0-.24.07,8.79,8.79,0,0,1-2.52.63v.49a7.14,7.14,0,0,1,1.11,0,.45.45,0,0,1,.2.14,3.39,3.39,0,0,1,.08.62c0,.52,0,1,0,1.47v1.06c0,1.56,0,2.4,0,2.47a2.48,2.48,0,0,1-.12.63.35.35,0,0,1-.16.13.58.58,0,0,1-.28.07h-.83v.5c1.1-.05,1.89-.07,2.38-.07s1.19,0,1.9.07"/><path class="cls-1" d="M367.61,140.14V144c0,.47,0,.89,0,1.29a2.49,2.49,0,0,0,.2.89,1.29,1.29,0,0,0,.37.48,2.67,2.67,0,0,0,.49.3,2.39,2.39,0,0,0,.73.11A3.08,3.08,0,0,0,370,147a2.12,2.12,0,0,0,.62-.14,10.27,10.27,0,0,1,.78-.68l-.1-.34a2.83,2.83,0,0,1-.56.14,2.86,2.86,0,0,1-.56,0,1.51,1.51,0,0,1-.66-.18.68.68,0,0,1-.3-.28,1.08,1.08,0,0,1-.18-.44,14.34,14.34,0,0,1,0-1.54l.05-3.51c.52,0,.95,0,1.27,0s.63,0,1,0l.17-.82,0-.07a2.86,2.86,0,0,1-.68.06l-.88,0h-.83c.08-1.65.15-2.71.21-3.2l-.21-.16a7.06,7.06,0,0,1-1.47.65v2.64a12.52,12.52,0,0,1-1.33.62v.36a8.8,8.8,0,0,1,1-.05Z"/></g></g></svg>