<svg xmlns="http://www.w3.org/2000/svg" viewBox="0 0 1920 30.629">
  <defs>
    <style>
      .cls-1 {
        fill: #194d33;
      }
    </style>
  </defs>
  <path id="Path_60" data-name="Path 60" class="cls-1" d="M1920,24.914a158.239,158.239,0,0,1-26.743,5.714h-5.714c13.029-8.914,18.286-18.743,18.286-18.743-10.743,8.914-23.771,14.4-36.114,17.829,12.114-8.686,17.143-17.829,17.143-17.829-11.428,9.371-25.371,15.086-38.4,18.286C1871.314,18.057,1879.086,0,1879.086,0c-18.286,18.743-45.257,26.286-62.4,29.257C1838.172,17.143,1845.486,0,1845.486,0c-21.486,22.171-55.543,28.571-70.4,30.629H1764.8c9.371-7.314,13.486-14.171,13.486-14.171a89.188,89.188,0,0,1-28.343,14.171h-1.371C1771.886,18.286,1779.657,0,1779.657,0c-16.686,17.143-40.686,24.914-57.6,28.343C1742.4,16.229,1749.257,0,1749.257,0c-14.4,14.857-34.286,22.629-50.286,26.743C1717.029,14.857,1723.2,0,1723.2,0c-21.486,22.171-55.543,28.571-70.4,30.629h-1.143C1674.971,18.286,1682.743,0,1682.743,0c-13.943,14.4-33.371,22.171-49.143,26.286C1651.429,14.629,1657.6,0,1657.6,0c-21.486,22.171-55.543,28.571-70.4,30.629h-19.428C1591.086,18.286,1598.857,0,1598.857,0c-10.971,11.2-40,25.829-53.029,30.629C1563.2,20.8,1570.286,8,1570.286,8c-19.429,16.229-46.171,21.257-63.543,22.629h-1.371C1522.286,19.657,1528.686,6.4,1528.686,6.4c-14.629,13.714-34.057,20.8-50.286,24.229h-2.971C1492.343,19.657,1498.743,6.4,1498.743,6.4c-14.629,13.714-34.057,20.8-50.286,24.229h-7.543c9.371-7.314,13.486-14.171,13.486-14.171a89.188,89.188,0,0,1-28.343,14.171h-4.343C1445.257,18.286,1452.8,0,1452.8,0c-21.486,22.171-55.543,28.571-70.4,30.629h-2.514C1403.2,18.286,1410.971,0,1410.971,0c-21.486,22.171-55.543,28.571-70.4,30.629h-5.714c13.029-8.914,18.286-18.743,18.286-18.743-10.743,8.914-23.771,14.4-36.114,17.829,12.114-8.686,17.143-17.829,17.143-17.829-11.429,9.371-25.371,15.086-38.4,18.286C1318.629,18.057,1326.172,0,1326.172,0c-18.286,18.743-45.257,26.286-62.4,29.257C1285.257,17.143,1292.572,0,1292.572,0c-21.486,22.171-55.543,28.571-70.4,30.629h-10.286c9.371-7.314,13.486-14.171,13.486-14.171a89.189,89.189,0,0,1-28.343,14.171h-1.371C1219.2,18.286,1226.971,0,1226.971,0c-16.686,17.143-40.686,24.914-57.6,28.343C1189.486,16.229,1196.343,0,1196.343,0c-14.4,14.857-34.286,22.629-50.514,26.743C1164.114,14.857,1170.286,0,1170.286,0c-21.486,22.171-55.543,28.571-70.4,30.629h-1.143C1122.286,18.286,1130.057,0,1130.057,0c-13.943,14.4-33.371,22.171-49.143,26.286C1098.514,14.629,1104.686,0,1104.686,0c-21.486,22.171-55.543,27.657-70.4,29.486l-19.429.914C1038.172,18.286,1045.943,0,1045.943,0c-10.971,11.2-37.257,25.829-50.514,30.629C1012.8,20.8,1019.886,8,1019.886,8c-19.429,16.229-46.171,21.257-63.543,22.629h-1.371c16.914-10.971,23.314-24.457,23.314-24.457C963.657,19.886,944.229,26.971,928,30.4h-2.971c17.143-10.743,23.543-24.229,23.543-24.229-14.629,13.714-34.057,20.8-50.286,24.229h-7.543c9.371-7.314,13.486-14.171,13.486-14.171A89.189,89.189,0,0,1,875.886,30.4h-4.343C894.857,18.286,902.629,0,902.629,0c-21.486,22.171-55.543,28.571-70.4,30.629h-2.514C852.8,18.286,860.571,0,860.571,0c-21.486,22.171-55.543,28.571-70.4,30.629h-5.714c13.029-8.914,18.286-18.743,18.286-18.743C792,20.8,778.971,26.286,766.629,29.714c12.114-8.686,17.143-17.829,17.143-17.829-11.429,9.371-25.371,15.086-38.4,18.286C768.229,18.057,776,0,776,0c-18.286,18.743-45.257,26.286-62.4,29.257C735.086,17.143,742.4,0,742.4,0,720.914,22.171,686.857,28.571,672,30.629H661.714c9.371-7.314,13.486-14.171,13.486-14.171a89.189,89.189,0,0,1-28.343,14.171h-1.371C668.8,18.286,676.571,0,676.571,0c-16.686,17.143-40.686,24.914-57.6,28.343C639.314,16.229,646.172,0,646.172,0c-14.4,14.857-34.286,22.629-50.514,26.743C613.943,14.857,620.114,0,620.114,0c-21.486,22.171-55.543,28.571-70.4,30.629h-1.143C571.886,18.286,579.657,0,579.657,0c-13.943,14.4-33.371,22.171-49.143,26.286,17.829-11.657,24-26.286,24-26.286-21.486,22.171-54.629,29.257-70.4,30.629H464.686C487.771,18.286,495.771,0,495.771,0,484.8,11.2,458.743,25.829,445.486,30.629,454.629,24,458.971,17.6,458.971,17.6a88.99,88.99,0,0,1-29.486,13.029h-1.371C445.486,20.8,452.571,8,452.571,8,433.143,24.229,406.4,29.257,389.029,30.629h-1.371C404.571,19.657,410.971,6.4,410.971,6.4c-14.629,13.714-34.057,20.8-50.286,24.229h-2.971C374.629,19.657,381.029,6.4,381.029,6.4,366.4,20.114,346.971,27.2,330.743,30.629H323.2c9.371-7.314,13.486-14.171,13.486-14.171a89.19,89.19,0,0,1-28.343,14.171H304C327.543,18.286,335.314,0,335.314,0c-21.486,22.171-55.543,28.571-70.4,30.629H262.4C285.486,18.286,293.257,0,293.257,0c-21.486,22.171-55.543,28.571-70.4,30.629h-5.714c13.029-8.914,18.286-18.743,18.286-18.743-10.743,8.914-23.771,14.4-36.114,17.829,12.114-8.686,17.143-17.829,17.143-17.829-11.429,9.371-25.371,15.086-38.4,18.286C200.914,18.057,208.457,0,208.457,0c-18.286,18.743-45.257,26.286-62.4,29.257C167.771,17.143,174.857,0,174.857,0c-21.486,22.171-55.543,28.571-70.4,30.629H94.171c9.371-7.314,13.486-14.171,13.486-14.171A89.19,89.19,0,0,1,79.314,30.629H77.943C101.486,18.286,109.257,0,109.257,0c-16.686,17.143-40.686,24.914-57.6,28.343C71.771,16.229,78.629,0,78.629,0c-14.4,14.857-34.286,22.629-50.514,26.743C46.4,14.857,52.8,0,52.8,0,37.714,15.543,16.457,23.314,0,27.2v3.429H1920Z"/>
</svg>
