<svg xmlns="http://www.w3.org/2000/svg" viewBox="0 0 361.15 156.72"><defs><style>.cls-1{fill:#402b2f;}.cls-2{fill:#af7f66;}</style></defs><title>Monks Logo</title><g id="Layer_2" data-name="Layer 2"><g id="Layer_1-2" data-name="Layer 1"><path class="cls-1" d="M99,27.29q2.19,34.16,4.36,68.32c-9.82.62-14.73,1-24.53,1.82q-2.52-30-5.05-60.07c0-.14,0-.24,0-.32,0-.62-.08-1-.09-1a1,1,0,0,0-.62-1c-.4-.24-1.7-1-2.43-1.39s-.82-.49-1.34-.28c-.24.09-2.31,1-2.61,1.12a.86.86,0,0,0-.44.94Q69.06,66.75,71.88,98c-10,.89-15,1.39-25,2.5q-3.39-30.62-6.79-61.23c0-.23,0-.34-.07-.57l-.28-.17a1.44,1.44,0,0,0-.3-.21c-.4-.23-1.72-1-2.46-1.33s-.84-.47-1.35-.24c-.24.1-2.29,1-2.59,1.19L33,38c-.14.08-.3.14-.43.21,0,.28.05.42.08.69q3.66,31.2,7.28,62.4c-10.07,1.18-15.09,1.82-25.14,3.2C11.88,83.84,9.82,62.48,7,41.78c-.16-1.15-.17-1.4-1-2.05-1.06-.87-5-5.37-5.68-6s0-1.94.65-2.4c.23-.16,13.62-8,15.45-9.08,1-.45,1.63-.75,2.63,0,2.51,1.75,7.52,5.74,10.18,7.64l0,0a2.69,2.69,0,0,0,1.6.72c1.64-.19,5.48-2.28,11.59-6.2s9.58-5.89,10.34-6c1.14-.12,2.91.79,5.27,2.72S62.9,25,65.5,26.93l.11,0c4.63-2.86,14.89-8.83,16.9-9.94a13.51,13.51,0,0,1,4.08-1.47c1.53-.07,4,1.39,7.31,4.53a54.41,54.41,0,0,1,4,4.4A5.4,5.4,0,0,1,99,27.29ZM303,26.47c-.22-.16-15.92-8.68-18-9.66a1.93,1.93,0,0,0-2.43.05C280,19,275,23,272.55,25.06c-.67.55-2.41,2.12-2.51,3.42l-.4,5.87L268.19,55c-2.54,1.05-5,2.08-6.7,2.82l-.07,0c1-15.28,1.48-22.92,2.46-38.21.16-2.35.23-3.52.38-5.87.09-1.3-1.46-3.09-2.05-3.73h0c-2.3-2.34-4.47-4.66-6.54-6.92A13.89,13.89,0,0,0,251.87,0c-2.48.32-10.25,3.16-15.31,5.34-.92.39-1.82.79-2.67,1.17h0l-.84.39c-1.91.93-3.48,1.65-2.44,3,.59.75,4.92,5.27,5.82,6.31.68.79.65,1,.6,2.2q-1.67,37.95-3.31,75.91c10.11.44,15.17.71,25.27,1.37l1.9-29.47a.8.8,0,0,1,.49-.64c.31-.12,2.44-.67,2.68-.72.54-.13.62,0,1.26.48s1.78,1.45,2.12,1.74a1.06,1.06,0,0,1,.45,1s0,.39-.07,1c0,.08,0,.17,0,.32-.75,10.68-1.12,16-1.87,26.7,9.81.68,14.71,1.08,24.52,2l3.15-34.8a5.55,5.55,0,0,0-.71-3,52.87,52.87,0,0,0-3.14-4.95c-.32-.43-.65-.83-.95-1.21l6-2.59,1.35-14.92c.11-1.15.11-1.4.88-2.09,1-.91,5.33-5.43,6-6.14S303.76,27.07,303,26.47ZM164.29,83.34c-4,2.24-20.44,11.2-24.77,13.22a5,5,0,0,1-2.32.71A17.08,17.08,0,0,1,132,96.21c-2.28-.74-20.86-7.46-23-8.07-.48-4.66-2.6-44.24-2.6-44.24-.39-6.6-.58-9.91-1-16.51,3.49-2.29,18.21-9.83,21.89-11.86q1.68-.85,3.39-1.62a9.51,9.51,0,0,1,3.57-.83,5.37,5.37,0,0,1,1.26.11c.42.09.9.17,1.42.26,4.54,1.4,22,9.14,26.37,11C163.7,44.47,164.22,63.26,164.29,83.34ZM138.6,33.13c-.08-.08-2.1-.86-2.94-1.18a1.82,1.82,0,0,0-1.37-.12c-.24.08-2,.72-2.29.87l-.5.22c0,.28,0,.41,0,.69l.7,18,.7,18c.07,2,.11,3,.19,5,0,0,0,.67.28.76.08.08,1.54.83,2.28,1.17s1,.43,1.53.25c.23-.08,2.92-1.14,3.06-1.2,0-.27,0-.41,0-.69-.07-2.24-.11-3.35-.19-5.59-.23-7.22-.35-10.83-.59-18.06-.23-7-.35-10.47-.57-17.45C138.89,33.9,138.94,33.28,138.6,33.13ZM360.14,32c-6.07-2.39-18.45-7.62-23.25-9.54-2.64-.93-3.7-.83-5.22-.38-10.82,3.55-16.2,5.37-26.84,9.14a3.29,3.29,0,0,0-2.13,2.94c-.12,1.24-1.89,19.7-2.49,26.05a2.45,2.45,0,0,0,1.73,2.8c11.16,4.38,16.7,6.63,27.68,11.27,0,0,1.62.8,1.5,1.79s-.92,7.57-.92,7.57-.35,1.27-1.38.87l-5.63-2.31c-.62-.31-1.12-.66-1-2s.34-2.92.34-2.92c-9.18-3.81-13.8-5.68-23.11-9.32-.88,9.24-1.33,13.87-2.21,23.12h0c-.07.77-.11,1.15-.18,1.93a1.35,1.35,0,0,0,.88,1.62c5.78,2.21,18.53,7.38,23,9.24,2.46.9,3.47.79,4.89.33,10.19-3.58,15.31-5.33,25.66-8.7a3.3,3.3,0,0,0,2.19-2.84C353.9,91.5,356.21,73,357,66.62a2.46,2.46,0,0,0-1.66-2.85c-11.12-4.68-16.1-7.22-27.31-11.84,0,0-1.66-.78-1.54-1.78s.86-7.42.86-7.42.35-1.28,1.41-.86,3.26,1.28,5.77,2.29c0,0,0,0,0,0a1.63,1.63,0,0,1,1.1,2c-.16,1.37-.36,2.93-.36,2.93C344.68,53,348.7,55.12,358,59c1.15-9.21,1.72-13.82,2.86-23h0l.25-1.84S361.4,32.54,360.14,32ZM229.25,22.67a52,52,0,0,0-3.49-4.78c-3-3.46-5.28-5.17-6.81-5.26a13.53,13.53,0,0,0-4.2,1.06c-2.12.9-12.92,5.78-17.82,8.16l-1,.52c-.47-.63-10.48-9.81-11.16-10.28a2.13,2.13,0,0,0-1.94-.34c-.63.21-17.75,7.8-18,7.92a1.14,1.14,0,0,0-.6,1.53c.54.78,4.32,6.17,5.26,7.16.71.75.69,1,.7,2.16q.25,31.33.52,62.67c5.4,0,9.36-.06,13.41,0V90.7c0-.72,1.22-1.38,3.25-1.9V72.92A10,10,0,0,1,192,64.43l3.31-2.1-.53-.47L192,60.09a10,10,0,0,1-4.67-8.49V37.69c-2-.52-3.25-1.18-3.25-1.9V33.35c0-1.68,6.62-3,14.79-3s14.78,1.36,14.78,3v2.44c0,.72-1.22,1.38-3.25,1.9V51.6a10,10,0,0,1-4.67,8.49l-3.17,2-.19.18,3.36,2.14a10,10,0,0,1,4.67,8.49V88.8c2,.52,3.25,1.18,3.25,1.9v2.44a.79.79,0,0,1-.16.44c4.29.11,8.33.25,14,.47l2.64-68.41A5.4,5.4,0,0,0,229.25,22.67Z"/><path class="cls-2" d="M121.89,148.79a.75.75,0,0,1,.22.53v1.92a.74.74,0,0,1-.22.52.71.71,0,0,1-.51.21h0l-45.81-1a.73.73,0,0,1-.72-.73.73.73,0,0,1,.72-.74l45.81-1A.67.67,0,0,1,121.89,148.79Zm163.7.75-45.79-1a.68.68,0,0,0-.53.21.72.72,0,0,0-.23.53v1.92a.71.71,0,0,0,.23.52.69.69,0,0,0,.51.21h0l45.79-1a.74.74,0,0,0,0-1.47Zm-146.91-5.43h-6.46a.31.31,0,0,0-.34.35v11.91a.31.31,0,0,0,.34.34h6.46a.35.35,0,0,0,.23-.09.34.34,0,0,0,.11-.25v-2.11a.31.31,0,0,0-.11-.25.35.35,0,0,0-.23-.09h-4v-2.11h3.05a.31.31,0,0,0,.34-.34v-2.11a.31.31,0,0,0-.34-.34h-3.05v-2.11h4a.32.32,0,0,0,.23-.1.3.3,0,0,0,.11-.24v-2.11a.34.34,0,0,0-.11-.25A.32.32,0,0,0,138.68,144.11Zm13.76,1.22-1-1a.65.65,0,0,0-.37-.2.45.45,0,0,0-.16,0h-4.6l-.18,0a.72.72,0,0,0-.35.21l-1,1a.74.74,0,0,0-.21.36s0,.05,0,.08v4.35a.53.53,0,0,0,0,.13.69.69,0,0,0,.21.34l1,1a.74.74,0,0,0,.35.2.5.5,0,0,0,.18,0h3.19l0,0,.29.27a.1.1,0,0,0,0,0v1.41a.1.1,0,0,0,0,.05l-.29.27,0,0h-2.14v-.71a.31.31,0,0,0-.34-.34h-2.1a.4.4,0,0,0-.25.09.34.34,0,0,0-.11.25v1.72l0,0a.48.48,0,0,0,0,.17.76.76,0,0,0,.21.35l1,1a.66.66,0,0,0,.35.2.5.5,0,0,0,.18,0h4.6a.44.44,0,0,0,.16,0,.68.68,0,0,0,.37-.2l1-1a.66.66,0,0,0,.2-.35.5.5,0,0,0,0-.18v-4.21a.41.41,0,0,0,0-.16.65.65,0,0,0-.2-.37l-1-1a.65.65,0,0,0-.37-.2.44.44,0,0,0-.16,0h-3.28l-.23-.23,0,0v-.27l0,0v-1.25s0,0,0-.05l.29-.28a.07.07,0,0,1,.06,0h2.11v.79a.31.31,0,0,0,.34.35h2.09a.37.37,0,0,0,.25-.1.33.33,0,0,0,.11-.25v-1.86a.59.59,0,0,0,0-.14A.65.65,0,0,0,152.44,145.33ZM165,144.15h-7.1a.34.34,0,0,0-.26.11.35.35,0,0,0-.1.25v2.09a.33.33,0,0,0,.11.25.33.33,0,0,0,.25.1h2.16v9.47a.31.31,0,0,0,.34.29h2.1a.33.33,0,0,0,.34-.3V147H165a.33.33,0,0,0,.25-.1.33.33,0,0,0,.11-.25v-2.09a.36.36,0,0,0-.11-.25A.31.31,0,0,0,165,144.15Zm6.61,9.48h-2.1a.31.31,0,0,0-.34.34v2.42a.31.31,0,0,0,.34.29h2.1a.32.32,0,0,0,.34-.31V154A.32.32,0,0,0,171.63,153.63Zm19.63-8.09a.51.51,0,0,0-.14-.21l-1-1a.51.51,0,0,0-.21-.14l-.15,0h-.08v0l-4.69,0-.18,0-.15,0a.54.54,0,0,0-.19.14l-1,1a.65.65,0,0,0-.2.36.5.5,0,0,0,0,.17v1.86a.31.31,0,0,0,.34.35h2.11a.31.31,0,0,0,.34-.35v-.81h2.11l.06.05.29.28a.08.08,0,0,1,0,0v1.85l0,.05-.22.21H185a.5.5,0,0,0-.18,0l-.15.05a.5.5,0,0,0-.19.13l-1,1a.65.65,0,0,0-.2.36.44.44,0,0,0,0,.16v5.26a.31.31,0,0,0,.34.34H191a.31.31,0,0,0,.34-.34v-2.09a.33.33,0,0,0-.1-.25.32.32,0,0,0-.24-.11h-4.94v-1.39l0,0,.28-.29.07,0h3.15a.61.61,0,0,0,.19,0,.69.69,0,0,0,.34-.21l1-1a.65.65,0,0,0,.14-.19c0-.05,0-.11.05-.16a.9.9,0,0,0,0-.18v-4.58a1,1,0,0,0,0-.17C191.29,145.64,191.28,145.59,191.26,145.54Zm13.71.14a.88.88,0,0,1,0,.16V155a.88.88,0,0,1,0,.16.72.72,0,0,1-.21.35l-1,1a.65.65,0,0,1-.37.2l-.09,0h-4.67a.38.38,0,0,1-.18,0,.66.66,0,0,1-.35-.2l-1-1a.65.65,0,0,1-.2-.37.37.37,0,0,1,0-.15h0v-9.22a.17.17,0,0,1,0-.07.65.65,0,0,1,.2-.37l1-1a.66.66,0,0,1,.35-.2.52.52,0,0,1,.18,0h4.6a.51.51,0,0,1,.17,0,.65.65,0,0,1,.36.2l1,1A.73.73,0,0,1,205,145.68Zm-2.82,1.53-.29-.29-.06,0h-1.72s0,0-.07,0l-.27.29-.05.05v6.37l0,0,.21.23h2l.22-.22s0,0,0,0v-6.38Zm12.17-2.94,0,0s0,0,0,0a.13.13,0,0,0-.1,0l0,0h-2.46c-.14,0-.25.11-.33.29l-.83,2c-.1.18,0,.28,0,.34a.42.42,0,0,0,.14.09v0h1v9.41a.31.31,0,0,0,.34.34h2.09a.37.37,0,0,0,.25-.09.32.32,0,0,0,.12-.25v-11.9l-.07-.15Zm13.88,1.43a.78.78,0,0,1,0,.16v1.86a.32.32,0,0,1-.34.35h-2.12a.32.32,0,0,1-.34-.35v-.81h-1.95l-.05,0h0l0,0-.31.29,0,0v1.47a.11.11,0,0,0,0,.07l.22.21h3.17a.39.39,0,0,1,.15,0,.65.65,0,0,1,.36.2l1,1a.79.79,0,0,1,.2.37.88.88,0,0,1,0,.16V155a1.88,1.88,0,0,1,0,.19.64.64,0,0,1-.19.32l-1,1a.65.65,0,0,1-.37.2h-4.74a.73.73,0,0,1-.4-.2l-1-1a.75.75,0,0,1-.2-.34,1.1,1.1,0,0,1,0-.18V145.8s0-.07,0-.11a.81.81,0,0,1,.2-.36l1-1a.54.54,0,0,1,.19-.14l.15,0,.19,0h4.45l.17,0,.16,0a.56.56,0,0,1,.2.14l1,1A.79.79,0,0,1,228.2,145.7Zm-5.1,8,.19.18h1.88l.23-.22s0,0,0,0v-1.46s0,0,0-.05l-.33-.32h-1.61l-.05,0,0,0-.31.29s0,0,0,0v1.48A.12.12,0,0,0,223.1,153.72Z"/><path class="cls-2" d="M40.3,119a12.47,12.47,0,0,0-3.24-3.56,12.81,12.81,0,0,0-9.14-2.38A12.3,12.3,0,0,0,23,114.77a12.45,12.45,0,0,0-3.6,3.24,12.73,12.73,0,0,0-2.07,4.27,12.06,12.06,0,0,0-.3,4.78,11.81,11.81,0,0,0,1.75,4.9,12.31,12.31,0,0,0,3.33,3.48,13,13,0,0,0,7.34,2.29,11.82,11.82,0,0,0,1.57-.1A12.14,12.14,0,0,0,35.88,136a12.61,12.61,0,0,0,5.68-7.42,11.94,11.94,0,0,0,.38-4.71A11.7,11.7,0,0,0,40.3,119Zm-4.11,8.21A7.05,7.05,0,0,1,35,129.61a7.12,7.12,0,0,1-2,1.73,6.72,6.72,0,0,1-2.61.87,7,7,0,0,1-2.75-.18,7.11,7.11,0,0,1-4.16-3.15,6.64,6.64,0,0,1-.91-2.57,7,7,0,0,1,.18-2.74A7.09,7.09,0,0,1,26,119.41a6.94,6.94,0,0,1,2.64-.89,7.07,7.07,0,0,1,.91-.06,6.63,6.63,0,0,1,1.83.26,6.77,6.77,0,0,1,2.4,1.2,7.2,7.2,0,0,1,1.78,2,6.38,6.38,0,0,1,.88,2.59A6.51,6.51,0,0,1,36.19,127.25ZM66,109.49l2.27,23.58a.4.4,0,0,1-.37.44l-2.07.2a.4.4,0,0,1-.31-.1c-5.34-4.86-8.11-7.34-13.35-12l1.38,12.69a.4.4,0,0,1-.36.44l-4,.45-.58.07h0a.41.41,0,0,1-.41-.36l-2.65-23.55a.39.39,0,0,1,.36-.44l2.08-.23a.44.44,0,0,1,.31.09c5.58,4.86,8.39,7.34,13.53,12L60.48,110a.4.4,0,0,1,.09-.3.43.43,0,0,1,.27-.15H61c1.77-.18,2.71-.28,4.53-.45a.39.39,0,0,1,.3.09A.36.36,0,0,1,66,109.49Zm31.63-2.6.33,4.65a.45.45,0,0,1-.1.29.42.42,0,0,1-.28.14c-2.48.17-3.78.26-6.14.44l1.38,18.34a.4.4,0,0,1-.1.29.42.42,0,0,1-.28.14l-4,.31-.7,0h0a.4.4,0,0,1-.4-.37l-1.45-18.33c-2.38.18-3.7.29-6.2.5a.4.4,0,0,1-.44-.36l-.39-4.65A.46.46,0,0,1,79,108a.44.44,0,0,1,.28-.14c7.33-.61,10.85-.89,18-1.38A.42.42,0,0,1,97.62,106.89ZM122,105.44l1.16,23.44a.46.46,0,0,1-.11.29.41.41,0,0,1-.28.13l-4.66.24a.43.43,0,0,1-.3-.11.41.41,0,0,1-.13-.27l-.47-9c-3.37.18-5.24.29-8.6.49l.55,9a.48.48,0,0,1-.1.29.42.42,0,0,1-.28.14l-4.63.29h0a.35.35,0,0,1-.26-.1.42.42,0,0,1-.14-.27l-1.52-23.41a.4.4,0,0,1,.37-.43l4.73-.3a.42.42,0,0,1,.42.38l.55,9c3.39-.21,5.26-.32,8.64-.5l-.47-9a.38.38,0,0,1,.1-.29.37.37,0,0,1,.28-.13c1.9-.11,2.85-.15,4.76-.25a.46.46,0,0,1,.29.11A.37.37,0,0,1,122,105.44Zm23.25,17.9.14,4.66a.4.4,0,0,1-.39.41c-5.92.18-8.89.29-15.11.56h0a.41.41,0,0,1-.4-.39l-1-23.43a.4.4,0,0,1,.38-.42c6-.26,9-.37,15.43-.57h0a.39.39,0,0,1,.4.39l.14,4.66a.41.41,0,0,1-.39.42c-4.11.12-6.23.2-10.21.35l.16,3.91,7.31-.26h0a.42.42,0,0,1,.41.39l.15,4.69a.41.41,0,0,1-.39.42l-7.28.26.16,3.92c3.93-.16,6-.23,10.09-.36a.35.35,0,0,1,.28.11A.41.41,0,0,1,145.24,123.34Zm33.25-.08a.41.41,0,0,1,0,.58A16.32,16.32,0,0,1,174.1,127a12,12,0,0,1-5,1.17h-.14a12.24,12.24,0,0,1-5-1,12.62,12.62,0,0,1-3.95-2.73,12.42,12.42,0,0,1-2.57-3.9,12.18,12.18,0,0,1-1-4.52,11.81,11.81,0,0,1,.94-5,12.3,12.3,0,0,1,2.72-4,12.82,12.82,0,0,1,8.7-3.6H169a12.31,12.31,0,0,1,4.79,1,13.28,13.28,0,0,1,4.34,2.9.41.41,0,0,1,.11.28.44.44,0,0,1-.11.29l-3.3,3.3a.42.42,0,0,1-.57,0,8.44,8.44,0,0,0-2.53-1.71,6.94,6.94,0,0,0-2.73-.58,6.78,6.78,0,0,0-2.78.59A7.24,7.24,0,0,0,164,111a6.78,6.78,0,0,0-2,4.92,6.7,6.7,0,0,0,.59,2.66,7,7,0,0,0,1.52,2.16,7.08,7.08,0,0,0,2.22,1.44,6.8,6.8,0,0,0,2.62.51,6.62,6.62,0,0,0,3-.7,10.67,10.67,0,0,0,2.64-2,.4.4,0,0,1,.56,0Zm24.08-16.21a12.88,12.88,0,0,0-4-2.63,12.62,12.62,0,0,0-4.72-1h-.15a12.47,12.47,0,0,0-4.91,1,12.71,12.71,0,0,0-4,2.72,12.49,12.49,0,0,0-2.64,4,12.38,12.38,0,0,0,.11,9.77,12.4,12.4,0,0,0,2.82,3.91,12.8,12.8,0,0,0,4,2.49,12.67,12.67,0,0,0,4.54.91h.16a12.12,12.12,0,0,0,4.84-1,12.49,12.49,0,0,0,6.63-6.57,12.08,12.08,0,0,0,1-4.6,11.93,11.93,0,0,0-1-5A12.56,12.56,0,0,0,202.57,107.05Zm-8.91,15.66h0a6.7,6.7,0,0,1-2.68-.56,7.07,7.07,0,0,1-2.2-1.49,7.25,7.25,0,0,1-1.49-2.2,6.51,6.51,0,0,1-.55-2.67,6.61,6.61,0,0,1,.56-2.69,7,7,0,0,1,1.53-2.21,7.13,7.13,0,0,1,2.25-1.47,7,7,0,0,1,2.63-.51h.1a6.83,6.83,0,0,1,2.69.57,6.93,6.93,0,0,1,2.2,1.52,7.1,7.1,0,0,1,1.48,2.25,6.72,6.72,0,0,1-.07,5.35,7,7,0,0,1-3.75,3.61A7,7,0,0,1,193.66,122.71ZM239,104.89a.42.42,0,0,1,.1.3l-1.13,23.66a.46.46,0,0,1-.13.28.43.43,0,0,1-.28.11h0l-.52,0-4.11-.19a.37.37,0,0,1-.28-.13.41.41,0,0,1-.11-.29l.63-14.17c-3.12,2.78-4.88,4.38-8.16,7.38a.42.42,0,0,1-.57,0c-3-3.23-4.68-5-7.56-8L216.39,128a.42.42,0,0,1-.41.4h0l-1,0-3.66-.11a.4.4,0,0,1-.39-.41l.61-23.68a.45.45,0,0,1,.12-.29.31.31,0,0,1,.3-.1l2.63.07a.4.4,0,0,1,.28.12c4,4.12,6.07,6.26,10.07,10.48,4.32-3.92,6.55-5.9,10.85-9.71a.45.45,0,0,1,.29-.1l2.61.12A.52.52,0,0,1,239,104.89Zm34.37,2.16a.43.43,0,0,1,.1.29L271.61,131a.42.42,0,0,1-.41.38h0l-.71-.06-3.92-.29a.41.41,0,0,1-.37-.44l1-14.14c-3.19,2.69-5,4.24-8.38,7.14a.4.4,0,0,1-.56,0c-2.95-3.32-4.53-5.09-7.33-8.18l-.83,14.16a.37.37,0,0,1-.13.28.45.45,0,0,1-.3.1l-4.66-.26a.46.46,0,0,1-.28-.13.38.38,0,0,1-.1-.3l1.28-23.65a.46.46,0,0,1,.43-.38l2.64.14a.41.41,0,0,1,.27.13c3.9,4.24,5.87,6.41,9.78,10.77,4.26-3.65,6.53-5.57,11.13-9.4a.41.41,0,0,1,.28-.09l2.61.2A.35.35,0,0,1,273.32,107.05Zm26.28,5.69a12.71,12.71,0,0,0-3.76-2.94,12.38,12.38,0,0,0-4.63-1.36,12.09,12.09,0,0,0-5.12.57,12.35,12.35,0,0,0-7.17,6.11,12.34,12.34,0,0,0-.68,9.75,12.35,12.35,0,0,0,2.49,4.12,12.88,12.88,0,0,0,8.21,4.08c.43,0,.84.06,1.25.06a12.08,12.08,0,0,0,3.82-.61,12.59,12.59,0,0,0,7.15-6,12,12,0,0,0,1.39-4.51,11.72,11.72,0,0,0-.55-5.07A12.4,12.4,0,0,0,299.6,112.74Zm-8.89,1.14a6.87,6.87,0,0,1,2.63.79,6.69,6.69,0,0,1,2.07,1.69,7.48,7.48,0,0,1,1.31,2.36,6.57,6.57,0,0,1,.3,2.72,6.76,6.76,0,0,1-.81,2.61,7,7,0,0,1-1.69,2,7.22,7.22,0,0,1-2.34,1.25,7,7,0,0,1-7.44-2.16,6.81,6.81,0,0,1-1.31-2.3,6.49,6.49,0,0,1-.33-2.71,6.69,6.69,0,0,1,.77-2.63,6.94,6.94,0,0,1,1.7-2.09,7.16,7.16,0,0,1,2.37-1.28,6.84,6.84,0,0,1,2.07-.32Zm38.45-.7-2.91,23.51a.38.38,0,0,1-.16.27.36.36,0,0,1-.24.09h-.06l-2.06-.26a.38.38,0,0,1-.28-.17c-4.13-5.86-6.3-8.88-10.44-14.57l-1.41,12.69a.41.41,0,0,1-.45.36l-4.61-.51a.4.4,0,0,1-.36-.44l2.52-23.55a.43.43,0,0,1,.15-.28.41.41,0,0,1,.3-.08l2.08.22a.4.4,0,0,1,.28.16c4.47,6,6.68,9.08,10.62,14.6l1.52-12.7a.39.39,0,0,1,.15-.27.41.41,0,0,1,.3-.09l4.07.5.64.08A.41.41,0,0,1,329.16,113.18Zm9.79,7.88a1,1,0,0,0,.13.64,2.47,2.47,0,0,0,.59.69,8,8,0,0,0,1,.69c.38.22.8.44,1.22.66a22.18,22.18,0,0,1,3.3,2.06,10.09,10.09,0,0,1,2.07,2.06,5.54,5.54,0,0,1,1,2.21,7.31,7.31,0,0,1,.05,2.39,7,7,0,0,1-1.05,2.83,7.4,7.4,0,0,1-2.09,2.12,8.35,8.35,0,0,1-2.85,1.21,9.17,9.17,0,0,1-2,.22,9.48,9.48,0,0,1-1.39-.1,10.67,10.67,0,0,1-3-.86,11.94,11.94,0,0,1-2.63-1.64.76.76,0,0,1-.09-.09,11.35,11.35,0,0,1-1.38-1.4c-.43-.51-.71-.89-.87-1.12a.4.4,0,0,1,.1-.55l.83-.58,3.07-2.16a.41.41,0,0,1,.32-.07.46.46,0,0,1,.26.19,5.17,5.17,0,0,0,.61.74,9.39,9.39,0,0,0,2.3,1.71,4,4,0,0,0,1.24.42,4.71,4.71,0,0,0,1.06,0,3.37,3.37,0,0,0,1-.25,1.9,1.9,0,0,0,.72-.53,1.73,1.73,0,0,0,.38-.91.92.92,0,0,0-.08-.4,2.64,2.64,0,0,0-.46-.65,7.91,7.91,0,0,0-1.11-.89,17.49,17.49,0,0,0-1.85-1.12,28.07,28.07,0,0,1-2.51-1.52,10,10,0,0,1-2-1.8,6.55,6.55,0,0,1-1.22-2.22,6.42,6.42,0,0,1-.19-2.69,7.07,7.07,0,0,1,1-2.77,6.72,6.72,0,0,1,1.94-2.07,7.83,7.83,0,0,1,2.75-1.18,9.63,9.63,0,0,1,3.32-.11,9.92,9.92,0,0,1,2,.53,14.34,14.34,0,0,1,2,.9,12.27,12.27,0,0,1,1.79,1.13,8.92,8.92,0,0,1,1.37,1.24.41.41,0,0,1,0,.57l-3.41,3.17a.4.4,0,0,1-.55,0c-.43-.38-.81-.69-1.17-1a9.52,9.52,0,0,0-1.2-.71,4.53,4.53,0,0,0-1.35-.44,3.59,3.59,0,0,0-2.07.22A1.39,1.39,0,0,0,339,121.06Z"/><path class="cls-2" d="M198.87,39.27c4.49,0,8.13.75,8.13,1.67h0v9.72a7.05,7.05,0,0,1-3.3,6l-1.93,1.23-.47.35a3.86,3.86,0,0,0-1.57,3.15s0,20.07,0,20.13A8.85,8.85,0,0,1,203.2,83c3,2.24,5.16,4.25,5.33,7h0c0,1.1-4.32,2-9.66,2s-9.67-.89-9.67-2h0c.18-2.7,2.39-4.71,5.33-7A8.85,8.85,0,0,1,198,81.51c0-.06,0-20.13,0-20.13a3.84,3.84,0,0,0-1.58-3.15l-.46-.35L194,56.65a7.07,7.07,0,0,1-3.29-6V40.94h0C190.74,40,194.38,39.27,198.87,39.27Z"/></g></g></svg>