<svg xmlns="http://www.w3.org/2000/svg" viewBox="0 0 418.78 310.84"><defs><style>.cls-1{fill:#231f20;}.cls-2,.cls-3{fill:#fff;}.cls-2{fill-rule:evenodd;}</style></defs><title>the-haunt</title><g id="Layer_2" data-name="Layer 2"><g id="designs"><path class="cls-1" d="M418.78,113.46c0-25.5-42.25-17.66-42.25-44.42,0-15.41,15.25-15.68,15.25-32.82C391.78,9.38,296,.07,209.5,0h-.23C122.78.07,27,9.38,27,36.22,27,53.36,42.25,53.63,42.25,69,42.25,95.8,0,88,0,113.46c0,9.22,5.61,17.24,13.9,21.38a119.24,119.24,0,0,0-1.06,15.86c0,28.57,10.17,55.29,27.82,78.18a175.08,175.08,0,0,0,41.68,40.85,14.3,14.3,0,0,1-.79,5.36c-1.89,10.37-3.43,19.17-3.93,22.81C76,309.63,83.1,314.42,97,307.91c4.41-2.06,18.27-8.91,29.73-14.52A235.29,235.29,0,0,0,209.27,309h.23A235.2,235.2,0,0,0,292,293.39c11.47,5.61,25.33,12.46,29.73,14.52,13.93,6.51,21,1.72,19.42-10-.5-3.64-2.05-12.44-3.93-22.81a14.08,14.08,0,0,1-.79-5.36,175.22,175.22,0,0,0,41.67-40.85c17.65-22.89,27.83-49.61,27.83-78.18a119.24,119.24,0,0,0-1.06-15.86C413.16,130.7,418.78,122.68,418.78,113.46Z"/><path class="cls-2" d="M348.07,35.4c0,7.46-61.79,10.28-138,10.28s-138-2.88-138-10.28,61.79-13.3,138-13.3S348.07,27.94,348.07,35.4Z"/><path class="cls-3" d="M223.83,121.8c0-.19,0-.39.07-.59l-.52-.27-.58-.28a2.75,2.75,0,0,1-1.43-1,26.47,26.47,0,0,1-.63-4.39c0-.37,0-.74,0-1.11-.08-2.23,0-4.5.11-6.73.06-1,.27-2,.35-3.07a2,2,0,0,0-.16-1,2.2,2.2,0,0,1,0-1.27,2.7,2.7,0,0,0-.2-1,4.7,4.7,0,0,1,.09-1.9c.18-1.11-.16-2.52.32-3.54.11-.26.4-.37.66-.55a3.74,3.74,0,0,1,1.29-.62l.73-.15v-.74a4.08,4.08,0,0,0-.15-1,1.89,1.89,0,0,1-.1-.56V90.94l-1.09.29a21,21,0,0,1-5.14.73,21.21,21.21,0,0,1-4.51-.41l-1-.19c0,.33,0,.66-.08,1s-.1.74-.17,1.09c0,.15,0,.29-.07.43-.06.37-.13.74-.19,1.11l1.11-.09h.2a1.25,1.25,0,0,1,1,.34c.86.86.85,3.29.84,5.44,0,.59,0,3.08,0,3.66h-.67c-1.22,0-2.48.06-3.74.1s-2.55.09-3.8.09c-.94,0-1.78,0-2.55-.07v-.27a61.82,61.82,0,0,1,.3-8.35c.75-.47,1.49-.93,2.25-1.33l.63-.33c-.07-.23-.13-.45-.19-.68a1.53,1.53,0,0,1,0-.38,1.71,1.71,0,0,0-.84-1.62l-.31-.13-.32.11a13.53,13.53,0,0,1-4.36.55,27.25,27.25,0,0,1-5-.52l-.78-.15c-.07.25-.15.5-.22.75a5.11,5.11,0,0,0-.29,1.68c0,.17,0,.33,0,.5l.43.26c.28.17.58.31.89.46a3.07,3.07,0,0,1,1.33.89c.81,1.2.11,3.11.77,4.38.1.2.24.38.32.58a.72.72,0,0,1,0,.64c-.15.21-.43.27-.65.43a1.48,1.48,0,0,0-.36,1.46,44.68,44.68,0,0,1,.18,6.45c.06,2.42.13,4.85,0,7.28a14.51,14.51,0,0,1-.3,2.46,4.68,4.68,0,0,1-.89.55,5.11,5.11,0,0,0-1.48,1l-.5.54c.15.2.31.39.45.59,0,0,0,.28,0,.37,0,.36,0,.71,0,1.06l1.05-.14a36.44,36.44,0,0,1,4.39.21,35.53,35.53,0,0,1,5.48,0l1,.18c0-.34,0-.67.05-1,0-.57.39-1.48,0-2s-1.38-.53-1.92-1.13c-1.42-1.6-1.12-7.18-.89-10.73.06-.95.13,0,.16-.82,2.11-.09,4.17-.17,6.22-.18,1.54,0,2.94,0,4.25.1-.24,0,.13,3.06.16,3.36a5.43,5.43,0,0,0,.42,1.84.7.7,0,0,1,.12.36.54.54,0,0,1,0,.22,5.49,5.49,0,0,0-.35,2.27,7.82,7.82,0,0,1-.57,3.46c-.18.33-.38.44-.84.64s-1.16.91-1.72,1a.23.23,0,0,0-.15.06.16.16,0,0,0,0,.12l-.23,1.82a.2.2,0,0,0,0,.11.13.13,0,0,0,.1,0,37.15,37.15,0,0,0,5.16.33c.81,0,1.61,0,2.39-.09s1.41-.08,2.06-.09a15.6,15.6,0,0,1,1.75,0l1.12.1-.15-1.13a.92.92,0,0,1,0-.43C223.77,122.12,223.81,122,223.83,121.8Z"/><path class="cls-3" d="M253.39,107.56v-.11a2.05,2.05,0,0,0-.07-.34c-.27-1.16-.22-2.25-1-3.27l-.3-.39-.5.07c-2.73.34-3.5.18-6.36.37a10,10,0,0,0-1.73.22c-.32.07-.84.35-1.16.06s-.32-1.33-.61-1.79a1.19,1.19,0,0,0-.71-.51A8.56,8.56,0,0,0,242.27,98a5.52,5.52,0,0,1,.5-2.37,1.71,1.71,0,0,1,1.48-1.12,10,10,0,0,1,1.2,0,14.19,14.19,0,0,0,1.75,0c.49,0,.84-.08,1.18-.13l.9-.09a1.59,1.59,0,0,1,1.76.79,2.83,2.83,0,0,1,.36.86,1.25,1.25,0,0,0,1.29,1.14,2.32,2.32,0,0,0,.74-.22,2,2,0,0,0,.89-2.63,5.21,5.21,0,0,1-.16-.77,7.16,7.16,0,0,1,0-.91,2.45,2.45,0,0,0-.68-2.14l-.27-.25-.39,0-1.63.15c-2.25.19-4.57.38-6.9.52a98.35,98.35,0,0,1-10.73.17l-.67,0-.27.62c-.85,1.94.76,2.62,1.53,2.94A2,2,0,0,1,235.46,96c.07.34,0,.65,0,1s.54.71.46,1.23a2.4,2.4,0,0,1-.45.81,2.32,2.32,0,0,0-.14,2.17c.43.91-.2,1.64-.22,2.62,0,1.33,0,2.66.08,4,.12,2.73.39,5.44.68,8.15a18.7,18.7,0,0,1,.26,3c-.42,1.68-2.87,1-3.1,2.81a1.58,1.58,0,0,0,.38,1.33,2.57,2.57,0,0,0,2,.62,14,14,0,0,0,1.59-.16l.7-.09c1.47-.15,2.69-.23,4.61-.31,3.12-.12,7.82-.44,10.38-.48l1.61,0h.35l.27-.23a5.43,5.43,0,0,0,1.4-3.27c.07-.39.23-.8.26-1.19s-.07-.65.1-1,.44-.66.34-1-.41-.46-.69-.59a3.48,3.48,0,0,0-1.52-.4,1.74,1.74,0,0,0-1.51,1.16,4.88,4.88,0,0,1-.2.65,3,3,0,0,1-.37.51c-.3.35-.49,1-.82,1.25s-.73.2-1.12.25a22.72,22.72,0,0,0-3.14.74c-1.23.33-2.56,0-3.81.18a.34.34,0,0,1-.14,0,.31.31,0,0,1-.23-.25,2,2,0,0,1,0-.35c0-.42-.43-.61-.55-1a18,18,0,0,1-.58-4.39c-.07-1.54.13-2.16-.43-3.63-.18-.48-.23-1.09-.37-1.21s-.52-.2-.56-.27.11-.36.29-.44a10.4,10.4,0,0,1,2.07-.41c.66-.14,1.38-.13,2.05-.22s1.3.11,2,.06a2,2,0,0,1,1.32.23c.69.42,1,1.1,1.89,1.33a4.29,4.29,0,0,0,1.75.07,7.09,7.09,0,0,0,.58-.65A1.72,1.72,0,0,0,253.39,107.56Z"/><path class="cls-3" d="M185.4,91.64c-1,0-2-.11-3-.15a14.66,14.66,0,0,0-2,.24,3.92,3.92,0,0,1-1.48-.19c-1.9-.58-4.05-.42-6-.51-.93,0-1.87-.06-2.79-.12-.45,0-1.31-.47-1.69-.31-.18.09-.26.31-.43.44a1,1,0,0,1-.52.12,6.75,6.75,0,0,1-2.86-.63,16.35,16.35,0,0,0-3.44-.41l-.27,0-.23.11a3.48,3.48,0,0,0-1.8,2.69,13.83,13.83,0,0,1-1.19,3,.43.43,0,0,0-.06.18c0,.19.19.32.36.41a13.53,13.53,0,0,0,1.6.84,2,2,0,0,0,1.74-.08c.51-.32.75-1,1.22-1.32a2.69,2.69,0,0,1,1.25-.47,12.92,12.92,0,0,1,3,0,2.83,2.83,0,0,1,1.08.24c.57.31.62.87.67,1.44a22.09,22.09,0,0,0,.37,2.44c.29,1.55.63,3.09.77,4.66.08,1,.09,2,.08,3,0,2.43-.13,4.86-.32,7.29a8.25,8.25,0,0,1-.56,3.28c-.32.52-1.29.49-1.81.5s-1.89-.26-2.16,0a.58.58,0,0,0-.15.29,2.5,2.5,0,0,0,.16,2.43l.41.56.66-.07a40.34,40.34,0,0,1,5,.55c1,.12,2.06.26,3.1.4s2,.28,2.95.37a21.49,21.49,0,0,0,2.3.14h.7c0-.2.09-.41.13-.61a2.53,2.53,0,0,0-1.67-2.76c-.71-.37-2.12-.25-2.1-1.36,0-.27.09-.54.12-.81s0-.71,0-1.07a16.53,16.53,0,0,0,.51-3.57c-.27-2.92.2-5.8,0-8.77,0-1.12-.07-2.22-.08-3.34a1.46,1.46,0,0,0,0-.36c-.1-.54-.63-.88-.94-1.34s-.54-2.06.13-2.47a2,2,0,0,1,1-.2l4-.07a11.38,11.38,0,0,1,1.31-.08c.7.07.61.55.67,1.17a1.09,1.09,0,0,0,.5.92,1.29,1.29,0,0,0,.55.08h1.6a1.26,1.26,0,0,0,.72-.14,1.07,1.07,0,0,0,.38-.88c0-.52-.1-1-.1-1.56v-3a1.35,1.35,0,0,0-.17-.8,1.27,1.27,0,0,0-1.09-.34Z"/><path class="cls-3" d="M178.37,218.21a.62.62,0,0,0-.3-.53.73.73,0,0,0-.33,0c-1.62.05-6.7,1-7.5-.93a2,2,0,0,1,.66-2.28,2,2,0,0,1-1-1.52,16.79,16.79,0,0,1-.06-1.88c-.06-2-1-3.79-1.29-5.73a43.6,43.6,0,0,0-2.18-8.53Q164,190,161.89,183.2a59.58,59.58,0,0,0-4.27-11.27c-.6-1.1-1.28-2.16-1.8-3.3-.69-1.55-.95-3.25-1.62-4.81a9.13,9.13,0,0,0-1.26-1.83,7.73,7.73,0,0,1-.47-1c-.18-.3-.41-.42-.46-.82a5.69,5.69,0,0,1,.05-1.09,9.71,9.71,0,0,0-.51-3,15.5,15.5,0,0,0-.71-2.54c-.73-1.77-1.69-3.47-1.77-5.42,0-.5-.08-1.1-.52-1.34a1.1,1.1,0,0,0-.35-.11,30.51,30.51,0,0,0-4-.91,5.75,5.75,0,0,0-2.55.27c-1.55.64-2.05,2.28-2.38,3.37,0,.18-.1.33-.15.47-.87,2.24-1.73,4.5-2.52,6.78q-1.06,3-1.95,6.12c-.3,1.07-.59,2.15-.85,3.24-.09.36-.16.74-.25,1.27a5.89,5.89,0,0,1-.23,1.08,3.5,3.5,0,0,1-.26.58,4.5,4.5,0,0,0-.25.53l-.19.32a3,3,0,0,0-.62,1.64,2.74,2.74,0,0,0,0,.64,3,3,0,0,0-.64.51c-1.28,1.37-1.72,4.35-2.82,6.06-1.85,2.89-2.41,5.53-2.85,8.92-.88,6.67-3,13.22-4.58,19.69-.29,1.15-.82,1.13-.74,2.53a.57.57,0,0,1-.06.37.48.48,0,0,1-.31.15c-1.14.23-2.48-.3-3.44.34a2.59,2.59,0,0,0-.92,2c-.08,1.35.09,2.68.12,4a.6.6,0,0,0,.63.66,45.73,45.73,0,0,0,7.95.77,62.25,62.25,0,0,1,8,.9l.47.09c2,.43,4,.92,6.06,1.41a6.54,6.54,0,0,0,1.92-.06,27.2,27.2,0,0,0,.36-4c0-.74.27-3.09-.3-3.63-.26-.25-1.14-.18-1.52-.4-1-.58-1.49-1.35-2.73-1.56-.83-.14-1.92.36-2.34-.68-.32-.76.56-3,.69-3.88.15-1,.3-2.21.43-3.17.25-1.85.24-3,.48-4.88a11.43,11.43,0,0,1,.42-2q4.88.92,9.77,1.46c2.27.25,4.51.62,6.77.76.06.54.4.81.57,1.27a2.94,2.94,0,0,1,.28,1.28c.1,1,.2,1.22.28,2.18a46.56,46.56,0,0,0,1,5.61c.31,1.47.53,3,1,4.43.23.78.46,1.56.7,2.34h-.28c-.27,0-.51,0-.81.07a2.31,2.31,0,0,1-.37,0c-1.85,0-3.71,1.1-3.4,4.51,0,.28,0,.55.06.84,0,.66.1,1.31.14,2l1.4.14a46.74,46.74,0,0,0,5.8.28c.45,0,.9-.05,1.35,0a10.34,10.34,0,0,1,1.46.24l1.37.29a42.11,42.11,0,0,0,5.19,1.24c1,.07,11.34-.5,11.32-.26.13-1.38-.55-2.68-1-4a11.42,11.42,0,0,1-.53-2.52C178.38,218.31,178.38,218.26,178.37,218.21Zm-29.85-32.05c.17,1,0,.35.66,1.29s.43,1.07.95,1.88c-.44-.68-2-.07-2.68-.13-1.22-.1-3,.16-4-.69a2.37,2.37,0,0,0-.39-.32,1.5,1.5,0,0,0-.59-.14c-1.34-.14-3.1.21-4.35-.24,1-1.73.69-2.11,1.16-4,.22-.87.72-1.6,1-2.45.34-1,.62-2,1-3a57.88,57.88,0,0,1,2.4-6.29,40.08,40.08,0,0,1,3.21,8.7c.43,1.51,1,3,1.44,4.52C148.4,185.57,148.46,185.87,148.52,186.16Z"/><path class="cls-3" d="M371.69,138.28c.27-3.52.28-6.63-.58-6.73a5.25,5.25,0,0,0-3.15.66c-.57.45-1.92.34-2.67.65a9.59,9.59,0,0,0-2.69,1.66,1.44,1.44,0,0,1-.53.35,3.07,3.07,0,0,1-.53.06c-.85.1-1.43.95-2.25,1.2a5.79,5.79,0,0,1-2.61-.34,13.41,13.41,0,0,0-6.8.9,11.21,11.21,0,0,1-3.53.67,19,19,0,0,0-4.05.73c-3.15.75-6.34,1.29-9.54,1.75-2.13.31-3.37.26-5.54.64l-.45.07c-1.85.33-4,.72-5.53,1.9-1.74,1.33-1.87,3.5-2.1,5.52a33.05,33.05,0,0,1-.64,3.71c-.21.94-1,2.43-.33,3.33a1.71,1.71,0,0,0,1.28.57,7.71,7.71,0,0,1,1.44.12,3.81,3.81,0,0,1,.64.24,8.8,8.8,0,0,0,2,.53,2.42,2.42,0,0,0,2.51-.76c.74-1.21,1.07-2.67,1.95-3.81s2-.83,3.39-1.11A36.73,36.73,0,0,1,337,150l-.14,5.51c-.06,2.39-.11,4.77,0,7.16.05,1.38-.39,2.59-.43,4a28.51,28.51,0,0,1-.22,3.54c-.69,4.57-.49,9.37-1.51,13.83-.43,1.91-1.38,4.72-1.07,6.66a14.4,14.4,0,0,0,.86,2.35,2.24,2.24,0,0,1-.28,2.35,3.18,3.18,0,0,0-.49.48,1.8,1.8,0,0,0,0,1.15c0,.39,0,.88-.39,1-.14.05-.29,0-.43.09-.47.16-.5.8-.44,1.29.12,1,1.16.78.27,2a7.45,7.45,0,0,1-2.64,1.48l-.57.27a26.84,26.84,0,0,1-2.77,1.11l-.21,0a4.18,4.18,0,0,0-.8.29,1,1,0,0,0-.36.18,6.5,6.5,0,0,0-1,.72c-2.16,2-2.05,4.71-2,6.08,0,.15,0,.3,0,.45s0,.52,0,.81.05.86.07,1.29l1.23-.34,2.78-.81,1.63-.5c1.84-.56,3.77-.72,5.61-1.25a22.34,22.34,0,0,0,4.73-2.07,9.45,9.45,0,0,1,2.56-1c.83-.16,1.66.09,2.46-.06,1.44-.29,2.6-1.44,4-1.89s2.57-.72,3.82-1.17a1.13,1.13,0,0,0,.49-.27c.3-.32.22-.82.2-1.25-.08-1.25.5-2.49.65-3.75a10.16,10.16,0,0,0,0-1.56c0-.75-.18-1.65-.84-1.86-1.87-.58-3.67,1.26-5.58.76a1.11,1.11,0,0,1-.89-.95,2.11,2.11,0,0,1,.37-1,7.92,7.92,0,0,0,.62-2.08c1-5.13,2-10.25,2.84-15.41l.66-4c.46-2.77,1.73-5.53,1.53-8.23a16.7,16.7,0,0,1-.09-3.6c.25-1.63,1.14-3.05.9-4.72-.12-.77-.94-4.27-.54-4.83a4.64,4.64,0,0,1,.5-.49,2.76,2.76,0,0,0,.49-1.79,9.44,9.44,0,0,1,.19-2.61c.11-.29.46-.4.76-.47l2.15-.49a25.88,25.88,0,0,1,7.46-.93,6.65,6.65,0,0,1,.14,1.8c0,.66-.05,1.31-.06,2a1,1,0,0,0,.13.59.84.84,0,0,0,.4.23,4.26,4.26,0,0,0,2.5.07,9.81,9.81,0,0,1,2.2-.63,2.3,2.3,0,0,0,1.23-.17c.25-.17.38-.5.64-.67s.37-.15.47-.31a.72.72,0,0,0,.08-.41C370.81,144.73,371.43,141.51,371.69,138.28Z"/><path class="cls-3" d="M111.48,150.87l1.53.31c-.06-.78-.12-1.56-.17-2.33v-.32a24.32,24.32,0,0,0-.52-3.75.34.34,0,0,0-.09-.24.4.4,0,0,0-.21-.07,12.29,12.29,0,0,1-2.69-1,11.8,11.8,0,0,0-2.82-.53l-.26,0c-.23,0-.46-.08-.79-.15a38.62,38.62,0,0,0-4.95-.58L98.75,142c-1.21-.12-2.45-.34-3.93-.62-1.66-.31-3.3-.59-4.91-.76a21.83,21.83,0,0,1-2.33-.34,26.29,26.29,0,0,0-5.09-.32c.17,0-.07,4.19,0,4.62s.28,1,.36,1.54c.18,1.26.18,1.24,1.45,1.46,1.66.29,4.32,1.39,6,1.37-.16,0,.53,5.79.57,6.17.28,2.64-.12,7.6,1.75,9.6a2.57,2.57,0,0,1,.53.66c.38.85-.57,1.83-.28,2.72.11.34.4.65.34,1a1.05,1.05,0,0,1-.43.59c-.5.45-1.28,1.47-1.89,1.7-.24.09-2.18.11-2.18-.21l-1.86-.58c-1.4-.43-1.87-1-3.33-1a21.31,21.31,0,0,1-5-1c-3-.79-5.89-1.93-8.94-2.2-1.09-1.52-.87-7.43-1.12-9.37-.31-2.4-.74-4.8-1.29-7.17-.33-1.4-1.4-4.8.15-5.74.76-.46,2.21-.13,3.67.3l1.32.1c-.06-.49-.11-1-.17-1.47s-.62-6-.48-6.05c-.51.14-.93-.45-1.42-.69a2.57,2.57,0,0,0-.54-.16c-1.61-.34-3.29-1.23-4.92-1.37s-3.53.33-5.28.2a8,8,0,0,1-2.23-.42c-1.24-.46-2.25-1.36-3.52-1.73s-2.64-.43-3.93-.72c-.61-.13-1.22-.27-1.82-.42l-.29-.08a26.53,26.53,0,0,0-3.75-.48,9.29,9.29,0,0,1-.17,2.31,6.07,6.07,0,0,0-.39,2,14.89,14.89,0,0,0,.29,2.5c.11.48.21,1,.32,1.44l1.29.35A13.88,13.88,0,0,1,48.35,141c1,.53,2.66.13,3.15,1.37a7,7,0,0,1,.19,1.46,1.33,1.33,0,0,0,1,1.07,2,2,0,0,0-.27,2,1.43,1.43,0,0,0,1.21,1l.11,2.61a5.13,5.13,0,0,1,0,1,6.52,6.52,0,0,1-.22.87c-.9,3,.25,5,0,7.86-.34,3.53.72,6.82,1.27,10.26.29,1.83.41,3.63.61,5.45.14,1.19.27,2.37.46,3.55s.46,2.42.67,3.63c.48,2.82,2.74,9.52,2.89,12.28.28,5.4-7.47-1.18-6.82,3.3.21,1.45-.61,3,0,4.38a3,3,0,0,0,2.07,1.56c1,.25,2,.17,3,.43a19.72,19.72,0,0,0,3.76.75l.72.06a22.85,22.85,0,0,1,3.28.32c1.37.26,2,1.63,3.71,2.12l.41.11a29.91,29.91,0,0,0,4,.91,2.51,2.51,0,0,1,1,.23,7.43,7.43,0,0,0,4.18.36.77.77,0,0,0,.47-.2.88.88,0,0,0,.12-.26,9.21,9.21,0,0,0-.14-5.8,1.63,1.63,0,0,0-.39-.66c-.84-.76-2.55-.42-3.51-1a8.94,8.94,0,0,1-.84-.65,4.43,4.43,0,0,0-1.26-.65.56.56,0,0,1-.28-.16.39.39,0,0,1-.08-.28c-.18-2.59-.06-5.26-.22-7.89a8.08,8.08,0,0,0-.91-3.86,1.92,1.92,0,0,1-.46-1c0-.4.34-.73.44-1.13a2.6,2.6,0,0,0-.29-1.45c-.68-1.83-.22-1.25-.37-3.15a17.86,17.86,0,0,0-.51-2.52,20.44,20.44,0,0,0-.19-2.16,3.1,3.1,0,0,0,2,1.08c.91.22,1.82.45,2.75.59,1.74.26,3.27.78,5.05,1,1.11.12,1.82.17,2.42.2a22.94,22.94,0,0,1,3.15.37,37.8,37.8,0,0,1,6.65,1.51,11.19,11.19,0,0,1,.32,2.29c.12,2,.46,4,.56,6.06.17,3.27-.15,6.56.21,9.88a5.44,5.44,0,0,1,0,2.09c-.14.47-.4.89-.52,1.37a1.2,1.2,0,0,0,.39,1.3c-1,.8-3.16.32-4.37.28-1,0-1.9.06-2.87.07.09.38-.26.71-.49,1-2.59,3.66,2.71,5.39,5,6.07a37.75,37.75,0,0,0,8.06,1.89,45.66,45.66,0,0,1,5.35.5,7.2,7.2,0,0,1,2,.62c.72.4,1,.83,2,.86a2.28,2.28,0,0,0,1.93-.7,2.76,2.76,0,0,0,.32-1.73l-.14-4.1a19.11,19.11,0,0,1-3.74-1.25c.2-3-.37-6.18.1-9.19.18-1.18.56-2.32.79-3.49.64-3.3-.51-8.26-.57-11.6,0-1-.16-2-.08-3s.7-1.61.7-2.47a4.15,4.15,0,0,0-.23-1.1c-1-3.37-.86-7.38-.91-10.88-.06-3.24-.06-6.48,0-9.71,0-.11,0-.21,0-.31l-.12-.31a1.38,1.38,0,0,1-.09-.59,31.7,31.7,0,0,1,.37-4.11.78.78,0,0,1,.28-.65.7.7,0,0,1,.38-.07c.91,0,1.78-.11,2.68-.12A8.57,8.57,0,0,1,111.48,150.87Z"/><path class="cls-3" d="M239.65,150.21l-.11-.07a2.7,2.7,0,0,0-1.15-.27,21,21,0,0,0-5.76.85,5.55,5.55,0,0,0-2.3,1,1.69,1.69,0,0,1-.46.31,1.42,1.42,0,0,1-.58.06l-2.8-.14a3,3,0,0,1-.94-.14,6.7,6.7,0,0,1-1.08-.67c-1.46-.87-5.41-.64-7-.29-.94.21-1.07.07-1.26.91a13.47,13.47,0,0,0,0,2.46l-.06,4.92c2.22-.18,4.37.68,6.59.78.25,0,.53,5.24.54,5.52a127.15,127.15,0,0,1-.35,12.94c-.05.75,0,1.5-.06,2.25,0,1-.33,2-.31,3a31.23,31.23,0,0,0,.62,3.69,17.85,17.85,0,0,1-.05,4l-.08.92a55.73,55.73,0,0,0-.2,7.3,29.29,29.29,0,0,1-.08,6.14c-1.09,6.12-6.4,9.35-13.57,9.4-.59,0-1.21,0-1.82-.06-3.12-.22-8.53-1.75-8.9-5.43a4.44,4.44,0,0,0-.58-2.35,7.57,7.57,0,0,1-.77-1.33c-.25-.51,0-1.11,0-1.67a7,7,0,0,0-.41-2c-.14-.74-.2-1.51-.34-2.25-.75-3.85-.65-7.86-1-11.75-.55-5.83-.87-11.69-.86-17.54,0-3.4.19-7.2.08-10.58.69-.12,1.34-.25,1.59-.32l.79,0a4,4,0,0,0,2.28-.57c1.28-.83,1.72-2.31,1.28-4.39a8.9,8.9,0,0,1-.12-1.49c0-.62-.07-1.25-.1-1.87l-3.19,0c-7.14-.08-14.53-.3-21.42-1.73l-1.25-.18c-.06.42-.13.85-.19,1.27a8.5,8.5,0,0,0,0,1.82c0,.13,0,.26,0,.33s0,.22,0,.32a6,6,0,0,0,.09,2.1c.81,3.33,3.87,3.66,5,3.78l.15,0a12.18,12.18,0,0,1,.43,1.82c.46,1.15,1.72,2,1.69,3.24a8.12,8.12,0,0,1-.37,1.53c-.91,4.36-.68,8.6-.6,13.1a2.41,2.41,0,0,1,0,.41c-.09,1.12-.64,2.48,0,3.74-.45.84,0,2.93.08,3.85.07,1.59.87,3.32.67,4.9-.74,6,1.91,15.78,3.2,21.73.65,3,1.81,6.35,4.64,7.62a40.32,40.32,0,0,0,3.88,2,6.81,6.81,0,0,1,.89.34,5.87,5.87,0,0,1,1.65,1.45,1.1,1.1,0,0,0,.37.31,1,1,0,0,0,.43.08c1.83.08,3.46.57,5.27.7,2.64.19,5.24.52,7.9.5,4.7,0,9.56-.81,12.24-2.19,3.18-1.63,9.79-8.22,11.06-14.86a44.45,44.45,0,0,0,.58-6.31c.1-2.53.51-5-.34-7.5a4.13,4.13,0,0,1-.43-2.13,4.44,4.44,0,0,1,.33-.9c1.08-2.58.56-6,.54-8.76,0-2.55,0-5.11,0-7.66,0-1.46-.24-3.08.25-4.45a1,1,0,0,0,.09-.65,1.94,1.94,0,0,0-.28-.48,8.06,8.06,0,0,1-.49-2.37,5.32,5.32,0,0,1,.08-3c.07-.19.16-.38.21-.57a3.81,3.81,0,0,0,.08-1.26c-.07-1.1-.33-2.78.63-3.58s4.19-.9,5.61-1.17c.48-.09.62-5.33.65-5.94C240.43,151.86,240.39,150.74,239.65,150.21Z"/><path class="cls-3" d="M313.24,150.06a9.83,9.83,0,0,0,.05-3.42c-.31-1.19-1.06-2-.91-3.33a27.33,27.33,0,0,0-7.81.62,31.59,31.59,0,0,1-5.82.76,47.23,47.23,0,0,0-10.33,1.47c-.53.17-1.16.57-1,1.11a1.45,1.45,0,0,0,.26.47c.73,1.07.25,2.39.23,3.58a5,5,0,0,0,.44,2.81c.5.86,1.57,1.83,3.85,1.54l.36,0a10,10,0,0,1,1.09,0c.3,0,.61,0,.92,0s.85-.06,1.26-.07c0,3.15.09,6.55.21,10.17.14,4.16.16,8.32.11,12.47,0,2.91.11,5.82,0,8.73,0,.77.15,3.41-.45,4-1.08,1-1.55-1.52-1.75-1.45a2.53,2.53,0,0,1-.86.13l-.74-3.46c-.41-1.88-1.57-2.81-2.7-4.28-1.51-2-2.89-4-4.26-6.11a130.73,130.73,0,0,0-8-11.73c-2.8-3.4-4.58-7-7.62-10.31-1.3-1.13-2.35-2.6-3.6-3.79-1.69-1.62-3.47-1.14-5.44-.19a4,4,0,0,1-1.92.24c-2.06-.12-4.11-.44-6.17-.47-1.56,0-3.2-.3-4.32,1.06a2,2,0,0,0-.32,1.21l-.06,1.83a3.76,3.76,0,0,1-.25,1.45,15.15,15.15,0,0,0-.79,2.2,2,2,0,0,0,.93,2c1.45,1,2.19-.28,3.84-.22a1.14,1.14,0,0,1,.55.13c1,.68.44,3.32.39,4.33a54.13,54.13,0,0,1-.74,6.85,23.87,23.87,0,0,0-.44,3.15c-.1,2.49.73,4.94.68,7.43a32,32,0,0,1-.94,5.63c-.44,2.25,0,4.22,0,6.41-.07,2.53-.15,5.06-.19,7.59a28.84,28.84,0,0,0,.49,6.37,1.79,1.79,0,0,1,0,.69c-.09.47-.61.74-.7,1.19s.12.53.17.92a23.48,23.48,0,0,1,.08,3.14,6.7,6.7,0,0,1-.05,1l-.28,0c-2.06.11-4,.65-6,.8a1.58,1.58,0,0,0-.49.1,1.39,1.39,0,0,0-.35.29c-1.49,1.59-1.12,3.39-1.59,5.38-.53,2.26-.7,2.6,1.89,2.55,2.4,0,4.84-.22,7.24-.41,1.53-.12,3-.24,4.55-.34l.44,0c1.26-.09,2.51-.42,3.76-.46a12.87,12.87,0,0,0,3.81-.23,7.07,7.07,0,0,1,1.72-.51c.72,0,6.45,1.69,6.45.36,0-.32.06-.63.1-.95a11.46,11.46,0,0,0,0-1.29,2.17,2.17,0,0,1,0-.51,6,6,0,0,1,.17-.67,4.35,4.35,0,0,0-.29-3.88,3.77,3.77,0,0,0-3.45-1.36,4.23,4.23,0,0,0-1,.06l-1.78.16a13.36,13.36,0,0,1-2.39,0c0-.17-.07-.34-.1-.52-.3-1.38-.85-5.91-1.06-9-.11-1.63,0-9.89-.09-10.79-.3-3.31-.13-6.64-.13-10,0-1.65-.14-3.28-.22-4.93s-.36-3.18-.43-4.78q-.08-1.41,0-2.82a.81.81,0,0,1,0-.31c.35-.75,1.41.62,1.71.93a16.1,16.1,0,0,1,1.64,2,31.67,31.67,0,0,0,2.68,3.57c2.28,2.55,5,4.63,7.08,7.25.67.83,1.75,1.23,2.43,2a23.17,23.17,0,0,0,1.85,2.42c.23.23.46.43.63.64a30.17,30.17,0,0,1,2.46,3.55c1.16,1.82,1.61,4.24,2.3,6.26a35,35,0,0,0,1.14,3.46,18.07,18.07,0,0,0,2.36,3c.83,1.08,1.57,2.23,2.3,3.39q2.61,4.19,5,8.54a1.51,1.51,0,0,0,.71.78,1.41,1.41,0,0,0,.68,0l8.86-.83c.67-12.57,1.29-25.14,1.65-37.68.05-1.66.1-3.31.16-5,.09-2.54-.17-4.86-.16-7.44a2.64,2.64,0,0,0-.19-1.22,8,8,0,0,1-.44-.74,2.37,2.37,0,0,1,.12-1.28c.33-1.4-.46-1.62-.56-2.78,0-.28.17-.53.21-.81.07-.52-.41-.93-.66-1.39a3.52,3.52,0,0,1-.28-1.82,2.48,2.48,0,0,1,.18-1.05c.9-1.7,4.18-2.06,5.74-2.59l2.07-.72Z"/></g></g></svg>