<svg xmlns="http://www.w3.org/2000/svg" xmlns:xlink="http://www.w3.org/1999/xlink" viewBox="0 0 323.8 358.5">
  <defs>
    <style>
      .cls-1 {
        fill: #006838;
      }

      .cls-2 {
        clip-path: url(#clip-path);
      }

      .cls-3 {
        fill: none;
      }

      .cls-4 {
        fill: #3c2415;
      }

      .cls-5 {
        fill: url(#linear-gradient);
      }

      .cls-6 {
        fill: url(#linear-gradient-2);
      }

      .cls-7 {
        fill: url(#linear-gradient-3);
      }

      .cls-8 {
        fill: url(#linear-gradient-4);
      }

      .cls-9 {
        fill: url(#linear-gradient-5);
      }

      .cls-10 {
        fill: url(#linear-gradient-6);
      }

      .cls-11 {
        fill: url(#linear-gradient-7);
      }

      .cls-12 {
        fill: url(#linear-gradient-8);
      }

      .cls-13 {
        fill: url(#linear-gradient-9);
      }

      .cls-14 {
        fill: url(#linear-gradient-10);
      }

      .cls-15 {
        fill: url(#linear-gradient-11);
      }

      .cls-16 {
        fill: url(#linear-gradient-12);
      }

      .cls-17 {
        fill: url(#linear-gradient-13);
      }

      .cls-18 {
        fill: url(#linear-gradient-14);
      }

      .cls-19 {
        fill: url(#linear-gradient-15);
      }

      .cls-20 {
        fill: url(#linear-gradient-16);
      }
    </style>
    <clipPath id="clip-path">
      <path id="Path_28" data-name="Path 28" d="M62.6,293.3a12.5,12.5,0,0,0,12.5,12.5,10.879,10.879,0,0,0,4-.7v10.7a12.51,12.51,0,0,0,24.1,4.7,12.445,12.445,0,0,0,8,2.9,12.651,12.651,0,0,0,2.8-.3v52.5L97.3,383a8.079,8.079,0,0,0-5,8.8,7.984,7.984,0,0,0,8,6.8h58.5a8.151,8.151,0,0,0,8-6.8,7.891,7.891,0,0,0-5-8.7l-17.2-7.6V301.4l8.7-8.7h4.1a11.839,11.839,0,0,0-1.3,5.6v17.6a12.5,12.5,0,0,0,25,0V305.2a13.443,13.443,0,0,0,4,.7,12.274,12.274,0,0,0,10.4-5.6,12.6,12.6,0,0,0,6.1,1.6,10.879,10.879,0,0,0,4-.7v8.6a12.5,12.5,0,0,0,25,0v-6.1a12.124,12.124,0,0,0,7,2.2,12.552,12.552,0,0,0,12.2-9.6A12.558,12.558,0,0,0,269,285.7v-5.8a12.387,12.387,0,0,0,6.3,1.7,12.123,12.123,0,0,0,7-2.2v2.8a12.5,12.5,0,0,0,25,0V265.4a13.443,13.443,0,0,0,4,.7,12.5,12.5,0,0,0,12.5-12.5v-36a67.552,67.552,0,0,0-64.2-67.4,67.709,67.709,0,0,0-63.3-54.1,67.474,67.474,0,0,0-133,.1C28.2,98,0,127.4,0,163.4V300.5a12.5,12.5,0,0,0,25,0V273a13.443,13.443,0,0,0,4,.7,12.123,12.123,0,0,0,7-2.2v54.8a12.5,12.5,0,0,0,25,0Z"/>
    </clipPath>
    <linearGradient id="linear-gradient" x1="1.488" y1="0.5" x2="0.489" y2="0.5" gradientUnits="objectBoundingBox">
      <stop offset="0" stop-color="#39b54a"/>
      <stop offset="0.073" stop-color="#56b947"/>
      <stop offset="0.284" stop-color="#8ac640"/>
      <stop offset="0.488" stop-color="#acd037"/>
      <stop offset="0.68" stop-color="#c4d92e"/>
      <stop offset="0.856" stop-color="#d2de26"/>
      <stop offset="1" stop-color="#d7df23"/>
    </linearGradient>
    <linearGradient id="linear-gradient-2" x1="1.878" y1="0.5" x2="0.881" y2="0.5" xlink:href="#linear-gradient"/>
    <linearGradient id="linear-gradient-3" x1="4.834" y1="0.499" x2="3.843" y2="0.499" xlink:href="#linear-gradient"/>
    <linearGradient id="linear-gradient-4" x1="4.834" y1="0.498" x2="3.843" y2="0.498" xlink:href="#linear-gradient"/>
    <linearGradient id="linear-gradient-5" x1="0.931" y1="0.499" x2="-0.067" y2="0.499" xlink:href="#linear-gradient"/>
    <linearGradient id="linear-gradient-6" x1="16.012" y1="0.499" x2="15.02" y2="0.499" xlink:href="#linear-gradient"/>
    <linearGradient id="linear-gradient-7" x1="-6.525" y1="0.499" x2="-7.517" y2="0.499" xlink:href="#linear-gradient"/>
    <linearGradient id="linear-gradient-8" x1="-1.385" y1="0.5" x2="-2.385" y2="0.5" xlink:href="#linear-gradient"/>
    <linearGradient id="linear-gradient-9" x1="-3.285" y1="0.5" x2="-4.282" y2="0.5" xlink:href="#linear-gradient"/>
    <linearGradient id="linear-gradient-10" x1="-17.754" y1="0.499" x2="-18.745" y2="0.499" xlink:href="#linear-gradient"/>
    <linearGradient id="linear-gradient-11" x1="-2.028" y1="0.498" x2="-3.019" y2="0.498" xlink:href="#linear-gradient"/>
    <linearGradient id="linear-gradient-12" x1="11.705" y1="0.498" x2="10.714" y2="0.498" xlink:href="#linear-gradient"/>
    <linearGradient id="linear-gradient-13" x1="8.207" y1="0.495" x2="7.215" y2="0.495" xlink:href="#linear-gradient"/>
    <linearGradient id="linear-gradient-14" x1="-4.793" y1="0.495" x2="-5.784" y2="0.495" xlink:href="#linear-gradient"/>
    <linearGradient id="linear-gradient-15" x1="-10.689" y1="0.499" x2="-11.681" y2="0.499" xlink:href="#linear-gradient"/>
    <linearGradient id="linear-gradient-16" x1="-7.741" y1="0.497" x2="-8.732" y2="0.497" xlink:href="#linear-gradient"/>
  </defs>
  <g id="Group_27" data-name="Group 27" transform="translate(0 -40.1)">
    <g id="Group_23" data-name="Group 23">
      <path id="Path_27" data-name="Path 27" class="cls-1" d="M62.6,293.3a12.5,12.5,0,0,0,12.5,12.5,10.879,10.879,0,0,0,4-.7v10.7a12.51,12.51,0,0,0,24.1,4.7,12.445,12.445,0,0,0,8,2.9,12.651,12.651,0,0,0,2.8-.3v52.5L97.3,383a8.079,8.079,0,0,0-5,8.8,7.984,7.984,0,0,0,8,6.8h58.5a8.151,8.151,0,0,0,8-6.8,7.891,7.891,0,0,0-5-8.7l-17.2-7.6V301.4l8.7-8.7h4.1a11.839,11.839,0,0,0-1.3,5.6v17.6a12.5,12.5,0,0,0,25,0V305.2a13.443,13.443,0,0,0,4,.7,12.274,12.274,0,0,0,10.4-5.6,12.6,12.6,0,0,0,6.1,1.6,10.879,10.879,0,0,0,4-.7v8.6a12.5,12.5,0,0,0,25,0v-6.1a12.124,12.124,0,0,0,7,2.2,12.552,12.552,0,0,0,12.2-9.6A12.558,12.558,0,0,0,269,285.7v-5.8a12.387,12.387,0,0,0,6.3,1.7,12.123,12.123,0,0,0,7-2.2v2.8a12.5,12.5,0,0,0,25,0V265.4a13.443,13.443,0,0,0,4,.7,12.5,12.5,0,0,0,12.5-12.5v-36a67.552,67.552,0,0,0-64.2-67.4,67.709,67.709,0,0,0-63.3-54.1,67.474,67.474,0,0,0-133,.1C28.2,98,0,127.4,0,163.4V300.5a12.5,12.5,0,0,0,25,0V273a13.443,13.443,0,0,0,4,.7,12.123,12.123,0,0,0,7-2.2v54.8a12.5,12.5,0,0,0,25,0Z"/>
    </g>
    <g id="Group_25" data-name="Group 25">
      <g id="Group_24" data-name="Group 24" class="cls-2">
        <rect id="Rectangle_17" data-name="Rectangle 17" class="cls-3" width="420.48" height="420.48" transform="translate(0.064)"/>
      </g>
    </g>
    <path id="Path_29" data-name="Path 29" class="cls-4" d="M89,274.8h8.9l-9.5-9.5a5.586,5.586,0,1,1,7.9-7.9l9.5,9.5v-9.7a5.6,5.6,0,1,1,11.2,0V278l8,8a5.3,5.3,0,0,1,2.8-.7h4.9a5.835,5.835,0,0,1,2.6.6l18.5-18.2a5.887,5.887,0,0,1,2.7-2.7l23.1-22.7v-7.1a5.6,5.6,0,1,1,11.2,0v4.9h28.3a5.6,5.6,0,0,1,0,11.2H186.4l-13.5,13.3h12.8a5.6,5.6,0,0,1,0,11.2H161.6l-23.1,22.7v77.8a6.387,6.387,0,0,1-1,3.3l22.5,10a1.073,1.073,0,0,1-.3,2.1H101a1.124,1.124,0,0,1-.3-2.2l22.2-9.8a5.456,5.456,0,0,1-1.1-3.3V299L109,285.9H89a5.591,5.591,0,0,1-5.6-5.6A5.507,5.507,0,0,1,89,274.8Z"/>
    <g id="Group_26" data-name="Group 26">
      <path id="Path_30" data-name="Path 30" class="cls-5" d="M130.9,173.2a44,44,0,0,1,44,44v13.5a5.6,5.6,0,1,1-11.2,0V217.2a32.85,32.85,0,1,0-65.7,0v25.9a5.6,5.6,0,1,1-11.2,0V217.2A44.215,44.215,0,0,1,130.9,173.2Z"/>
      <path id="Path_31" data-name="Path 31" class="cls-6" d="M130.9,192.8a24.433,24.433,0,0,1,24.4,24.4v32.9a5.6,5.6,0,0,1-11.2,0V217.2a13.3,13.3,0,1,0-26.6,0v18.1a5.6,5.6,0,1,1-11.2,0V217.2A24.736,24.736,0,0,1,130.9,192.8Z"/>
      <path id="Path_32" data-name="Path 32" class="cls-7" d="M130.9,210.6a5.591,5.591,0,0,1,5.6,5.6V263a5.6,5.6,0,1,1-11.2,0V216.2A5.591,5.591,0,0,1,130.9,210.6Z"/>
      <path id="Path_33" data-name="Path 33" class="cls-8" d="M130.9,100.6a5.591,5.591,0,0,1,5.6,5.6v26.4a5.6,5.6,0,1,1-11.2,0V106.2A5.591,5.591,0,0,1,130.9,100.6Z"/>
      <path id="Path_34" data-name="Path 34" class="cls-9" d="M7.7,163.2V300.3a5.6,5.6,0,1,0,11.2,0V163.2a49.423,49.423,0,0,1,98.6-4.9,46.075,46.075,0,0,0-5.3,1.5,44.021,44.021,0,0,0-87.9,3.5v97.8a5.6,5.6,0,1,0,11.2,0V163.3a32.9,32.9,0,1,1,65.8,0c0,.4.1.8.1,1.2a62.4,62.4,0,0,0-8.6,5.9v-7.1a24.4,24.4,0,0,0-48.8,0v163a5.6,5.6,0,1,0,11.2,0v-163a13.3,13.3,0,0,1,26.6,0v16.5a4.058,4.058,0,0,0,.4,1.9,60.159,60.159,0,0,0-11.6,35.6v75.9a5.6,5.6,0,1,0,11.2,0V217.3a49.5,49.5,0,0,1,40.6-48.6,4.868,4.868,0,0,0,1.2.1,6.008,6.008,0,0,0,2.7-.7,39.345,39.345,0,0,1,4.9-.2c2.1,0,4.2.2,6.3.4a6.042,6.042,0,0,0,2.4.5h.7a49.548,49.548,0,0,1,40.1,48.5,5.6,5.6,0,1,0,11.2,0,60.173,60.173,0,0,0-11-34.7,5.376,5.376,0,0,0,.8-2.8V163.3a13.3,13.3,0,0,1,26.6,0v16.5a7.8,7.8,0,0,0,.4,2.2,60.3,60.3,0,0,0-11.4,35.4v11.3a5.6,5.6,0,0,0,11.2,0V217.4A49.491,49.491,0,0,1,249,168.8a4.1,4.1,0,0,0,1.1.1,4.406,4.406,0,0,0,2.6-.7,45.33,45.33,0,0,1,5.2-.3,49.442,49.442,0,0,1,49.4,49.4v36a5.6,5.6,0,0,0,11.2,0v-36A60.581,60.581,0,0,0,258,156.8a24.367,24.367,0,0,0-2.7.1,60.586,60.586,0,0,0-60.2-54.1c-1.1,0-2.2,0-3.3.1a60.573,60.573,0,0,0-120.8,0c-.7,0-1.5-.1-2.2-.1A60.5,60.5,0,0,0,7.7,163.2Zm172.5-58.8a55.171,55.171,0,0,0-5.4,1.6,44.027,44.027,0,0,0-88-.4,47.747,47.747,0,0,0-5.4-1.5,49.494,49.494,0,0,1,98.8.3Zm63.5,53.9a46.075,46.075,0,0,0-5.3,1.5,44.026,44.026,0,0,0-87.8.2c-1.7-.6-3.5-1.1-5.3-1.6a49.432,49.432,0,0,1,98.4-.1Zm-82.4,6.6a4.671,4.671,0,0,0,.3-1.7,32.9,32.9,0,1,1,65.8,0,6.753,6.753,0,0,0,.2,1.4,57.822,57.822,0,0,0-8.7,5.9v-7.3a24.4,24.4,0,1,0-48.8,0v8A54.312,54.312,0,0,0,161.3,164.9Zm-32.8-8.2a60.177,60.177,0,0,0-11.8-29.9,5.384,5.384,0,0,0,.9-3.1V107.2a13.3,13.3,0,1,1,26.6,0v16.5a5.388,5.388,0,0,0,1.5,3.7,59.153,59.153,0,0,0-11.3,29.3c-1.1-.1-2.3-.1-3.4-.1A21.749,21.749,0,0,1,128.5,156.7ZM97.2,110a5.3,5.3,0,0,0,.7-2.8,32.9,32.9,0,1,1,65.8,0,5.779,5.779,0,0,0,1,3.2,57.473,57.473,0,0,0-9.5,6.6v-9.9a24.4,24.4,0,1,0-48.8,0v9A66.722,66.722,0,0,0,97.2,110Z"/>
      <path id="Path_35" data-name="Path 35" class="cls-10" d="M68.3,156.5a5.591,5.591,0,0,1,5.6,5.6v26.4a5.6,5.6,0,1,1-11.2,0V162.1A5.591,5.591,0,0,1,68.3,156.5Z"/>
      <path id="Path_36" data-name="Path 36" class="cls-11" d="M188.9,188.5V162.1a5.6,5.6,0,0,1,11.2,0v26.4a5.591,5.591,0,0,1-5.6,5.6A5.656,5.656,0,0,1,188.9,188.5Z"/>
      <path id="Path_37" data-name="Path 37" class="cls-12" d="M218.9,234.1a5.591,5.591,0,0,1-5.6-5.6V217.2a44,44,0,0,1,88,0v64.7a5.6,5.6,0,1,1-11.2,0V217.2a32.9,32.9,0,1,0-65.8,0v11.3A5.3,5.3,0,0,1,218.9,234.1Z"/>
      <path id="Path_38" data-name="Path 38" class="cls-13" d="M257.4,192.8a24.433,24.433,0,0,1,24.4,24.4v51.6a5.6,5.6,0,1,1-11.2,0V217.2a13.3,13.3,0,1,0-26.6,0v75.9a5.6,5.6,0,0,1-11.2,0V217.2A24.67,24.67,0,0,1,257.4,192.8Z"/>
      <path id="Path_39" data-name="Path 39" class="cls-14" d="M257.4,210.6a5.591,5.591,0,0,1,5.6,5.6v69.3a5.6,5.6,0,0,1-11.2,0V216.2A5.591,5.591,0,0,1,257.4,210.6Z"/>
      <path id="Path_40" data-name="Path 40" class="cls-15" d="M169.3,292.5a5.591,5.591,0,0,1,5.6,5.6v17.6a5.6,5.6,0,1,1-11.2,0V298.1A5.723,5.723,0,0,1,169.3,292.5Z"/>
      <path id="Path_41" data-name="Path 41" class="cls-16" d="M92.4,292.5a5.591,5.591,0,0,1,5.6,5.6v17.6a5.6,5.6,0,1,1-11.2,0V298.1A5.723,5.723,0,0,1,92.4,292.5Z"/>
      <path id="Path_42" data-name="Path 42" class="cls-17" d="M112,297.5a5.591,5.591,0,0,1,5.6,5.6v7.7a5.6,5.6,0,1,1-11.2,0V303A5.636,5.636,0,0,1,112,297.5Z"/>
      <path id="Path_43" data-name="Path 43" class="cls-18" d="M184.8,282.3a5.591,5.591,0,0,1,5.6,5.6v6.6a5.6,5.6,0,1,1-11.2,0v-6.6A5.528,5.528,0,0,1,184.8,282.3Z"/>
      <path id="Path_44" data-name="Path 44" class="cls-19" d="M217.8,256.5a5.591,5.591,0,0,1,5.6,5.6v47.6a5.6,5.6,0,1,1-11.2,0V262A5.635,5.635,0,0,1,217.8,256.5Z"/>
      <path id="Path_45" data-name="Path 45" class="cls-20" d="M201.3,256.5a5.591,5.591,0,0,1,5.6,5.6v24.1a5.6,5.6,0,1,1-11.2,0V262A5.569,5.569,0,0,1,201.3,256.5Z"/>
    </g>
  </g>
</svg>
