<svg xmlns="http://www.w3.org/2000/svg" viewBox="0 0 138.26 78.99"><defs><style>.cls-1{fill:#f7941d;}.cls-2{fill:#085eac;}.cls-3{fill:#7b0000;}.cls-4{fill:#ed1c24;}</style></defs><title>viva</title><g id="Layer_2" data-name="Layer 2"><g id="Layer_1-2" data-name="Layer 1"><g id="_Group_" data-name="&lt;Group&gt;"><path id="_Compound_Path_" data-name="&lt;Compound Path&gt;" class="cls-1" d="M11,62.83l-.18,0-1.76,0c-1,0-1.48,0-2,0l.22-.7c.63-.05.8-.29.8-1.18V55.83c0-.89-.24-1.15-1-1.15H6.92l.22-.74a.65.65,0,0,0,.18,0h6.35l.16,0c.25.91.32,1.15.65,2.09l-.76.35a2.33,2.33,0,0,0-1-1.27,2.59,2.59,0,0,0-.79-.24c-.37,0-1.13-.08-1.57-.08h-.13l-.48,0H9.66v2.72h.68A5.2,5.2,0,0,0,12,57.41c.24-.1.34-.26.4-.64l.7-.3c0,.7,0,1.2,0,1.55s0,.74,0,1.34l-.72.34c0-1.24-.16-1.34-1.91-1.34H9.66v2.56c0,.68.05.87.25,1a3.75,3.75,0,0,0,1.32.22Z"/><path id="_Compound_Path_2" data-name="&lt;Compound Path&gt;" class="cls-1" d="M19.6,62.83c-.64,0-.87,0-1.83,0l-1.54,0-.17,0,.22-.7c.63-.05.8-.29.8-1.18V55.83c0-.89-.24-1.15-1-1.15h-.12l.22-.74c.52,0,.72,0,1.31,0s1,0,1.37,0l1.49-.08h.32c1.81,0,2.8.73,2.8,2.08,0,1-.56,1.69-1.79,2a1.78,1.78,0,0,1,.9.55,2.13,2.13,0,0,1,.42.81c.14.45.35,1.32.43,1.78.13.79.35,1,1.18,1l-.22.7-.18,0-1,0-1,0-.19,0a15.94,15.94,0,0,0-.68-3.07,1.86,1.86,0,0,0-2-1.46h-.38l.41-.81h.41c1.16,0,1.83-.52,1.83-1.45s-.67-1.35-2-1.35a5.63,5.63,0,0,0-1,.08v6.13c0,.19,0,.34,0,.44A.77.77,0,0,0,19,62c.16.12.33.15.82.18Z"/><path id="_Compound_Path_3" data-name="&lt;Compound Path&gt;" class="cls-1" d="M26.27,62.13c.63-.05.8-.29.8-1.18V55.83c0-.89-.24-1.15-1-1.15h-.12l.23-.74c.47,0,.63,0,1.21,0h3.83c.77,0,1.21,0,1.66,0,.24,1,.31,1.17.61,2.12l-.76.33a2.16,2.16,0,0,0-.94-1.28,5.46,5.46,0,0,0-2.4-.32c-.19,0-.32,0-.61,0h-.08v2.84h.66a9.35,9.35,0,0,0,1.35-.06c.51-.05.69-.22.73-.66v0l.69-.3c0,.71,0,1.24,0,1.6s0,.72,0,1.31l-.7.32a2,2,0,0,0-.12-.87c-.16-.4-.44-.47-1.91-.47-.15,0-.39,0-.69,0v2.42C28.67,61.79,29,62,30,62A2.68,2.68,0,0,0,33,60.19L33.8,60c-.38,1.26-.46,1.57-.74,2.81-.68,0-1.34,0-3,0H27.63c-.87,0-1,0-1.59,0Z"/><path id="_Compound_Path_4" data-name="&lt;Compound Path&gt;" class="cls-1" d="M35.65,61.38c0-.38,0-.94,0-1.68l.81.34a2.88,2.88,0,0,0,.16.8,2.08,2.08,0,0,0,2.07,1.35,1.65,1.65,0,0,0,1.82-1.67c0-.81-.4-1.22-1.53-1.6a6.72,6.72,0,0,1-2.24-1,2.18,2.18,0,0,1-.84-1.72c0-1.45,1.2-2.45,3-2.45a6.1,6.1,0,0,1,1.66.27,1.81,1.81,0,0,0,.43.08c.21,0,.34-.08.58-.32,0,.66,0,1.17,0,1.51s0,.7,0,1.24l-.73-.37a2.11,2.11,0,0,0-.23-.71,1.93,1.93,0,0,0-1.7-.89c-.91,0-1.55.52-1.55,1.24s.45,1,1.65,1.44A5.76,5.76,0,0,1,41,58.33a2.45,2.45,0,0,1,.86,1.87A2.9,2.9,0,0,1,38.69,63,6.5,6.5,0,0,1,37,62.75a2.77,2.77,0,0,0-.65-.14,1,1,0,0,0-.75.32C35.64,62.24,35.65,61.72,35.65,61.38Z"/><path id="_Compound_Path_5" data-name="&lt;Compound Path&gt;" class="cls-2" d="M65.59,62.13c.62-.05.8-.29.8-1.18V55.83c0-.89-.24-1.15-1-1.15h-.12l.23-.74c.61,0,.84,0,1.78,0s1.16,0,1.79,0l-.23.74c-.62,0-.82.3-.82,1.1v1.43l1.72.77,1.73-.77V55.83c0-.89-.24-1.15-1-1.15h-.12l.23-.74c.62,0,.84,0,1.78,0s1.16,0,1.79,0l-.23.74c-.62,0-.82.3-.82,1.1v5.14c0,.2,0,.35,0,.44a.71.71,0,0,0,.31.59c.16.12.33.15.82.18l-.23.7c-.63,0-.86,0-1.81,0l-1.56,0-.17,0,.23-.7c.62-.05.8-.29.8-1.18V58.22L69.71,59,68,58.22v2.7c0,.19,0,.34,0,.44a.71.71,0,0,0,.31.59c.16.12.33.15.82.18l-.22.7c-.64,0-.87,0-1.83,0l-1.54,0-.18,0Z"/><path id="_Compound_Path_6" data-name="&lt;Compound Path&gt;" class="cls-2" d="M76.07,62.13c.63-.05.8-.29.8-1.18V55.83c0-.89-.24-1.15-1-1.15h-.12l.22-.74c.47,0,.63,0,1.22,0H81c.77,0,1.21,0,1.67,0a21.11,21.11,0,0,0,.61,2.12l-.76.33a2.13,2.13,0,0,0-1-1.28,5.46,5.46,0,0,0-2.4-.32c-.18,0-.32,0-.61,0h-.08v2.84h.67a9.27,9.27,0,0,0,1.34-.06c.51-.05.7-.22.74-.66v0l.69-.3c0,.71,0,1.24,0,1.6s0,.72,0,1.31l-.71.32a2,2,0,0,0-.12-.87c-.16-.4-.44-.47-1.91-.47-.14,0-.38,0-.69,0v2.42c0,.87.28,1.09,1.37,1.09a2.67,2.67,0,0,0,2.92-1.82L83.6,60c-.37,1.26-.45,1.57-.73,2.81-.68,0-1.35,0-3,0H77.43c-.86,0-1,0-1.58,0Z"/><path id="_Compound_Path_7" data-name="&lt;Compound Path&gt;" class="cls-2" d="M103,60l0,.11c-.19.7-.32,1.14-.37,1.34s-.12.55-.29,1.24l0,.11-.18,0c-.38,0-1.43,0-3.16,0s-3,0-3.4,0l-.17,0,.22-.7c.63-.05.8-.29.8-1.18V55.83c0-.89-.24-1.15-1-1.15h-.12l.22-.74c.62,0,.84,0,1.79,0s1.16,0,1.78,0l-.22.74c-.63,0-.83.3-.83,1.1v5a1.7,1.7,0,0,0,.1.79c.14.28.54.41,1.29.41a2.54,2.54,0,0,0,2.8-1.81Z"/><path id="_Compound_Path_8" data-name="&lt;Compound Path&gt;" class="cls-2" d="M105.35,62.13c.63-.05.79-.29.79-1.18V55.78c0-.24,0-.33,0-.48,0-.36-.2-.49-.57-.49-.79,0-1.36.54-1.73,1.68l-.82.16c.4-1.35.5-1.67.79-3h.71c.12.27.16.29.61.31h3.68a3.43,3.43,0,0,0,.38,0c.11,0,.14-.08.23-.27h.69c.31,1.29.39,1.61.79,3l-.8-.16c-.39-1.14-1-1.68-1.73-1.68a.53.53,0,0,0-.52.24,1.76,1.76,0,0,0-.08.73v5.14c0,.19,0,.34,0,.44a.71.71,0,0,0,.31.59c.16.12.33.15.81.18l-.21.7c-.64,0-.87,0-1.83,0l-1.54,0-.18,0Z"/><path id="_Compound_Path_9" data-name="&lt;Compound Path&gt;" class="cls-2" d="M128.2,62.83c-.63,0-.87,0-1.82,0l-1.54,0-.19,0,.23-.7c.64-.05.8-.29.8-1.18V59.22l-2.13-3.59a5.34,5.34,0,0,0-.51-.7c-.16-.18-.32-.23-.73-.25l.22-.74c.63,0,.83,0,1.83,0s1.21,0,1.84,0l-.23.74h-.07c-.41,0-.69.17-.69.43a1.81,1.81,0,0,0,.33.82l1.34,2.23,1.28-2.35a1.73,1.73,0,0,0,.28-.75c0-.27-.18-.4-.55-.4a.37.37,0,0,0-.13,0l.22-.74.19,0,1.14,0,1.11,0,.19,0-.23.74h0a.89.89,0,0,0-.4.06,2.54,2.54,0,0,0-.76,1l-1.9,3.52v1.66c0,.19,0,.34,0,.44a.73.73,0,0,0,.3.59,1.46,1.46,0,0,0,.82.18Z"/><path id="_Compound_Path_10" data-name="&lt;Compound Path&gt;" class="cls-3" d="M14.05,78.12c.67,0,.9-.37,1-1.44L15.43,72c0-.26,0-.46,0-.59,0-.56-.31-.79-1.07-.79l.23-.73h.17c.37,0,.76,0,1.15,0s.78,0,1.14,0h.19l2,6.81,2.12-6.8h.16c.65,0,1,0,1.36,0s.78,0,1.17,0h.17l-.22.73c-.66,0-.8.18-.8.78,0,.12,0,.24,0,.37l.37,5.06c.07.95.27,1.19,1,1.24h.16l-.22.7c-.64,0-.87,0-1.83,0l-1.54,0-.19,0,.23-.7c.65-.08.82-.24.82-.73,0-.11,0-.2,0-.31l-.35-4.94-2.1,6.68H19.4a5.07,5.07,0,0,0-.52,0,5.24,5.24,0,0,0-.56,0l-2-6.66L16,76.61a5.12,5.12,0,0,0,0,.61c0,.66.2.86,1,.9l-.23.7-.17,0-1.24,0L14,78.8l-.17,0Z"/><path id="_Compound_Path_11" data-name="&lt;Compound Path&gt;" class="cls-3" d="M27.64,75.33v.16c0,1.51.74,2.49,1.88,2.49.83,0,1.36-.4,1.93-1.43l.71.48a4,4,0,0,1-.72,1,3.19,3.19,0,0,1-2.3.95A3.08,3.08,0,0,1,26,75.58c0-2.16,1.32-3.72,3.13-3.72A2.58,2.58,0,0,1,31.36,73a4.17,4.17,0,0,1,.52,2.31Zm1.7-.79c.78,0,.91-.08.91-.51A1.32,1.32,0,0,0,29,72.65c-.77,0-1.25.66-1.34,1.89Z"/><path id="_Compound_Path_12" data-name="&lt;Compound Path&gt;" class="cls-3" d="M33.36,78.15a1.36,1.36,0,0,0,.52-.13,1.87,1.87,0,0,0,.33-.27c.1-.09.2-.21.34-.35s.25-.28.32-.36L36,75.69l-1.56-2.1c-.53-.72-.68-.81-1.31-.88l.22-.67c.61,0,.81,0,1.7,0s1.17,0,1.81,0l-.22.67h-.12c-.31,0-.5.14-.5.35a1.11,1.11,0,0,0,.28.56l.66.88.77-1c.21-.27.28-.39.28-.51s-.13-.28-.39-.28h-.09l.23-.67h.17l1,0,1,0h.18l-.23.67a.77.77,0,0,0-.45.1,4,4,0,0,0-.77.78l-1.26,1.55,1.46,2a4.27,4.27,0,0,0,.82.88,1.79,1.79,0,0,0,.69.16l-.22.67c-.55,0-.72,0-1.68,0s-1.24,0-1.84,0l.23-.67c.41,0,.53-.11.53-.35a1,1,0,0,0-.25-.53l-.7-.94-.77,1c-.25.32-.35.47-.35.58s.18.25.44.25h.06l-.23.67-.16,0-1,0-1.09,0-.18,0Z"/><path id="_Compound_Path_13" data-name="&lt;Compound Path&gt;" class="cls-3" d="M45.1,78.82l-.18,0-1.45,0-1.41,0-.17,0,.21-.67c.56-.05.67-.24.67-1.32V74.45c0-.34,0-.64,0-.79-.07-.35-.28-.51-.71-.51l-.2,0L42,72.5a12.42,12.42,0,0,0,1.62-.64h.68l0,.1,0,.88v3.31c0,1.07.07,1.49.24,1.72a1.11,1.11,0,0,0,.82.28ZM42.75,69.7l1.51-.62v1.6l-1.51.62Z"/><path id="_Compound_Path_14" data-name="&lt;Compound Path&gt;" class="cls-3" d="M46.71,72.12l0-.06,1.43-1.49.07-.09h.64v.08c0,.46,0,.82,0,1.17V72H49c.11,0,.32,0,.64,0l.73,0a.34.34,0,0,0,.13,0l-.22.81H48.84v3.3l0,.62,0,.56c0,.6.22.81.67.81a1.72,1.72,0,0,0,.84-.24l-.27.86a2.9,2.9,0,0,1-1.25.29,1.71,1.71,0,0,1-1.2-.4c-.23-.23-.31-.52-.31-1.2,0-.12,0-.31,0-.58s0-.42,0-.54V72.79h-.88Z"/><path id="_Compound_Path_15" data-name="&lt;Compound Path&gt;" class="cls-3" d="M54.84,78.82l-.18,0-1.45,0-1.41,0-.17,0,.21-.67c.56-.05.67-.24.67-1.32v-5c0-.34,0-.64,0-.79-.07-.35-.28-.49-.71-.49h-.2l.21-.67a11.15,11.15,0,0,0,1.62-.64h.68l0,.09,0,.88V72.9l.13-.08c.23-.15.47-.29.71-.42a2.88,2.88,0,0,1,1.7-.54c1.11,0,1.48.47,1.48,1.85v2.48l0,.92c0,.81.22,1,1,1l-.22.67-.18,0-1,0-1,0-.17,0v-.28l0-.43v-3.4c0-1.37-.17-1.77-.76-1.77a2.92,2.92,0,0,0-1.73.92v2.29c0,1.07.07,1.49.24,1.72a1.11,1.11,0,0,0,.82.28Z"/><path id="_Compound_Path_16" data-name="&lt;Compound Path&gt;" class="cls-3" d="M65.2,79c-.52,0-.85-.33-1-1a2.35,2.35,0,0,1-2,1.08,1.91,1.91,0,0,1-2-1.89,2,2,0,0,1,.56-1.4,3.13,3.13,0,0,1,.6-.45A15,15,0,0,1,63,74.42c.86-.37,1-.55,1-1s-.29-.74-.82-.74a2.18,2.18,0,0,0-1,.25c-.2.11-.33.25-.33.39s0,.13.14.17.26.15.26.29c0,.3-.42.51-1,.51s-1-.27-1-.65a1.6,1.6,0,0,1,.9-1.11,5.4,5.4,0,0,1,2.61-.68,2.11,2.11,0,0,1,1.39.4c.28.24.37.58.37,1.25V76c0,.1,0,.29,0,.55s0,.35,0,.48c0,.42.15.63.39.63a.56.56,0,0,0,.42-.23l.47.52C66.11,78.7,65.67,79,65.2,79Zm-2.13-3.71c-1,.53-1.33,1-1.33,1.59a1,1,0,0,0,1,1.06c.84,0,1.29-.7,1.29-2V74.78A7.62,7.62,0,0,0,63.07,75.25Z"/><path id="_Compound_Path_17" data-name="&lt;Compound Path&gt;" class="cls-3" d="M73.64,77.15A3,3,0,0,1,70.84,79C69.08,79,68,77.67,68,75.62c0-2.27,1.23-3.76,3.08-3.76,1.26,0,2.34.75,2.34,1.63,0,.5-.44.84-1.13.84-.5,0-.84-.18-.84-.44a.37.37,0,0,1,.16-.27.64.64,0,0,0,.16-.12.26.26,0,0,0,.1-.23.75.75,0,0,0-.83-.66c-.88,0-1.4,1-1.4,2.65s.64,2.66,1.69,2.66a1.69,1.69,0,0,0,1.29-.64,3,3,0,0,0,.38-.6Z"/><path id="_Compound_Path_18" data-name="&lt;Compound Path&gt;" class="cls-3" d="M79.85,79c-.52,0-.86-.33-1-1a2.36,2.36,0,0,1-2,1.08,1.91,1.91,0,0,1-2.06-1.89,2,2,0,0,1,.56-1.4,3.91,3.91,0,0,1,.6-.45,15.44,15.44,0,0,1,1.75-.83c.85-.37,1-.55,1-1s-.3-.74-.83-.74a2.21,2.21,0,0,0-1,.25c-.2.11-.33.25-.33.39s0,.13.15.17.25.15.25.29c0,.3-.41.51-1,.51s-1-.27-1-.65a1.6,1.6,0,0,1,.91-1.11,5.35,5.35,0,0,1,2.61-.68,2.08,2.08,0,0,1,1.38.4c.28.24.38.58.38,1.25V76c0,.1,0,.29,0,.55s0,.35,0,.48q0,.63.39.63a.58.58,0,0,0,.43-.23l.46.52C80.75,78.7,80.31,79,79.85,79Zm-2.14-3.71c-.95.53-1.33,1-1.33,1.59a1,1,0,0,0,1,1.06c.84,0,1.29-.7,1.29-2V74.78A8.35,8.35,0,0,0,77.71,75.25Z"/><path id="_Compound_Path_19" data-name="&lt;Compound Path&gt;" class="cls-3" d="M85.06,72.46a3.54,3.54,0,0,1,1.9-.6,1.22,1.22,0,0,1,1.25.72,2.88,2.88,0,0,1,.15,1.13v3.4c0,.81.23,1,1,1l-.22.67-.18,0-1,0-1,0-.17,0v-.28l0-.43v-3.4c0-1.36-.17-1.77-.75-1.77a3,3,0,0,0-1.74.92v2.29c0,1.08.06,1.49.24,1.72a1.11,1.11,0,0,0,.82.28l-.22.67-.18,0-1.45,0-1.41,0-.17,0,.21-.67c.56-.05.66-.24.66-1.32V74.45c0-.34,0-.64,0-.79-.07-.35-.28-.51-.71-.51l-.2,0,.21-.67a12.27,12.27,0,0,0,1.61-.64h.68V72l0,.88v.06A5.34,5.34,0,0,1,85.06,72.46Z"/><path id="_Compound_Path_20" data-name="&lt;Compound Path&gt;" class="cls-3" d="M97.62,78.82l-.17,0-1.76,0c-1,0-1.48,0-2,0l.23-.7c.62-.05.8-.29.8-1.18V71.82c0-.89-.24-1.16-1-1.16h-.12l.23-.73h.17c.07,0,.45,0,1.15,0H99l1.32,0h.15c.26.91.32,1.15.66,2.09l-.76.35a2.33,2.33,0,0,0-1-1.27,2.59,2.59,0,0,0-.79-.24c-.37,0-1.13-.08-1.57-.08h-.13l-.48,0h-.08v2.71H97a5,5,0,0,0,1.63-.12c.24-.09.33-.25.4-.63l.69-.3c0,.69,0,1.2,0,1.55s0,.74,0,1.34l-.72.34c0-1.24-.16-1.34-1.9-1.34h-.77v2.56c0,.68,0,.87.25,1a3.69,3.69,0,0,0,1.32.22Z"/><path id="_Compound_Path_21" data-name="&lt;Compound Path&gt;" class="cls-3" d="M104.74,71.9a3.13,3.13,0,0,1,3.15,3.4c0,2.2-1.32,3.69-3.27,3.69s-3.14-1.32-3.14-3.4v-.2C101.57,73.3,102.87,71.9,104.74,71.9Zm-1.59,3.67c0,1.65.6,2.7,1.56,2.7s1.52-1.15,1.52-2.92c0-1.6-.63-2.71-1.52-2.71s-1.53,1.1-1.56,2.82Z"/><path id="_Compound_Path_22" data-name="&lt;Compound Path&gt;" class="cls-3" d="M112.16,71.9a3.13,3.13,0,0,1,3.15,3.4C115.31,77.5,114,79,112,79s-3.13-1.32-3.13-3.4v-.2C109,73.3,110.29,71.9,112.16,71.9Zm-1.59,3.67c0,1.65.6,2.7,1.56,2.7s1.52-1.15,1.52-2.92c0-1.6-.63-2.71-1.52-2.71s-1.53,1.1-1.56,2.82Z"/><path id="_Compound_Path_23" data-name="&lt;Compound Path&gt;" class="cls-3" d="M123,78.42c-.71.22-.88.29-1.57.56h-.67V77.83a2.26,2.26,0,0,1-2,1.16c-1.46,0-2.46-1.31-2.46-3.22,0-2.26,1.2-3.88,2.86-3.88a2.25,2.25,0,0,1,1.49.55v-.6a5.11,5.11,0,0,0,0-.79c0-.35-.28-.49-.7-.49h-.2l.21-.67a12.27,12.27,0,0,0,1.63-.64h.66v.09l0,.88v5.69s0,.28,0,.76c0,.88.17,1.07.82,1.07h.18Zm-3.54-5.6c-.91,0-1.48,1.08-1.48,2.77,0,1.37.5,2.23,1.34,2.23s1.37-.8,1.37-2.16v-1.4A1.36,1.36,0,0,0,119.45,72.82Z"/><path id="_Compound_Path_24" data-name="&lt;Compound Path&gt;" class="cls-1" d="M44,62.14c.63,0,.8-.29.8-1.18V55.84c0-.89-.24-1.16-1-1.16H43.6l.23-.73c.61,0,.84,0,1.79,0s1.15,0,1.78,0l-.23.73c-.62,0-.82.31-.82,1.11v1.42l1.72.78,1.73-.78V55.84c0-.89-.24-1.16-1-1.16h-.12l.23-.73c.63,0,.84,0,1.78,0s1.16,0,1.79,0l-.23.73c-.62,0-.82.31-.82,1.11v5.14c0,.2,0,.35,0,.44a.73.73,0,0,0,.31.59,1.59,1.59,0,0,0,.82.18l-.22.69c-.64,0-.87,0-1.82,0-.66,0-1.17,0-1.55,0h-.18l.23-.69c.63,0,.8-.29.8-1.18V58.23L48.07,59l-1.72-.77v2.7c0,.19,0,.33,0,.44a.73.73,0,0,0,.31.59,1.59,1.59,0,0,0,.82.18l-.22.69c-.64,0-.87,0-1.83,0-.65,0-1.16,0-1.54,0h-.18Z"/><path id="_Compound_Path_25" data-name="&lt;Compound Path&gt;" class="cls-2" d="M112.43,62.13c.63-.05.8-.29.8-1.18V55.83c0-.89-.24-1.15-1-1.15h-.12l.22-.74c.62,0,.84,0,1.79,0s1.16,0,1.78,0l-.22.74c-.63,0-.83.3-.83,1.1v1.43l1.73.77,1.72-.77V55.83c0-.89-.24-1.15-1-1.15h-.12l.22-.74c.63,0,.84,0,1.79,0s1.16,0,1.78,0l-.22.74c-.63,0-.83.3-.83,1.1v5.14c0,.2,0,.35,0,.44a.77.77,0,0,0,.31.59c.16.12.33.15.83.18l-.23.7c-.64,0-.87,0-1.81,0l-1.56,0-.17,0,.22-.7c.63-.05.8-.29.8-1.18V58.22l-1.72.78-1.73-.78v2.7a2.63,2.63,0,0,0,0,.44.73.73,0,0,0,.3.59c.16.12.33.15.83.18l-.23.7c-.64,0-.87,0-1.82,0l-1.55,0-.17,0Z"/><path id="_Compound_Path_26" data-name="&lt;Compound Path&gt;" class="cls-2" d="M84.76,62.13a.9.9,0,0,0,.47-.11,2.19,2.19,0,0,0,.66-1.1l1.8-5.13a2,2,0,0,0,.19-.69c0-.3-.17-.43-.59-.43l-.13,0,.23-.74.17,0,1,0,1,0,.19,0,2.64,7.18c.2.54.36.77.64.89a1.19,1.19,0,0,0,.4.09l.13,0-.23.69c-.62,0-.85,0-1.81,0L90,62.8l-.18,0,.22-.69c.57,0,.8-.15.8-.46a1.83,1.83,0,0,0-.15-.61l-.58-1.61-1.37.7-1.42-.7-.56,1.64a2.08,2.08,0,0,0-.13.57c0,.32.17.44.7.47h0l-.23.69-.17,0-1.11,0-1.15,0-.17,0Zm5-3.51-1.11-3-1.06,3,1.12.59Z"/></g><path id="_Path_" data-name="&lt;Path&gt;" class="cls-3" d="M59.64,59.57a1.6,1.6,0,0,1-.91.18.1.1,0,0,1,0-.2c1.33-.09,1.51-2,.22-2.14S57.6,58.85,58.42,59c.23,0,.32-.1.2-.13a.56.56,0,0,1-.35-.45.49.49,0,0,1,.55-.5.58.58,0,0,1,.49.66.91.91,0,0,1-.79.82,1.1,1.1,0,0,1-1-.36,1.22,1.22,0,0,1-.19-1.34,1.73,1.73,0,0,1,2.15-.78,1.53,1.53,0,0,1,1,1.22A1.51,1.51,0,0,1,59.64,59.57Z"/><g id="_Group_2" data-name="&lt;Group&gt;"><g id="_Group_3" data-name="&lt;Group&gt;"><path id="_Path_2" data-name="&lt;Path&gt;" class="cls-3" d="M138.11,15.24a.89.89,0,0,1,.07.86l-9.06,18.77a.85.85,0,0,1-1,.48.83.83,0,0,1-.64-.86l1.2-18.42a.81.81,0,0,1,.26-.56.84.84,0,0,1,.57-.25l7.81-.38A.86.86,0,0,1,138.11,15.24Z"/></g><path id="_Path_3" data-name="&lt;Path&gt;" class="cls-4" d="M93.81,15.91c.35-.66.32-1.73-.76-1.3-2.41,1-8.47,3.45-9.75,3.91a1.52,1.52,0,0,0-.84.62c-.3.64-2.55,7.21-3.87,11.11-1.06,3-2,5.54-2.13,6-.11-.37-.5-1.61-1-3.2C75.21,32.28,71.37,19.89,71,19a1.57,1.57,0,0,0-.83-.64c-1.27-.49-7.26-3.14-9.64-4.16-1.07-.45-1.13.61-.8,1.28s2.69,5.17,5.47,10.46c2.91,5.61,8.72,16.84,10.17,19.62a1,1,0,0,0,.89.57h.05a1,1,0,0,0,.91-.53l1.65-2.92v.06S93.13,17.19,93.81,15.91Z"/><path id="_Path_4" data-name="&lt;Path&gt;" class="cls-4" d="M53.91,17.52c-.43.3-3.07,2.12-3.77,2.57-.31.19-.51.43-.6,1.14-.39,3.12-4.2,23.52-4.36,24.36s.56,1.18,1.23.92c1.87-.73,7.46-3.09,9.34-3.82a1,1,0,0,0,.57-1c0-.59-1.58-23.38-1.58-23.69A.53.53,0,0,0,53.91,17.52Z"/><path id="_Path_5" data-name="&lt;Path&gt;" class="cls-4" d="M44.86,14.48c-2,1.27-8.24,4.82-9.39,5.38a1.51,1.51,0,0,0-.73.7c-.33,1-4.45,13.47-4.65,14.38-.35-.86-6.17-12.46-6.66-13.38A1.45,1.45,0,0,0,22.6,21c-1.22-.35-8-2.74-10.1-3.65a.5.5,0,0,0-.58.78c.92,1.13,16.57,25.35,18.44,28.25a.8.8,0,0,0,.76.39h0a.81.81,0,0,0,.7-.51c1.38-3.19,13-29.84,13.71-31.11A.49.49,0,0,0,44.86,14.48Z"/><path id="_Path_6" data-name="&lt;Path&gt;" class="cls-4" d="M101.63,12.31a1.07,1.07,0,0,0-.92.65c-.94,2.32-1.55,4-1.8,4.58a1,1,0,0,0,1.41,1.23c4-1.72,14.64,1.2,14.15,11.43a11.55,11.55,0,0,0-12.17-8.62A12,12,0,0,0,91.45,34.39a11.66,11.66,0,0,0,2.3,6.19c2.3,3.52,7,5.33,10.77,4.05a8.36,8.36,0,0,0,5.74-6.41,6.39,6.39,0,0,0-1.84-6,5.69,5.69,0,0,0-7.61-.17c-1.8,1.63-1.9,3.48-.65,5a3,3,0,0,0,4.25.22,3.27,3.27,0,0,0,1-3.21,4,4,0,0,1,1,3.26,4.36,4.36,0,0,1-4.24,3.37,5.43,5.43,0,0,1-5.4-5.81,8,8,0,0,1,3.67-6.37c2.31-1.62,6.5-1.5,9.19.62A8.62,8.62,0,0,1,113,37.65a22.7,22.7,0,0,1-3.21,8.68.58.58,0,0,0,.58.9l6-.43a.62.62,0,0,0,.55-.72,30.06,30.06,0,0,1,.84-14.33C122.16,18.74,111.22,11.75,101.63,12.31Z"/><path id="_Path_7" data-name="&lt;Path&gt;" class="cls-3" d="M125.55,40.67a1.36,1.36,0,0,1,2.52.54l.93,2.91a1.58,1.58,0,0,1-1.78,2.21L123.56,46c-1.41-.14-1.79-1.11-.84-2.17Z"/><path id="_Path_8" data-name="&lt;Path&gt;" class="cls-4" d="M55.36,11.5a6.65,6.65,0,0,1-3.72.75.42.42,0,0,1-.1-.84c5.45-.35,6.18-8.36.89-8.75C47.64,2.31,47,8.54,50.34,9c1,.14,1.33-.4.83-.52a2.26,2.26,0,0,1-1.44-1.84A2.06,2.06,0,0,1,52,4.58a2.39,2.39,0,0,1,2,2.7,3.76,3.76,0,0,1-3.27,3.35,4.48,4.48,0,0,1-4-1.44A5.09,5.09,0,0,1,46,3.68C47.24.79,51.5-.91,54.79.51a6.27,6.27,0,0,1,3.91,5A6.13,6.13,0,0,1,55.36,11.5Z"/><g id="_Group_4" data-name="&lt;Group&gt;"><path id="_Path_9" data-name="&lt;Path&gt;" class="cls-3" d="M17.37,47.25a.87.87,0,0,0,0-.86L7,28.34a.85.85,0,0,0-1.6.49L7.93,47.11a.83.83,0,0,0,.3.54.86.86,0,0,0,.59.21l7.82-.19A.86.86,0,0,0,17.37,47.25Z"/></g><path id="_Path_10" data-name="&lt;Path&gt;" class="cls-3" d="M3.36,23.33a1.36,1.36,0,0,0,2.51-.54l.93-2.92A1.57,1.57,0,0,0,5,17.67L1.36,18C0,18.16-.43,19.13.52,20.18Z"/></g></g></g></svg>